%TF.GenerationSoftware,KiCad,Pcbnew,10.0.3*%
%TF.CreationDate,2026-09-06T16:40:06+03:00*%
%TF.ProjectId,v1.0,76312e30-2e6b-4696-9361-645f70636258,rev?*%
%TF.SameCoordinates,Original*%
%TF.FileFunction,Soldermask,Bot*%
%TF.FilePolarity,Negative*%
%FSLAX46Y46*%
G04 Gerber Fmt 4.6, Leading zero omitted, Abs format (unit mm)*
G04 Created by KiCad (PCBNEW 10.0.3) date 2026-09-06 16:40:06*
%MOMM*%
%LPD*%
G01*
G04 APERTURE LIST*
G04 Aperture macros list*
%AMRoundRect*
0 Rectangle with rounded corners*
0 $1 Rounding radius*
0 $2 $3 $4 $5 $6 $7 $8 $9 X,Y pos of 4 corners*
0 Add a 4 corners polygon primitive as box body*
4,1,4,$2,$3,$4,$5,$6,$7,$8,$9,$2,$3,0*
0 Add four circle primitives for the rounded corners*
1,1,$1+$1,$2,$3*
1,1,$1+$1,$4,$5*
1,1,$1+$1,$6,$7*
1,1,$1+$1,$8,$9*
0 Add four rect primitives between the rounded corners*
20,1,$1+$1,$2,$3,$4,$5,0*
20,1,$1+$1,$4,$5,$6,$7,0*
20,1,$1+$1,$6,$7,$8,$9,0*
20,1,$1+$1,$8,$9,$2,$3,0*%
G04 Aperture macros list end*
%ADD10C,0.900000*%
%ADD11O,2.200000X3.500000*%
%ADD12R,1.500000X2.500000*%
%ADD13O,1.500000X2.500000*%
%ADD14C,0.650000*%
%ADD15O,1.000000X2.100000*%
%ADD16O,1.000000X1.600000*%
%ADD17R,1.700000X1.700000*%
%ADD18C,1.700000*%
%ADD19RoundRect,0.250000X0.600000X0.725000X-0.600000X0.725000X-0.600000X-0.725000X0.600000X-0.725000X0*%
%ADD20O,1.700000X1.950000*%
G04 APERTURE END LIST*
D10*
%TO.C,SW4*%
X129384800Y-78495000D03*
X126384800Y-78495000D03*
%TD*%
D11*
%TO.C,SW5*%
X145650000Y-83000000D03*
X137450000Y-83000000D03*
D12*
X143550000Y-83000000D03*
D13*
X141550000Y-83000000D03*
X139550000Y-83000000D03*
%TD*%
D14*
%TO.C,J11*%
X141935135Y-123407356D03*
X147715135Y-123407356D03*
D15*
X140505135Y-122877356D03*
D16*
X140505135Y-127057356D03*
D15*
X149145135Y-122877356D03*
D16*
X149145135Y-127057356D03*
%TD*%
D17*
%TO.C,J15*%
X142464400Y-87576400D03*
D18*
X145004400Y-87576400D03*
%TD*%
D17*
%TO.C,J5*%
X152433200Y-87576400D03*
D18*
X152433200Y-85036400D03*
X152433200Y-82496400D03*
%TD*%
D14*
%TO.C,J7*%
X153487335Y-123394356D03*
X159267335Y-123394356D03*
D15*
X152057335Y-122864356D03*
D16*
X152057335Y-127044356D03*
D15*
X160697335Y-122864356D03*
D16*
X160697335Y-127044356D03*
%TD*%
D17*
%TO.C,J6*%
X148836400Y-87576400D03*
D18*
X148836400Y-85036400D03*
X148836400Y-82496400D03*
%TD*%
D17*
%TO.C,J3*%
X159550000Y-87580000D03*
D18*
X159550000Y-85040000D03*
X159550000Y-82500000D03*
%TD*%
D17*
%TO.C,J2*%
X139289400Y-78813400D03*
D18*
X141829400Y-78813400D03*
X144369400Y-78813400D03*
X146909400Y-78813400D03*
%TD*%
D17*
%TO.C,J1*%
X150541600Y-78813400D03*
D18*
X153081600Y-78813400D03*
X155621600Y-78813400D03*
X158161600Y-78813400D03*
%TD*%
D17*
%TO.C,J4*%
X156000000Y-87576400D03*
D18*
X156000000Y-85036400D03*
X156000000Y-82496400D03*
%TD*%
D19*
%TO.C,J10*%
X135542935Y-122914856D03*
D20*
X133042935Y-122914856D03*
X130542935Y-122914856D03*
X128042935Y-122914856D03*
%TD*%
D17*
%TO.C,J9*%
X212790000Y-108736231D03*
D18*
X210250000Y-108736231D03*
X207710000Y-108736231D03*
X205170000Y-108736231D03*
X202630000Y-108736231D03*
X200090000Y-108736231D03*
X197550000Y-108736231D03*
X195010000Y-108736231D03*
X192470000Y-108736231D03*
X189930000Y-108736231D03*
X187390000Y-108736231D03*
X184850000Y-108736231D03*
X182310000Y-108736231D03*
X179770000Y-108736231D03*
X177230000Y-108736231D03*
X174690000Y-108736231D03*
X172150000Y-108736231D03*
X169610000Y-108736231D03*
X167070000Y-108736231D03*
X164530000Y-108736231D03*
%TD*%
D17*
%TO.C,J8*%
X164530000Y-95855631D03*
D18*
X167070000Y-95855631D03*
X169610000Y-95855631D03*
X172150000Y-95855631D03*
X174690000Y-95855631D03*
X177230000Y-95855631D03*
X179770000Y-95855631D03*
X182310000Y-95855631D03*
X184850000Y-95855631D03*
X187390000Y-95855631D03*
X189930000Y-95855631D03*
X192470000Y-95855631D03*
X195010000Y-95855631D03*
X197550000Y-95855631D03*
X200090000Y-95855631D03*
X202630000Y-95855631D03*
X205170000Y-95855631D03*
X207710000Y-95855631D03*
X210250000Y-95855631D03*
X212790000Y-95855631D03*
%TD*%
D17*
%TO.C,J14*%
X134050000Y-80811000D03*
D18*
X134050000Y-78271000D03*
%TD*%
M02*
