%TF.GenerationSoftware,KiCad,Pcbnew,10.0.3*%
%TF.CreationDate,2026-09-06T17:05:21+03:00*%
%TF.ProjectId,v1.0,76312e30-2e6b-4696-9361-645f70636258,rev?*%
%TF.SameCoordinates,Original*%
%TF.FileFunction,AssemblyDrawing,Bot*%
%FSLAX46Y46*%
G04 Gerber Fmt 4.6, Leading zero omitted, Abs format (unit mm)*
G04 Created by KiCad (PCBNEW 10.0.3) date 2026-09-06 17:05:21*
%MOMM*%
%LPD*%
G01*
G04 APERTURE LIST*
%ADD10C,0.150000*%
%ADD11C,0.100000*%
G04 APERTURE END LIST*
D10*
X213149580Y-76699475D02*
X213197200Y-76651856D01*
X213197200Y-76651856D02*
X213244819Y-76508999D01*
X213244819Y-76508999D02*
X213244819Y-76413761D01*
X213244819Y-76413761D02*
X213197200Y-76270904D01*
X213197200Y-76270904D02*
X213101961Y-76175666D01*
X213101961Y-76175666D02*
X213006723Y-76128047D01*
X213006723Y-76128047D02*
X212816247Y-76080428D01*
X212816247Y-76080428D02*
X212673390Y-76080428D01*
X212673390Y-76080428D02*
X212482914Y-76128047D01*
X212482914Y-76128047D02*
X212387676Y-76175666D01*
X212387676Y-76175666D02*
X212292438Y-76270904D01*
X212292438Y-76270904D02*
X212244819Y-76413761D01*
X212244819Y-76413761D02*
X212244819Y-76508999D01*
X212244819Y-76508999D02*
X212292438Y-76651856D01*
X212292438Y-76651856D02*
X212340057Y-76699475D01*
X213244819Y-77270904D02*
X213197200Y-77175666D01*
X213197200Y-77175666D02*
X213149580Y-77128047D01*
X213149580Y-77128047D02*
X213054342Y-77080428D01*
X213054342Y-77080428D02*
X212768628Y-77080428D01*
X212768628Y-77080428D02*
X212673390Y-77128047D01*
X212673390Y-77128047D02*
X212625771Y-77175666D01*
X212625771Y-77175666D02*
X212578152Y-77270904D01*
X212578152Y-77270904D02*
X212578152Y-77413761D01*
X212578152Y-77413761D02*
X212625771Y-77508999D01*
X212625771Y-77508999D02*
X212673390Y-77556618D01*
X212673390Y-77556618D02*
X212768628Y-77604237D01*
X212768628Y-77604237D02*
X213054342Y-77604237D01*
X213054342Y-77604237D02*
X213149580Y-77556618D01*
X213149580Y-77556618D02*
X213197200Y-77508999D01*
X213197200Y-77508999D02*
X213244819Y-77413761D01*
X213244819Y-77413761D02*
X213244819Y-77270904D01*
X212578152Y-78032809D02*
X213244819Y-78032809D01*
X212673390Y-78032809D02*
X212625771Y-78080428D01*
X212625771Y-78080428D02*
X212578152Y-78175666D01*
X212578152Y-78175666D02*
X212578152Y-78318523D01*
X212578152Y-78318523D02*
X212625771Y-78413761D01*
X212625771Y-78413761D02*
X212721009Y-78461380D01*
X212721009Y-78461380D02*
X213244819Y-78461380D01*
X212578152Y-78937571D02*
X213244819Y-78937571D01*
X212673390Y-78937571D02*
X212625771Y-78985190D01*
X212625771Y-78985190D02*
X212578152Y-79080428D01*
X212578152Y-79080428D02*
X212578152Y-79223285D01*
X212578152Y-79223285D02*
X212625771Y-79318523D01*
X212625771Y-79318523D02*
X212721009Y-79366142D01*
X212721009Y-79366142D02*
X213244819Y-79366142D01*
X213340057Y-79604238D02*
X213340057Y-80366142D01*
X212244819Y-80794714D02*
X212244819Y-80889952D01*
X212244819Y-80889952D02*
X212292438Y-80985190D01*
X212292438Y-80985190D02*
X212340057Y-81032809D01*
X212340057Y-81032809D02*
X212435295Y-81080428D01*
X212435295Y-81080428D02*
X212625771Y-81128047D01*
X212625771Y-81128047D02*
X212863866Y-81128047D01*
X212863866Y-81128047D02*
X213054342Y-81080428D01*
X213054342Y-81080428D02*
X213149580Y-81032809D01*
X213149580Y-81032809D02*
X213197200Y-80985190D01*
X213197200Y-80985190D02*
X213244819Y-80889952D01*
X213244819Y-80889952D02*
X213244819Y-80794714D01*
X213244819Y-80794714D02*
X213197200Y-80699476D01*
X213197200Y-80699476D02*
X213149580Y-80651857D01*
X213149580Y-80651857D02*
X213054342Y-80604238D01*
X213054342Y-80604238D02*
X212863866Y-80556619D01*
X212863866Y-80556619D02*
X212625771Y-80556619D01*
X212625771Y-80556619D02*
X212435295Y-80604238D01*
X212435295Y-80604238D02*
X212340057Y-80651857D01*
X212340057Y-80651857D02*
X212292438Y-80699476D01*
X212292438Y-80699476D02*
X212244819Y-80794714D01*
X213244819Y-82080428D02*
X213244819Y-81509000D01*
X213244819Y-81794714D02*
X212244819Y-81794714D01*
X212244819Y-81794714D02*
X212387676Y-81699476D01*
X212387676Y-81699476D02*
X212482914Y-81604238D01*
X212482914Y-81604238D02*
X212530533Y-81509000D01*
X213244819Y-82413762D02*
X212578152Y-82937571D01*
X212578152Y-82413762D02*
X213244819Y-82937571D01*
X212340057Y-83270905D02*
X212292438Y-83318524D01*
X212292438Y-83318524D02*
X212244819Y-83413762D01*
X212244819Y-83413762D02*
X212244819Y-83651857D01*
X212244819Y-83651857D02*
X212292438Y-83747095D01*
X212292438Y-83747095D02*
X212340057Y-83794714D01*
X212340057Y-83794714D02*
X212435295Y-83842333D01*
X212435295Y-83842333D02*
X212530533Y-83842333D01*
X212530533Y-83842333D02*
X212673390Y-83794714D01*
X212673390Y-83794714D02*
X213244819Y-83223286D01*
X213244819Y-83223286D02*
X213244819Y-83842333D01*
X212244819Y-84461381D02*
X212244819Y-84556619D01*
X212244819Y-84556619D02*
X212292438Y-84651857D01*
X212292438Y-84651857D02*
X212340057Y-84699476D01*
X212340057Y-84699476D02*
X212435295Y-84747095D01*
X212435295Y-84747095D02*
X212625771Y-84794714D01*
X212625771Y-84794714D02*
X212863866Y-84794714D01*
X212863866Y-84794714D02*
X213054342Y-84747095D01*
X213054342Y-84747095D02*
X213149580Y-84699476D01*
X213149580Y-84699476D02*
X213197200Y-84651857D01*
X213197200Y-84651857D02*
X213244819Y-84556619D01*
X213244819Y-84556619D02*
X213244819Y-84461381D01*
X213244819Y-84461381D02*
X213197200Y-84366143D01*
X213197200Y-84366143D02*
X213149580Y-84318524D01*
X213149580Y-84318524D02*
X213054342Y-84270905D01*
X213054342Y-84270905D02*
X212863866Y-84223286D01*
X212863866Y-84223286D02*
X212625771Y-84223286D01*
X212625771Y-84223286D02*
X212435295Y-84270905D01*
X212435295Y-84270905D02*
X212340057Y-84318524D01*
X212340057Y-84318524D02*
X212292438Y-84366143D01*
X212292438Y-84366143D02*
X212244819Y-84461381D01*
X213340057Y-84985191D02*
X213340057Y-85747095D01*
X213244819Y-85985191D02*
X212244819Y-85985191D01*
X212244819Y-85985191D02*
X212244819Y-86366143D01*
X212244819Y-86366143D02*
X212292438Y-86461381D01*
X212292438Y-86461381D02*
X212340057Y-86509000D01*
X212340057Y-86509000D02*
X212435295Y-86556619D01*
X212435295Y-86556619D02*
X212578152Y-86556619D01*
X212578152Y-86556619D02*
X212673390Y-86509000D01*
X212673390Y-86509000D02*
X212721009Y-86461381D01*
X212721009Y-86461381D02*
X212768628Y-86366143D01*
X212768628Y-86366143D02*
X212768628Y-85985191D01*
X213244819Y-86985191D02*
X212578152Y-86985191D01*
X212244819Y-86985191D02*
X212292438Y-86937572D01*
X212292438Y-86937572D02*
X212340057Y-86985191D01*
X212340057Y-86985191D02*
X212292438Y-87032810D01*
X212292438Y-87032810D02*
X212244819Y-86985191D01*
X212244819Y-86985191D02*
X212340057Y-86985191D01*
X212578152Y-87461381D02*
X213244819Y-87461381D01*
X212673390Y-87461381D02*
X212625771Y-87509000D01*
X212625771Y-87509000D02*
X212578152Y-87604238D01*
X212578152Y-87604238D02*
X212578152Y-87747095D01*
X212578152Y-87747095D02*
X212625771Y-87842333D01*
X212625771Y-87842333D02*
X212721009Y-87889952D01*
X212721009Y-87889952D02*
X213244819Y-87889952D01*
X139584424Y-76219980D02*
X139632043Y-76267600D01*
X139632043Y-76267600D02*
X139774900Y-76315219D01*
X139774900Y-76315219D02*
X139870138Y-76315219D01*
X139870138Y-76315219D02*
X140012995Y-76267600D01*
X140012995Y-76267600D02*
X140108233Y-76172361D01*
X140108233Y-76172361D02*
X140155852Y-76077123D01*
X140155852Y-76077123D02*
X140203471Y-75886647D01*
X140203471Y-75886647D02*
X140203471Y-75743790D01*
X140203471Y-75743790D02*
X140155852Y-75553314D01*
X140155852Y-75553314D02*
X140108233Y-75458076D01*
X140108233Y-75458076D02*
X140012995Y-75362838D01*
X140012995Y-75362838D02*
X139870138Y-75315219D01*
X139870138Y-75315219D02*
X139774900Y-75315219D01*
X139774900Y-75315219D02*
X139632043Y-75362838D01*
X139632043Y-75362838D02*
X139584424Y-75410457D01*
X139012995Y-76315219D02*
X139108233Y-76267600D01*
X139108233Y-76267600D02*
X139155852Y-76219980D01*
X139155852Y-76219980D02*
X139203471Y-76124742D01*
X139203471Y-76124742D02*
X139203471Y-75839028D01*
X139203471Y-75839028D02*
X139155852Y-75743790D01*
X139155852Y-75743790D02*
X139108233Y-75696171D01*
X139108233Y-75696171D02*
X139012995Y-75648552D01*
X139012995Y-75648552D02*
X138870138Y-75648552D01*
X138870138Y-75648552D02*
X138774900Y-75696171D01*
X138774900Y-75696171D02*
X138727281Y-75743790D01*
X138727281Y-75743790D02*
X138679662Y-75839028D01*
X138679662Y-75839028D02*
X138679662Y-76124742D01*
X138679662Y-76124742D02*
X138727281Y-76219980D01*
X138727281Y-76219980D02*
X138774900Y-76267600D01*
X138774900Y-76267600D02*
X138870138Y-76315219D01*
X138870138Y-76315219D02*
X139012995Y-76315219D01*
X138251090Y-75648552D02*
X138251090Y-76315219D01*
X138251090Y-75743790D02*
X138203471Y-75696171D01*
X138203471Y-75696171D02*
X138108233Y-75648552D01*
X138108233Y-75648552D02*
X137965376Y-75648552D01*
X137965376Y-75648552D02*
X137870138Y-75696171D01*
X137870138Y-75696171D02*
X137822519Y-75791409D01*
X137822519Y-75791409D02*
X137822519Y-76315219D01*
X137346328Y-75648552D02*
X137346328Y-76315219D01*
X137346328Y-75743790D02*
X137298709Y-75696171D01*
X137298709Y-75696171D02*
X137203471Y-75648552D01*
X137203471Y-75648552D02*
X137060614Y-75648552D01*
X137060614Y-75648552D02*
X136965376Y-75696171D01*
X136965376Y-75696171D02*
X136917757Y-75791409D01*
X136917757Y-75791409D02*
X136917757Y-76315219D01*
X136679662Y-76410457D02*
X135917757Y-76410457D01*
X135489185Y-75315219D02*
X135393947Y-75315219D01*
X135393947Y-75315219D02*
X135298709Y-75362838D01*
X135298709Y-75362838D02*
X135251090Y-75410457D01*
X135251090Y-75410457D02*
X135203471Y-75505695D01*
X135203471Y-75505695D02*
X135155852Y-75696171D01*
X135155852Y-75696171D02*
X135155852Y-75934266D01*
X135155852Y-75934266D02*
X135203471Y-76124742D01*
X135203471Y-76124742D02*
X135251090Y-76219980D01*
X135251090Y-76219980D02*
X135298709Y-76267600D01*
X135298709Y-76267600D02*
X135393947Y-76315219D01*
X135393947Y-76315219D02*
X135489185Y-76315219D01*
X135489185Y-76315219D02*
X135584423Y-76267600D01*
X135584423Y-76267600D02*
X135632042Y-76219980D01*
X135632042Y-76219980D02*
X135679661Y-76124742D01*
X135679661Y-76124742D02*
X135727280Y-75934266D01*
X135727280Y-75934266D02*
X135727280Y-75696171D01*
X135727280Y-75696171D02*
X135679661Y-75505695D01*
X135679661Y-75505695D02*
X135632042Y-75410457D01*
X135632042Y-75410457D02*
X135584423Y-75362838D01*
X135584423Y-75362838D02*
X135489185Y-75315219D01*
X134203471Y-76315219D02*
X134774899Y-76315219D01*
X134489185Y-76315219D02*
X134489185Y-75315219D01*
X134489185Y-75315219D02*
X134584423Y-75458076D01*
X134584423Y-75458076D02*
X134679661Y-75553314D01*
X134679661Y-75553314D02*
X134774899Y-75600933D01*
X133870137Y-76315219D02*
X133346328Y-75648552D01*
X133870137Y-75648552D02*
X133346328Y-76315219D01*
X132774899Y-75315219D02*
X132679661Y-75315219D01*
X132679661Y-75315219D02*
X132584423Y-75362838D01*
X132584423Y-75362838D02*
X132536804Y-75410457D01*
X132536804Y-75410457D02*
X132489185Y-75505695D01*
X132489185Y-75505695D02*
X132441566Y-75696171D01*
X132441566Y-75696171D02*
X132441566Y-75934266D01*
X132441566Y-75934266D02*
X132489185Y-76124742D01*
X132489185Y-76124742D02*
X132536804Y-76219980D01*
X132536804Y-76219980D02*
X132584423Y-76267600D01*
X132584423Y-76267600D02*
X132679661Y-76315219D01*
X132679661Y-76315219D02*
X132774899Y-76315219D01*
X132774899Y-76315219D02*
X132870137Y-76267600D01*
X132870137Y-76267600D02*
X132917756Y-76219980D01*
X132917756Y-76219980D02*
X132965375Y-76124742D01*
X132965375Y-76124742D02*
X133012994Y-75934266D01*
X133012994Y-75934266D02*
X133012994Y-75696171D01*
X133012994Y-75696171D02*
X132965375Y-75505695D01*
X132965375Y-75505695D02*
X132917756Y-75410457D01*
X132917756Y-75410457D02*
X132870137Y-75362838D01*
X132870137Y-75362838D02*
X132774899Y-75315219D01*
X132060613Y-75410457D02*
X132012994Y-75362838D01*
X132012994Y-75362838D02*
X131917756Y-75315219D01*
X131917756Y-75315219D02*
X131679661Y-75315219D01*
X131679661Y-75315219D02*
X131584423Y-75362838D01*
X131584423Y-75362838D02*
X131536804Y-75410457D01*
X131536804Y-75410457D02*
X131489185Y-75505695D01*
X131489185Y-75505695D02*
X131489185Y-75600933D01*
X131489185Y-75600933D02*
X131536804Y-75743790D01*
X131536804Y-75743790D02*
X132108232Y-76315219D01*
X132108232Y-76315219D02*
X131489185Y-76315219D01*
X131298709Y-76410457D02*
X130536804Y-76410457D01*
X130298708Y-76315219D02*
X130298708Y-75315219D01*
X130298708Y-75315219D02*
X129917756Y-75315219D01*
X129917756Y-75315219D02*
X129822518Y-75362838D01*
X129822518Y-75362838D02*
X129774899Y-75410457D01*
X129774899Y-75410457D02*
X129727280Y-75505695D01*
X129727280Y-75505695D02*
X129727280Y-75648552D01*
X129727280Y-75648552D02*
X129774899Y-75743790D01*
X129774899Y-75743790D02*
X129822518Y-75791409D01*
X129822518Y-75791409D02*
X129917756Y-75839028D01*
X129917756Y-75839028D02*
X130298708Y-75839028D01*
X129298708Y-76315219D02*
X129298708Y-75648552D01*
X129298708Y-75315219D02*
X129346327Y-75362838D01*
X129346327Y-75362838D02*
X129298708Y-75410457D01*
X129298708Y-75410457D02*
X129251089Y-75362838D01*
X129251089Y-75362838D02*
X129298708Y-75315219D01*
X129298708Y-75315219D02*
X129298708Y-75410457D01*
X128822518Y-75648552D02*
X128822518Y-76315219D01*
X128822518Y-75743790D02*
X128774899Y-75696171D01*
X128774899Y-75696171D02*
X128679661Y-75648552D01*
X128679661Y-75648552D02*
X128536804Y-75648552D01*
X128536804Y-75648552D02*
X128441566Y-75696171D01*
X128441566Y-75696171D02*
X128393947Y-75791409D01*
X128393947Y-75791409D02*
X128393947Y-76315219D01*
X133504819Y-78731476D02*
X134219104Y-78731476D01*
X134219104Y-78731476D02*
X134361961Y-78683857D01*
X134361961Y-78683857D02*
X134457200Y-78588619D01*
X134457200Y-78588619D02*
X134504819Y-78445762D01*
X134504819Y-78445762D02*
X134504819Y-78350524D01*
X134504819Y-79731476D02*
X134504819Y-79160048D01*
X134504819Y-79445762D02*
X133504819Y-79445762D01*
X133504819Y-79445762D02*
X133647676Y-79350524D01*
X133647676Y-79350524D02*
X133742914Y-79255286D01*
X133742914Y-79255286D02*
X133790533Y-79160048D01*
X133838152Y-80588619D02*
X134504819Y-80588619D01*
X133457200Y-80350524D02*
X134171485Y-80112429D01*
X134171485Y-80112429D02*
X134171485Y-80731476D01*
%TO.C,J9*%
D11*
X163260000Y-107466231D02*
X163260000Y-110006231D01*
X163260000Y-110006231D02*
X213425000Y-110006231D01*
X213425000Y-110006231D02*
X214060000Y-109371231D01*
X214060000Y-107466231D02*
X163260000Y-107466231D01*
X214060000Y-109371231D02*
X214060000Y-107466231D01*
%TO.C,J8*%
X163260000Y-95220631D02*
X163260000Y-97125631D01*
X163260000Y-97125631D02*
X214060000Y-97125631D01*
X163895000Y-94585631D02*
X163260000Y-95220631D01*
X214060000Y-94585631D02*
X163895000Y-94585631D01*
X214060000Y-97125631D02*
X214060000Y-94585631D01*
%TO.C,J14*%
X132780000Y-77001000D02*
X132780000Y-81446000D01*
X132780000Y-81446000D02*
X133415000Y-82081000D01*
X133415000Y-82081000D02*
X135320000Y-82081000D01*
X135320000Y-77001000D02*
X132780000Y-77001000D01*
X135320000Y-82081000D02*
X135320000Y-77001000D01*
%TD*%
M02*
