%TF.GenerationSoftware,KiCad,Pcbnew,10.0.3*%
%TF.CreationDate,2026-09-06T17:05:21+03:00*%
%TF.ProjectId,v1.0,76312e30-2e6b-4696-9361-645f70636258,rev?*%
%TF.SameCoordinates,Original*%
%TF.FileFunction,Legend,Top*%
%TF.FilePolarity,Positive*%
%FSLAX46Y46*%
G04 Gerber Fmt 4.6, Leading zero omitted, Abs format (unit mm)*
G04 Created by KiCad (PCBNEW 10.0.3) date 2026-09-06 17:05:21*
%MOMM*%
%LPD*%
G01*
G04 APERTURE LIST*
G04 Aperture macros list*
%AMRoundRect*
0 Rectangle with rounded corners*
0 $1 Rounding radius*
0 $2 $3 $4 $5 $6 $7 $8 $9 X,Y pos of 4 corners*
0 Add a 4 corners polygon primitive as box body*
4,1,4,$2,$3,$4,$5,$6,$7,$8,$9,$2,$3,0*
0 Add four circle primitives for the rounded corners*
1,1,$1+$1,$2,$3*
1,1,$1+$1,$4,$5*
1,1,$1+$1,$6,$7*
1,1,$1+$1,$8,$9*
0 Add four rect primitives between the rounded corners*
20,1,$1+$1,$2,$3,$4,$5,0*
20,1,$1+$1,$4,$5,$6,$7,0*
20,1,$1+$1,$6,$7,$8,$9,0*
20,1,$1+$1,$8,$9,$2,$3,0*%
%AMFreePoly0*
4,1,23,0.500000,-0.750000,0.000000,-0.750000,0.000000,-0.745722,-0.065263,-0.745722,-0.191342,-0.711940,-0.304381,-0.646677,-0.396677,-0.554381,-0.461940,-0.441342,-0.495722,-0.315263,-0.495722,-0.250000,-0.500000,-0.250000,-0.500000,0.250000,-0.495722,0.250000,-0.495722,0.315263,-0.461940,0.441342,-0.396677,0.554381,-0.304381,0.646677,-0.191342,0.711940,-0.065263,0.745722,0.000000,0.745722,
0.000000,0.750000,0.500000,0.750000,0.500000,-0.750000,0.500000,-0.750000,$1*%
%AMFreePoly1*
4,1,23,0.000000,0.745722,0.065263,0.745722,0.191342,0.711940,0.304381,0.646677,0.396677,0.554381,0.461940,0.441342,0.495722,0.315263,0.495722,0.250000,0.500000,0.250000,0.500000,-0.250000,0.495722,-0.250000,0.495722,-0.315263,0.461940,-0.441342,0.396677,-0.554381,0.304381,-0.646677,0.191342,-0.711940,0.065263,-0.745722,0.000000,-0.745722,0.000000,-0.750000,-0.500000,-0.750000,
-0.500000,0.750000,0.000000,0.750000,0.000000,0.745722,0.000000,0.745722,$1*%
G04 Aperture macros list end*
%ADD10C,0.100000*%
%ADD11C,0.150000*%
%ADD12C,0.120000*%
%ADD13RoundRect,0.200000X-0.275000X0.200000X-0.275000X-0.200000X0.275000X-0.200000X0.275000X0.200000X0*%
%ADD14R,1.000000X0.800000*%
%ADD15C,0.900000*%
%ADD16R,0.700000X1.500000*%
%ADD17RoundRect,0.090000X-0.360000X0.660000X-0.360000X-0.660000X0.360000X-0.660000X0.360000X0.660000X0*%
%ADD18RoundRect,0.100000X-0.130000X-0.100000X0.130000X-0.100000X0.130000X0.100000X-0.130000X0.100000X0*%
%ADD19RoundRect,0.243750X0.456250X-0.243750X0.456250X0.243750X-0.456250X0.243750X-0.456250X-0.243750X0*%
%ADD20O,2.200000X3.500000*%
%ADD21R,1.500000X2.500000*%
%ADD22O,1.500000X2.500000*%
%ADD23RoundRect,0.250000X-0.525000X-0.400000X0.525000X-0.400000X0.525000X0.400000X-0.525000X0.400000X0*%
%ADD24C,0.650000*%
%ADD25RoundRect,0.150000X-0.150000X-0.575000X0.150000X-0.575000X0.150000X0.575000X-0.150000X0.575000X0*%
%ADD26RoundRect,0.075000X-0.075000X-0.650000X0.075000X-0.650000X0.075000X0.650000X-0.075000X0.650000X0*%
%ADD27O,1.000000X2.100000*%
%ADD28O,1.000000X1.600000*%
%ADD29R,1.700000X1.700000*%
%ADD30C,1.700000*%
%ADD31RoundRect,0.200000X-0.200000X-0.275000X0.200000X-0.275000X0.200000X0.275000X-0.200000X0.275000X0*%
%ADD32RoundRect,0.100000X0.100000X-0.130000X0.100000X0.130000X-0.100000X0.130000X-0.100000X-0.130000X0*%
%ADD33RoundRect,0.375000X-0.625000X-0.375000X0.625000X-0.375000X0.625000X0.375000X-0.625000X0.375000X0*%
%ADD34RoundRect,0.500000X-0.500000X-1.400000X0.500000X-1.400000X0.500000X1.400000X-0.500000X1.400000X0*%
%ADD35RoundRect,0.250000X-1.000000X-0.650000X1.000000X-0.650000X1.000000X0.650000X-1.000000X0.650000X0*%
%ADD36RoundRect,0.150000X-0.587500X-0.150000X0.587500X-0.150000X0.587500X0.150000X-0.587500X0.150000X0*%
%ADD37RoundRect,0.250000X0.525000X0.400000X-0.525000X0.400000X-0.525000X-0.400000X0.525000X-0.400000X0*%
%ADD38RoundRect,0.200000X0.200000X0.275000X-0.200000X0.275000X-0.200000X-0.275000X0.200000X-0.275000X0*%
%ADD39RoundRect,0.250000X0.400000X-0.525000X0.400000X0.525000X-0.400000X0.525000X-0.400000X-0.525000X0*%
%ADD40RoundRect,0.075000X-0.312500X-0.075000X0.312500X-0.075000X0.312500X0.075000X-0.312500X0.075000X0*%
%ADD41RoundRect,0.075000X-0.075000X-0.312500X0.075000X-0.312500X0.075000X0.312500X-0.075000X0.312500X0*%
%ADD42R,1.800000X1.800000*%
%ADD43RoundRect,0.250000X-0.325000X-0.650000X0.325000X-0.650000X0.325000X0.650000X-0.325000X0.650000X0*%
%ADD44FreePoly0,90.000000*%
%ADD45FreePoly1,90.000000*%
%ADD46RoundRect,0.250000X0.600000X0.725000X-0.600000X0.725000X-0.600000X-0.725000X0.600000X-0.725000X0*%
%ADD47O,1.700000X1.950000*%
%ADD48RoundRect,0.250000X-0.375000X-0.625000X0.375000X-0.625000X0.375000X0.625000X-0.375000X0.625000X0*%
%ADD49R,0.900000X1.500000*%
%ADD50R,1.500000X0.900000*%
%ADD51C,0.600000*%
%ADD52R,3.900000X3.900000*%
%ADD53RoundRect,0.100000X0.130000X0.100000X-0.130000X0.100000X-0.130000X-0.100000X0.130000X-0.100000X0*%
G04 APERTURE END LIST*
D10*
X166280000Y-103950000D02*
X168380000Y-103950000D01*
X168380000Y-104150000D01*
X166280000Y-104150000D01*
X166280000Y-103950000D01*
G36*
X166280000Y-103950000D02*
G01*
X168380000Y-103950000D01*
X168380000Y-104150000D01*
X166280000Y-104150000D01*
X166280000Y-103950000D01*
G37*
X166280000Y-104150000D02*
X166730000Y-104150000D01*
X166730000Y-109950000D01*
X166280000Y-109950000D01*
X166280000Y-104150000D01*
G36*
X166280000Y-104150000D02*
G01*
X166730000Y-104150000D01*
X166730000Y-109950000D01*
X166280000Y-109950000D01*
X166280000Y-104150000D01*
G37*
X166630000Y-106650000D02*
X167930000Y-106650000D01*
X167930000Y-109950000D01*
X166630000Y-109950000D01*
X166630000Y-106650000D01*
G36*
X166630000Y-106650000D02*
G01*
X167930000Y-106650000D01*
X167930000Y-109950000D01*
X166630000Y-109950000D01*
X166630000Y-106650000D01*
G37*
X167830000Y-104150000D02*
X168380000Y-104150000D01*
X168380000Y-109950000D01*
X167830000Y-109950000D01*
X167830000Y-104150000D01*
G36*
X167830000Y-104150000D02*
G01*
X168380000Y-104150000D01*
X168380000Y-109950000D01*
X167830000Y-109950000D01*
X167830000Y-104150000D01*
G37*
X168850000Y-94700000D02*
X169300000Y-94700000D01*
X169300000Y-100500000D01*
X168850000Y-100500000D01*
X168850000Y-94700000D01*
G36*
X168850000Y-94700000D02*
G01*
X169300000Y-94700000D01*
X169300000Y-100500000D01*
X168850000Y-100500000D01*
X168850000Y-94700000D01*
G37*
X168850000Y-100500000D02*
X170950000Y-100500000D01*
X170950000Y-100700000D01*
X168850000Y-100700000D01*
X168850000Y-100500000D01*
G36*
X168850000Y-100500000D02*
G01*
X170950000Y-100500000D01*
X170950000Y-100700000D01*
X168850000Y-100700000D01*
X168850000Y-100500000D01*
G37*
X169300000Y-94700000D02*
X170600000Y-94700000D01*
X170600000Y-98000000D01*
X169300000Y-98000000D01*
X169300000Y-94700000D01*
G36*
X169300000Y-94700000D02*
G01*
X170600000Y-94700000D01*
X170600000Y-98000000D01*
X169300000Y-98000000D01*
X169300000Y-94700000D01*
G37*
X170400000Y-94700000D02*
X170950000Y-94700000D01*
X170950000Y-100500000D01*
X170400000Y-100500000D01*
X170400000Y-94700000D01*
G36*
X170400000Y-94700000D02*
G01*
X170950000Y-94700000D01*
X170950000Y-100500000D01*
X170400000Y-100500000D01*
X170400000Y-94700000D01*
G37*
X186600000Y-94700000D02*
X187050000Y-94700000D01*
X187050000Y-100500000D01*
X186600000Y-100500000D01*
X186600000Y-94700000D01*
G36*
X186600000Y-94700000D02*
G01*
X187050000Y-94700000D01*
X187050000Y-100500000D01*
X186600000Y-100500000D01*
X186600000Y-94700000D01*
G37*
X186600000Y-100500000D02*
X188700000Y-100500000D01*
X188700000Y-100700000D01*
X186600000Y-100700000D01*
X186600000Y-100500000D01*
G36*
X186600000Y-100500000D02*
G01*
X188700000Y-100500000D01*
X188700000Y-100700000D01*
X186600000Y-100700000D01*
X186600000Y-100500000D01*
G37*
X187050000Y-94700000D02*
X188350000Y-94700000D01*
X188350000Y-98000000D01*
X187050000Y-98000000D01*
X187050000Y-94700000D01*
G36*
X187050000Y-94700000D02*
G01*
X188350000Y-94700000D01*
X188350000Y-98000000D01*
X187050000Y-98000000D01*
X187050000Y-94700000D01*
G37*
X188150000Y-94700000D02*
X188700000Y-94700000D01*
X188700000Y-100500000D01*
X188150000Y-100500000D01*
X188150000Y-94700000D01*
G36*
X188150000Y-94700000D02*
G01*
X188700000Y-94700000D01*
X188700000Y-100500000D01*
X188150000Y-100500000D01*
X188150000Y-94700000D01*
G37*
X189130000Y-103950000D02*
X191230000Y-103950000D01*
X191230000Y-104150000D01*
X189130000Y-104150000D01*
X189130000Y-103950000D01*
G36*
X189130000Y-103950000D02*
G01*
X191230000Y-103950000D01*
X191230000Y-104150000D01*
X189130000Y-104150000D01*
X189130000Y-103950000D01*
G37*
X189130000Y-104150000D02*
X189580000Y-104150000D01*
X189580000Y-109950000D01*
X189130000Y-109950000D01*
X189130000Y-104150000D01*
G36*
X189130000Y-104150000D02*
G01*
X189580000Y-104150000D01*
X189580000Y-109950000D01*
X189130000Y-109950000D01*
X189130000Y-104150000D01*
G37*
X189480000Y-106650000D02*
X190780000Y-106650000D01*
X190780000Y-109950000D01*
X189480000Y-109950000D01*
X189480000Y-106650000D01*
G36*
X189480000Y-106650000D02*
G01*
X190780000Y-106650000D01*
X190780000Y-109950000D01*
X189480000Y-109950000D01*
X189480000Y-106650000D01*
G37*
X190680000Y-104150000D02*
X191230000Y-104150000D01*
X191230000Y-109950000D01*
X190680000Y-109950000D01*
X190680000Y-104150000D01*
G36*
X190680000Y-104150000D02*
G01*
X191230000Y-104150000D01*
X191230000Y-109950000D01*
X190680000Y-109950000D01*
X190680000Y-104150000D01*
G37*
X211990000Y-103950000D02*
X214090000Y-103950000D01*
X214090000Y-104150000D01*
X211990000Y-104150000D01*
X211990000Y-103950000D01*
G36*
X211990000Y-103950000D02*
G01*
X214090000Y-103950000D01*
X214090000Y-104150000D01*
X211990000Y-104150000D01*
X211990000Y-103950000D01*
G37*
X211990000Y-104150000D02*
X212440000Y-104150000D01*
X212440000Y-109950000D01*
X211990000Y-109950000D01*
X211990000Y-104150000D01*
G36*
X211990000Y-104150000D02*
G01*
X212440000Y-104150000D01*
X212440000Y-109950000D01*
X211990000Y-109950000D01*
X211990000Y-104150000D01*
G37*
X212340000Y-106650000D02*
X213640000Y-106650000D01*
X213640000Y-109950000D01*
X212340000Y-109950000D01*
X212340000Y-106650000D01*
G36*
X212340000Y-106650000D02*
G01*
X213640000Y-106650000D01*
X213640000Y-109950000D01*
X212340000Y-109950000D01*
X212340000Y-106650000D01*
G37*
X213540000Y-104150000D02*
X214090000Y-104150000D01*
X214090000Y-109950000D01*
X213540000Y-109950000D01*
X213540000Y-104150000D01*
G36*
X213540000Y-104150000D02*
G01*
X214090000Y-104150000D01*
X214090000Y-109950000D01*
X213540000Y-109950000D01*
X213540000Y-104150000D01*
G37*
D11*
X127400408Y-113093247D02*
X127667074Y-113093247D01*
X127781360Y-113512295D02*
X127400408Y-113512295D01*
X127400408Y-113512295D02*
X127400408Y-112712295D01*
X127400408Y-112712295D02*
X127781360Y-112712295D01*
X128124218Y-113512295D02*
X128124218Y-112712295D01*
X128124218Y-112712295D02*
X128581361Y-113512295D01*
X128581361Y-113512295D02*
X128581361Y-112712295D01*
X125865753Y-81212295D02*
X126018134Y-81212295D01*
X126018134Y-81212295D02*
X126094324Y-81250390D01*
X126094324Y-81250390D02*
X126170515Y-81326580D01*
X126170515Y-81326580D02*
X126208610Y-81478961D01*
X126208610Y-81478961D02*
X126208610Y-81745628D01*
X126208610Y-81745628D02*
X126170515Y-81898009D01*
X126170515Y-81898009D02*
X126094324Y-81974200D01*
X126094324Y-81974200D02*
X126018134Y-82012295D01*
X126018134Y-82012295D02*
X125865753Y-82012295D01*
X125865753Y-82012295D02*
X125789562Y-81974200D01*
X125789562Y-81974200D02*
X125713372Y-81898009D01*
X125713372Y-81898009D02*
X125675276Y-81745628D01*
X125675276Y-81745628D02*
X125675276Y-81478961D01*
X125675276Y-81478961D02*
X125713372Y-81326580D01*
X125713372Y-81326580D02*
X125789562Y-81250390D01*
X125789562Y-81250390D02*
X125865753Y-81212295D01*
X126551467Y-82012295D02*
X126551467Y-81212295D01*
X126551467Y-81212295D02*
X127008610Y-82012295D01*
X127008610Y-82012295D02*
X127008610Y-81212295D01*
X127960990Y-81174200D02*
X127275276Y-82202771D01*
X128380038Y-81212295D02*
X128532419Y-81212295D01*
X128532419Y-81212295D02*
X128608609Y-81250390D01*
X128608609Y-81250390D02*
X128684800Y-81326580D01*
X128684800Y-81326580D02*
X128722895Y-81478961D01*
X128722895Y-81478961D02*
X128722895Y-81745628D01*
X128722895Y-81745628D02*
X128684800Y-81898009D01*
X128684800Y-81898009D02*
X128608609Y-81974200D01*
X128608609Y-81974200D02*
X128532419Y-82012295D01*
X128532419Y-82012295D02*
X128380038Y-82012295D01*
X128380038Y-82012295D02*
X128303847Y-81974200D01*
X128303847Y-81974200D02*
X128227657Y-81898009D01*
X128227657Y-81898009D02*
X128189561Y-81745628D01*
X128189561Y-81745628D02*
X128189561Y-81478961D01*
X128189561Y-81478961D02*
X128227657Y-81326580D01*
X128227657Y-81326580D02*
X128303847Y-81250390D01*
X128303847Y-81250390D02*
X128380038Y-81212295D01*
X129332418Y-81593247D02*
X129065752Y-81593247D01*
X129065752Y-82012295D02*
X129065752Y-81212295D01*
X129065752Y-81212295D02*
X129446704Y-81212295D01*
X130018132Y-81593247D02*
X129751466Y-81593247D01*
X129751466Y-82012295D02*
X129751466Y-81212295D01*
X129751466Y-81212295D02*
X130132418Y-81212295D01*
X131014648Y-121512295D02*
X131014648Y-120712295D01*
X131357504Y-120788485D02*
X131395600Y-120750390D01*
X131395600Y-120750390D02*
X131471790Y-120712295D01*
X131471790Y-120712295D02*
X131662266Y-120712295D01*
X131662266Y-120712295D02*
X131738457Y-120750390D01*
X131738457Y-120750390D02*
X131776552Y-120788485D01*
X131776552Y-120788485D02*
X131814647Y-120864676D01*
X131814647Y-120864676D02*
X131814647Y-120940866D01*
X131814647Y-120940866D02*
X131776552Y-121055152D01*
X131776552Y-121055152D02*
X131319409Y-121512295D01*
X131319409Y-121512295D02*
X131814647Y-121512295D01*
X132614648Y-121436104D02*
X132576552Y-121474200D01*
X132576552Y-121474200D02*
X132462267Y-121512295D01*
X132462267Y-121512295D02*
X132386076Y-121512295D01*
X132386076Y-121512295D02*
X132271790Y-121474200D01*
X132271790Y-121474200D02*
X132195600Y-121398009D01*
X132195600Y-121398009D02*
X132157505Y-121321819D01*
X132157505Y-121321819D02*
X132119409Y-121169438D01*
X132119409Y-121169438D02*
X132119409Y-121055152D01*
X132119409Y-121055152D02*
X132157505Y-120902771D01*
X132157505Y-120902771D02*
X132195600Y-120826580D01*
X132195600Y-120826580D02*
X132271790Y-120750390D01*
X132271790Y-120750390D02*
X132386076Y-120712295D01*
X132386076Y-120712295D02*
X132462267Y-120712295D01*
X132462267Y-120712295D02*
X132576552Y-120750390D01*
X132576552Y-120750390D02*
X132614648Y-120788485D01*
X130137352Y-82668295D02*
X130632590Y-82668295D01*
X130632590Y-82668295D02*
X130365924Y-82973057D01*
X130365924Y-82973057D02*
X130480209Y-82973057D01*
X130480209Y-82973057D02*
X130556400Y-83011152D01*
X130556400Y-83011152D02*
X130594495Y-83049247D01*
X130594495Y-83049247D02*
X130632590Y-83125438D01*
X130632590Y-83125438D02*
X130632590Y-83315914D01*
X130632590Y-83315914D02*
X130594495Y-83392104D01*
X130594495Y-83392104D02*
X130556400Y-83430200D01*
X130556400Y-83430200D02*
X130480209Y-83468295D01*
X130480209Y-83468295D02*
X130251638Y-83468295D01*
X130251638Y-83468295D02*
X130175447Y-83430200D01*
X130175447Y-83430200D02*
X130137352Y-83392104D01*
X130861162Y-82668295D02*
X131127829Y-83468295D01*
X131127829Y-83468295D02*
X131394495Y-82668295D01*
X131584971Y-82668295D02*
X132080209Y-82668295D01*
X132080209Y-82668295D02*
X131813543Y-82973057D01*
X131813543Y-82973057D02*
X131927828Y-82973057D01*
X131927828Y-82973057D02*
X132004019Y-83011152D01*
X132004019Y-83011152D02*
X132042114Y-83049247D01*
X132042114Y-83049247D02*
X132080209Y-83125438D01*
X132080209Y-83125438D02*
X132080209Y-83315914D01*
X132080209Y-83315914D02*
X132042114Y-83392104D01*
X132042114Y-83392104D02*
X132004019Y-83430200D01*
X132004019Y-83430200D02*
X131927828Y-83468295D01*
X131927828Y-83468295D02*
X131699257Y-83468295D01*
X131699257Y-83468295D02*
X131623066Y-83430200D01*
X131623066Y-83430200D02*
X131584971Y-83392104D01*
X133032591Y-83163533D02*
X133642115Y-83163533D01*
X135013543Y-82668295D02*
X134632591Y-82668295D01*
X134632591Y-82668295D02*
X134594495Y-83049247D01*
X134594495Y-83049247D02*
X134632591Y-83011152D01*
X134632591Y-83011152D02*
X134708781Y-82973057D01*
X134708781Y-82973057D02*
X134899257Y-82973057D01*
X134899257Y-82973057D02*
X134975448Y-83011152D01*
X134975448Y-83011152D02*
X135013543Y-83049247D01*
X135013543Y-83049247D02*
X135051638Y-83125438D01*
X135051638Y-83125438D02*
X135051638Y-83315914D01*
X135051638Y-83315914D02*
X135013543Y-83392104D01*
X135013543Y-83392104D02*
X134975448Y-83430200D01*
X134975448Y-83430200D02*
X134899257Y-83468295D01*
X134899257Y-83468295D02*
X134708781Y-83468295D01*
X134708781Y-83468295D02*
X134632591Y-83430200D01*
X134632591Y-83430200D02*
X134594495Y-83392104D01*
X135280210Y-82668295D02*
X135546877Y-83468295D01*
X135546877Y-83468295D02*
X135813543Y-82668295D01*
X135769048Y-79175695D02*
X135769048Y-78375695D01*
X136111904Y-78451885D02*
X136150000Y-78413790D01*
X136150000Y-78413790D02*
X136226190Y-78375695D01*
X136226190Y-78375695D02*
X136416666Y-78375695D01*
X136416666Y-78375695D02*
X136492857Y-78413790D01*
X136492857Y-78413790D02*
X136530952Y-78451885D01*
X136530952Y-78451885D02*
X136569047Y-78528076D01*
X136569047Y-78528076D02*
X136569047Y-78604266D01*
X136569047Y-78604266D02*
X136530952Y-78718552D01*
X136530952Y-78718552D02*
X136073809Y-79175695D01*
X136073809Y-79175695D02*
X136569047Y-79175695D01*
X137369048Y-79099504D02*
X137330952Y-79137600D01*
X137330952Y-79137600D02*
X137216667Y-79175695D01*
X137216667Y-79175695D02*
X137140476Y-79175695D01*
X137140476Y-79175695D02*
X137026190Y-79137600D01*
X137026190Y-79137600D02*
X136950000Y-79061409D01*
X136950000Y-79061409D02*
X136911905Y-78985219D01*
X136911905Y-78985219D02*
X136873809Y-78832838D01*
X136873809Y-78832838D02*
X136873809Y-78718552D01*
X136873809Y-78718552D02*
X136911905Y-78566171D01*
X136911905Y-78566171D02*
X136950000Y-78489980D01*
X136950000Y-78489980D02*
X137026190Y-78413790D01*
X137026190Y-78413790D02*
X137140476Y-78375695D01*
X137140476Y-78375695D02*
X137216667Y-78375695D01*
X137216667Y-78375695D02*
X137330952Y-78413790D01*
X137330952Y-78413790D02*
X137369048Y-78451885D01*
X134407142Y-91590895D02*
X134407142Y-90790895D01*
X134407142Y-90790895D02*
X134711904Y-90790895D01*
X134711904Y-90790895D02*
X134788094Y-90828990D01*
X134788094Y-90828990D02*
X134826189Y-90867085D01*
X134826189Y-90867085D02*
X134864285Y-90943276D01*
X134864285Y-90943276D02*
X134864285Y-91057561D01*
X134864285Y-91057561D02*
X134826189Y-91133752D01*
X134826189Y-91133752D02*
X134788094Y-91171847D01*
X134788094Y-91171847D02*
X134711904Y-91209942D01*
X134711904Y-91209942D02*
X134407142Y-91209942D01*
X135130951Y-90790895D02*
X135321427Y-91590895D01*
X135321427Y-91590895D02*
X135473808Y-91019466D01*
X135473808Y-91019466D02*
X135626189Y-91590895D01*
X135626189Y-91590895D02*
X135816666Y-90790895D01*
X136578571Y-91590895D02*
X136311904Y-91209942D01*
X136121428Y-91590895D02*
X136121428Y-90790895D01*
X136121428Y-90790895D02*
X136426190Y-90790895D01*
X136426190Y-90790895D02*
X136502380Y-90828990D01*
X136502380Y-90828990D02*
X136540475Y-90867085D01*
X136540475Y-90867085D02*
X136578571Y-90943276D01*
X136578571Y-90943276D02*
X136578571Y-91057561D01*
X136578571Y-91057561D02*
X136540475Y-91133752D01*
X136540475Y-91133752D02*
X136502380Y-91171847D01*
X136502380Y-91171847D02*
X136426190Y-91209942D01*
X136426190Y-91209942D02*
X136121428Y-91209942D01*
X137416666Y-90790895D02*
X137873809Y-90790895D01*
X137645237Y-91590895D02*
X137645237Y-90790895D01*
X138064285Y-90790895D02*
X138597619Y-91590895D01*
X138597619Y-90790895D02*
X138064285Y-91590895D01*
X139969048Y-91590895D02*
X139702381Y-91209942D01*
X139511905Y-91590895D02*
X139511905Y-90790895D01*
X139511905Y-90790895D02*
X139816667Y-90790895D01*
X139816667Y-90790895D02*
X139892857Y-90828990D01*
X139892857Y-90828990D02*
X139930952Y-90867085D01*
X139930952Y-90867085D02*
X139969048Y-90943276D01*
X139969048Y-90943276D02*
X139969048Y-91057561D01*
X139969048Y-91057561D02*
X139930952Y-91133752D01*
X139930952Y-91133752D02*
X139892857Y-91171847D01*
X139892857Y-91171847D02*
X139816667Y-91209942D01*
X139816667Y-91209942D02*
X139511905Y-91209942D01*
X140235714Y-90790895D02*
X140769048Y-91590895D01*
X140769048Y-90790895D02*
X140235714Y-91590895D01*
X158497619Y-98168318D02*
X158230952Y-97787365D01*
X158040476Y-98168318D02*
X158040476Y-97368318D01*
X158040476Y-97368318D02*
X158345238Y-97368318D01*
X158345238Y-97368318D02*
X158421428Y-97406413D01*
X158421428Y-97406413D02*
X158459523Y-97444508D01*
X158459523Y-97444508D02*
X158497619Y-97520699D01*
X158497619Y-97520699D02*
X158497619Y-97634984D01*
X158497619Y-97634984D02*
X158459523Y-97711175D01*
X158459523Y-97711175D02*
X158421428Y-97749270D01*
X158421428Y-97749270D02*
X158345238Y-97787365D01*
X158345238Y-97787365D02*
X158040476Y-97787365D01*
X159259523Y-97406413D02*
X159183333Y-97368318D01*
X159183333Y-97368318D02*
X159069047Y-97368318D01*
X159069047Y-97368318D02*
X158954761Y-97406413D01*
X158954761Y-97406413D02*
X158878571Y-97482603D01*
X158878571Y-97482603D02*
X158840476Y-97558794D01*
X158840476Y-97558794D02*
X158802380Y-97711175D01*
X158802380Y-97711175D02*
X158802380Y-97825461D01*
X158802380Y-97825461D02*
X158840476Y-97977842D01*
X158840476Y-97977842D02*
X158878571Y-98054032D01*
X158878571Y-98054032D02*
X158954761Y-98130223D01*
X158954761Y-98130223D02*
X159069047Y-98168318D01*
X159069047Y-98168318D02*
X159145238Y-98168318D01*
X159145238Y-98168318D02*
X159259523Y-98130223D01*
X159259523Y-98130223D02*
X159297619Y-98092127D01*
X159297619Y-98092127D02*
X159297619Y-97825461D01*
X159297619Y-97825461D02*
X159145238Y-97825461D01*
X159907142Y-97749270D02*
X160021428Y-97787365D01*
X160021428Y-97787365D02*
X160059523Y-97825461D01*
X160059523Y-97825461D02*
X160097619Y-97901651D01*
X160097619Y-97901651D02*
X160097619Y-98015937D01*
X160097619Y-98015937D02*
X160059523Y-98092127D01*
X160059523Y-98092127D02*
X160021428Y-98130223D01*
X160021428Y-98130223D02*
X159945238Y-98168318D01*
X159945238Y-98168318D02*
X159640476Y-98168318D01*
X159640476Y-98168318D02*
X159640476Y-97368318D01*
X159640476Y-97368318D02*
X159907142Y-97368318D01*
X159907142Y-97368318D02*
X159983333Y-97406413D01*
X159983333Y-97406413D02*
X160021428Y-97444508D01*
X160021428Y-97444508D02*
X160059523Y-97520699D01*
X160059523Y-97520699D02*
X160059523Y-97596889D01*
X160059523Y-97596889D02*
X160021428Y-97673080D01*
X160021428Y-97673080D02*
X159983333Y-97711175D01*
X159983333Y-97711175D02*
X159907142Y-97749270D01*
X159907142Y-97749270D02*
X159640476Y-97749270D01*
X157564286Y-99722939D02*
X157373810Y-99722939D01*
X157373810Y-99722939D02*
X157373810Y-98580082D01*
X157373810Y-98580082D02*
X157564286Y-98580082D01*
X157869048Y-99456273D02*
X157869048Y-98656273D01*
X158402381Y-98656273D02*
X158554762Y-98656273D01*
X158554762Y-98656273D02*
X158630952Y-98694368D01*
X158630952Y-98694368D02*
X158707143Y-98770558D01*
X158707143Y-98770558D02*
X158745238Y-98922939D01*
X158745238Y-98922939D02*
X158745238Y-99189606D01*
X158745238Y-99189606D02*
X158707143Y-99341987D01*
X158707143Y-99341987D02*
X158630952Y-99418178D01*
X158630952Y-99418178D02*
X158554762Y-99456273D01*
X158554762Y-99456273D02*
X158402381Y-99456273D01*
X158402381Y-99456273D02*
X158326190Y-99418178D01*
X158326190Y-99418178D02*
X158250000Y-99341987D01*
X158250000Y-99341987D02*
X158211904Y-99189606D01*
X158211904Y-99189606D02*
X158211904Y-98922939D01*
X158211904Y-98922939D02*
X158250000Y-98770558D01*
X158250000Y-98770558D02*
X158326190Y-98694368D01*
X158326190Y-98694368D02*
X158402381Y-98656273D01*
X159430952Y-98922939D02*
X159430952Y-99456273D01*
X159240476Y-98618178D02*
X159049999Y-99189606D01*
X159049999Y-99189606D02*
X159545238Y-99189606D01*
X159964285Y-98999130D02*
X159888095Y-98961035D01*
X159888095Y-98961035D02*
X159850000Y-98922939D01*
X159850000Y-98922939D02*
X159811904Y-98846749D01*
X159811904Y-98846749D02*
X159811904Y-98808654D01*
X159811904Y-98808654D02*
X159850000Y-98732463D01*
X159850000Y-98732463D02*
X159888095Y-98694368D01*
X159888095Y-98694368D02*
X159964285Y-98656273D01*
X159964285Y-98656273D02*
X160116666Y-98656273D01*
X160116666Y-98656273D02*
X160192857Y-98694368D01*
X160192857Y-98694368D02*
X160230952Y-98732463D01*
X160230952Y-98732463D02*
X160269047Y-98808654D01*
X160269047Y-98808654D02*
X160269047Y-98846749D01*
X160269047Y-98846749D02*
X160230952Y-98922939D01*
X160230952Y-98922939D02*
X160192857Y-98961035D01*
X160192857Y-98961035D02*
X160116666Y-98999130D01*
X160116666Y-98999130D02*
X159964285Y-98999130D01*
X159964285Y-98999130D02*
X159888095Y-99037225D01*
X159888095Y-99037225D02*
X159850000Y-99075320D01*
X159850000Y-99075320D02*
X159811904Y-99151511D01*
X159811904Y-99151511D02*
X159811904Y-99303892D01*
X159811904Y-99303892D02*
X159850000Y-99380082D01*
X159850000Y-99380082D02*
X159888095Y-99418178D01*
X159888095Y-99418178D02*
X159964285Y-99456273D01*
X159964285Y-99456273D02*
X160116666Y-99456273D01*
X160116666Y-99456273D02*
X160192857Y-99418178D01*
X160192857Y-99418178D02*
X160230952Y-99380082D01*
X160230952Y-99380082D02*
X160269047Y-99303892D01*
X160269047Y-99303892D02*
X160269047Y-99151511D01*
X160269047Y-99151511D02*
X160230952Y-99075320D01*
X160230952Y-99075320D02*
X160192857Y-99037225D01*
X160192857Y-99037225D02*
X160116666Y-98999130D01*
X160535714Y-99722939D02*
X160726190Y-99722939D01*
X160726190Y-99722939D02*
X160726190Y-98580082D01*
X160726190Y-98580082D02*
X160535714Y-98580082D01*
X160059048Y-79175695D02*
X160059048Y-78375695D01*
X160401904Y-78451885D02*
X160440000Y-78413790D01*
X160440000Y-78413790D02*
X160516190Y-78375695D01*
X160516190Y-78375695D02*
X160706666Y-78375695D01*
X160706666Y-78375695D02*
X160782857Y-78413790D01*
X160782857Y-78413790D02*
X160820952Y-78451885D01*
X160820952Y-78451885D02*
X160859047Y-78528076D01*
X160859047Y-78528076D02*
X160859047Y-78604266D01*
X160859047Y-78604266D02*
X160820952Y-78718552D01*
X160820952Y-78718552D02*
X160363809Y-79175695D01*
X160363809Y-79175695D02*
X160859047Y-79175695D01*
X161659048Y-79099504D02*
X161620952Y-79137600D01*
X161620952Y-79137600D02*
X161506667Y-79175695D01*
X161506667Y-79175695D02*
X161430476Y-79175695D01*
X161430476Y-79175695D02*
X161316190Y-79137600D01*
X161316190Y-79137600D02*
X161240000Y-79061409D01*
X161240000Y-79061409D02*
X161201905Y-78985219D01*
X161201905Y-78985219D02*
X161163809Y-78832838D01*
X161163809Y-78832838D02*
X161163809Y-78718552D01*
X161163809Y-78718552D02*
X161201905Y-78566171D01*
X161201905Y-78566171D02*
X161240000Y-78489980D01*
X161240000Y-78489980D02*
X161316190Y-78413790D01*
X161316190Y-78413790D02*
X161430476Y-78375695D01*
X161430476Y-78375695D02*
X161506667Y-78375695D01*
X161506667Y-78375695D02*
X161620952Y-78413790D01*
X161620952Y-78413790D02*
X161659048Y-78451885D01*
X164342295Y-106532830D02*
X164342295Y-106037592D01*
X164342295Y-106037592D02*
X164647057Y-106304258D01*
X164647057Y-106304258D02*
X164647057Y-106189973D01*
X164647057Y-106189973D02*
X164685152Y-106113782D01*
X164685152Y-106113782D02*
X164723247Y-106075687D01*
X164723247Y-106075687D02*
X164799438Y-106037592D01*
X164799438Y-106037592D02*
X164989914Y-106037592D01*
X164989914Y-106037592D02*
X165066104Y-106075687D01*
X165066104Y-106075687D02*
X165104200Y-106113782D01*
X165104200Y-106113782D02*
X165142295Y-106189973D01*
X165142295Y-106189973D02*
X165142295Y-106418544D01*
X165142295Y-106418544D02*
X165104200Y-106494735D01*
X165104200Y-106494735D02*
X165066104Y-106532830D01*
X164342295Y-105809020D02*
X165142295Y-105542353D01*
X165142295Y-105542353D02*
X164342295Y-105275687D01*
X164342295Y-105085211D02*
X164342295Y-104589973D01*
X164342295Y-104589973D02*
X164647057Y-104856639D01*
X164647057Y-104856639D02*
X164647057Y-104742354D01*
X164647057Y-104742354D02*
X164685152Y-104666163D01*
X164685152Y-104666163D02*
X164723247Y-104628068D01*
X164723247Y-104628068D02*
X164799438Y-104589973D01*
X164799438Y-104589973D02*
X164989914Y-104589973D01*
X164989914Y-104589973D02*
X165066104Y-104628068D01*
X165066104Y-104628068D02*
X165104200Y-104666163D01*
X165104200Y-104666163D02*
X165142295Y-104742354D01*
X165142295Y-104742354D02*
X165142295Y-104970925D01*
X165142295Y-104970925D02*
X165104200Y-105047116D01*
X165104200Y-105047116D02*
X165066104Y-105085211D01*
G36*
X167475642Y-104470261D02*
G01*
X167533582Y-104499231D01*
X167588648Y-104554296D01*
X167617295Y-104640237D01*
X167617295Y-104743544D01*
X166967295Y-104743544D01*
X166967295Y-104640237D01*
X166995942Y-104554295D01*
X167051006Y-104499231D01*
X167108945Y-104470261D01*
X167244387Y-104436401D01*
X167340203Y-104436401D01*
X167475642Y-104470261D01*
G37*
G36*
X167856184Y-106658624D02*
G01*
X166728406Y-106658624D01*
X166728406Y-106113782D01*
X166817295Y-106113782D01*
X166817295Y-106228068D01*
X166818024Y-106235473D01*
X166817884Y-106237448D01*
X166818474Y-106240045D01*
X166818736Y-106242700D01*
X166819494Y-106244531D01*
X166821144Y-106251785D01*
X166859239Y-106366071D01*
X166865233Y-106379496D01*
X166866998Y-106381531D01*
X166868030Y-106384022D01*
X166877357Y-106395387D01*
X166953547Y-106471577D01*
X166959297Y-106476297D01*
X166960596Y-106477794D01*
X166962850Y-106479213D01*
X166964912Y-106480905D01*
X166966744Y-106481663D01*
X166973039Y-106485626D01*
X167049230Y-106523721D01*
X167050299Y-106524130D01*
X167050735Y-106524453D01*
X167056886Y-106526651D01*
X167062962Y-106528976D01*
X167063500Y-106529014D01*
X167064580Y-106529400D01*
X167216962Y-106567496D01*
X167219498Y-106567871D01*
X167220520Y-106568294D01*
X167226032Y-106568836D01*
X167231506Y-106569646D01*
X167232598Y-106569483D01*
X167235152Y-106569735D01*
X167349438Y-106569735D01*
X167351991Y-106569483D01*
X167353084Y-106569646D01*
X167358558Y-106568836D01*
X167364070Y-106568294D01*
X167365090Y-106567871D01*
X167367629Y-106567496D01*
X167520010Y-106529400D01*
X167521089Y-106529014D01*
X167521628Y-106528976D01*
X167527703Y-106526651D01*
X167533855Y-106524453D01*
X167534290Y-106524130D01*
X167535360Y-106523721D01*
X167611550Y-106485626D01*
X167617846Y-106481662D01*
X167619676Y-106480905D01*
X167621734Y-106479215D01*
X167623993Y-106477794D01*
X167625292Y-106476295D01*
X167631042Y-106471577D01*
X167707233Y-106395387D01*
X167716560Y-106384022D01*
X167717591Y-106381531D01*
X167719357Y-106379496D01*
X167725351Y-106366071D01*
X167763446Y-106251785D01*
X167765095Y-106244531D01*
X167765854Y-106242700D01*
X167766115Y-106240045D01*
X167766706Y-106237448D01*
X167766565Y-106235473D01*
X167767295Y-106228068D01*
X167767295Y-106151877D01*
X167766565Y-106144471D01*
X167766706Y-106142497D01*
X167766115Y-106139899D01*
X167765854Y-106137245D01*
X167765095Y-106135413D01*
X167763446Y-106128160D01*
X167725351Y-106013875D01*
X167719357Y-106000449D01*
X167717592Y-105998414D01*
X167716561Y-105995924D01*
X167707233Y-105984559D01*
X167669137Y-105946463D01*
X167657772Y-105937136D01*
X167630736Y-105925937D01*
X167616104Y-105924496D01*
X167349438Y-105924496D01*
X167334806Y-105925937D01*
X167307770Y-105937136D01*
X167287078Y-105957828D01*
X167275879Y-105984864D01*
X167274438Y-105999496D01*
X167274438Y-106151877D01*
X167275879Y-106166509D01*
X167287078Y-106193545D01*
X167307770Y-106214237D01*
X167334806Y-106225436D01*
X167364070Y-106225436D01*
X167391106Y-106214237D01*
X167411798Y-106193545D01*
X167422997Y-106166509D01*
X167424438Y-106151877D01*
X167424438Y-106074496D01*
X167585038Y-106074496D01*
X167588648Y-106078106D01*
X167617295Y-106164047D01*
X167617295Y-106215898D01*
X167588648Y-106301839D01*
X167533582Y-106356904D01*
X167475642Y-106385874D01*
X167340203Y-106419735D01*
X167244387Y-106419735D01*
X167108945Y-106385874D01*
X167051006Y-106356904D01*
X166995942Y-106301840D01*
X166967295Y-106215898D01*
X166967295Y-106131487D01*
X166997472Y-106071133D01*
X167002727Y-106057401D01*
X167004801Y-106028211D01*
X166995547Y-106000450D01*
X166976374Y-105978342D01*
X166950199Y-105965255D01*
X166921009Y-105963181D01*
X166893248Y-105972435D01*
X166871140Y-105991608D01*
X166863308Y-106004051D01*
X166825213Y-106080241D01*
X166819958Y-106093973D01*
X166819767Y-106096660D01*
X166818736Y-106099150D01*
X166817295Y-106113782D01*
X166728406Y-106113782D01*
X166728406Y-105651400D01*
X166817478Y-105651400D01*
X166818736Y-105661296D01*
X166818736Y-105671271D01*
X166820565Y-105675686D01*
X166821168Y-105680430D01*
X166826118Y-105689094D01*
X166829935Y-105698307D01*
X166833313Y-105701685D01*
X166835687Y-105705839D01*
X166843576Y-105711948D01*
X166850627Y-105718999D01*
X166855043Y-105720828D01*
X166858824Y-105723756D01*
X166868447Y-105726380D01*
X166877663Y-105730198D01*
X166885145Y-105730934D01*
X166887056Y-105731456D01*
X166888531Y-105731268D01*
X166892295Y-105731639D01*
X167692295Y-105731639D01*
X167706927Y-105730198D01*
X167733963Y-105718999D01*
X167754655Y-105698307D01*
X167765854Y-105671271D01*
X167765854Y-105642007D01*
X167754655Y-105614971D01*
X167733963Y-105594279D01*
X167706927Y-105583080D01*
X167692295Y-105581639D01*
X167174711Y-105581639D01*
X167729505Y-105264614D01*
X167732588Y-105262425D01*
X167733963Y-105261856D01*
X167735362Y-105260456D01*
X167741495Y-105256104D01*
X167747603Y-105248215D01*
X167754655Y-105241164D01*
X167756485Y-105236745D01*
X167759412Y-105232966D01*
X167762036Y-105223344D01*
X167765854Y-105214128D01*
X167765854Y-105209347D01*
X167767112Y-105204735D01*
X167765854Y-105194838D01*
X167765854Y-105184864D01*
X167764024Y-105180448D01*
X167763422Y-105175705D01*
X167758471Y-105167040D01*
X167754655Y-105157828D01*
X167751276Y-105154449D01*
X167748903Y-105150296D01*
X167741013Y-105144186D01*
X167733963Y-105137136D01*
X167729546Y-105135306D01*
X167725766Y-105132379D01*
X167716142Y-105129754D01*
X167706927Y-105125937D01*
X167699444Y-105125200D01*
X167697534Y-105124679D01*
X167696058Y-105124866D01*
X167692295Y-105124496D01*
X166892295Y-105124496D01*
X166877663Y-105125937D01*
X166850627Y-105137136D01*
X166829935Y-105157828D01*
X166818736Y-105184864D01*
X166818736Y-105214128D01*
X166829935Y-105241164D01*
X166850627Y-105261856D01*
X166877663Y-105273055D01*
X166892295Y-105274496D01*
X167409879Y-105274496D01*
X166855085Y-105591521D01*
X166852001Y-105593709D01*
X166850627Y-105594279D01*
X166849227Y-105595678D01*
X166843095Y-105600031D01*
X166836985Y-105607920D01*
X166829935Y-105614971D01*
X166828105Y-105619387D01*
X166825178Y-105623168D01*
X166822553Y-105632791D01*
X166818736Y-105642007D01*
X166818736Y-105646787D01*
X166817478Y-105651400D01*
X166728406Y-105651400D01*
X166728406Y-104628068D01*
X166817295Y-104628068D01*
X166817295Y-104818544D01*
X166818736Y-104833176D01*
X166829935Y-104860212D01*
X166850627Y-104880904D01*
X166877663Y-104892103D01*
X166892295Y-104893544D01*
X167692295Y-104893544D01*
X167706927Y-104892103D01*
X167733963Y-104880904D01*
X167754655Y-104860212D01*
X167765854Y-104833176D01*
X167767295Y-104818544D01*
X167767295Y-104628068D01*
X167766565Y-104620662D01*
X167766706Y-104618688D01*
X167766115Y-104616090D01*
X167765854Y-104613436D01*
X167765095Y-104611604D01*
X167763446Y-104604351D01*
X167725351Y-104490065D01*
X167719357Y-104476640D01*
X167717591Y-104474604D01*
X167716560Y-104472114D01*
X167707233Y-104460749D01*
X167631042Y-104384559D01*
X167625292Y-104379840D01*
X167623993Y-104378342D01*
X167621734Y-104376920D01*
X167619676Y-104375231D01*
X167617846Y-104374473D01*
X167611550Y-104370510D01*
X167535360Y-104332415D01*
X167534290Y-104332005D01*
X167533855Y-104331683D01*
X167527703Y-104329484D01*
X167521628Y-104327160D01*
X167521089Y-104327121D01*
X167520010Y-104326736D01*
X167367629Y-104288640D01*
X167365090Y-104288264D01*
X167364070Y-104287842D01*
X167358558Y-104287299D01*
X167353084Y-104286490D01*
X167351991Y-104286652D01*
X167349438Y-104286401D01*
X167235152Y-104286401D01*
X167232598Y-104286652D01*
X167231506Y-104286490D01*
X167226032Y-104287299D01*
X167220520Y-104287842D01*
X167219498Y-104288264D01*
X167216962Y-104288640D01*
X167064580Y-104326736D01*
X167063500Y-104327121D01*
X167062962Y-104327160D01*
X167056886Y-104329484D01*
X167050735Y-104331683D01*
X167050299Y-104332005D01*
X167049230Y-104332415D01*
X166973039Y-104370510D01*
X166966744Y-104374472D01*
X166964912Y-104375231D01*
X166962850Y-104376922D01*
X166960596Y-104378342D01*
X166959297Y-104379838D01*
X166953547Y-104384559D01*
X166877357Y-104460749D01*
X166868030Y-104472114D01*
X166866998Y-104474604D01*
X166865233Y-104476640D01*
X166859239Y-104490065D01*
X166821144Y-104604351D01*
X166819494Y-104611604D01*
X166818736Y-104613436D01*
X166818474Y-104616090D01*
X166817884Y-104618688D01*
X166818024Y-104620662D01*
X166817295Y-104628068D01*
X166728406Y-104628068D01*
X166728406Y-104197512D01*
X167856184Y-104197512D01*
X167856184Y-106658624D01*
G37*
X170222295Y-106456639D02*
X169422295Y-106456639D01*
X169422295Y-105923306D02*
X169422295Y-105770925D01*
X169422295Y-105770925D02*
X169460390Y-105694735D01*
X169460390Y-105694735D02*
X169536580Y-105618544D01*
X169536580Y-105618544D02*
X169688961Y-105580449D01*
X169688961Y-105580449D02*
X169955628Y-105580449D01*
X169955628Y-105580449D02*
X170108009Y-105618544D01*
X170108009Y-105618544D02*
X170184200Y-105694735D01*
X170184200Y-105694735D02*
X170222295Y-105770925D01*
X170222295Y-105770925D02*
X170222295Y-105923306D01*
X170222295Y-105923306D02*
X170184200Y-105999497D01*
X170184200Y-105999497D02*
X170108009Y-106075687D01*
X170108009Y-106075687D02*
X169955628Y-106113783D01*
X169955628Y-106113783D02*
X169688961Y-106113783D01*
X169688961Y-106113783D02*
X169536580Y-106075687D01*
X169536580Y-106075687D02*
X169460390Y-105999497D01*
X169460390Y-105999497D02*
X169422295Y-105923306D01*
X169422295Y-104894735D02*
X169422295Y-105047116D01*
X169422295Y-105047116D02*
X169460390Y-105123307D01*
X169460390Y-105123307D02*
X169498485Y-105161402D01*
X169498485Y-105161402D02*
X169612771Y-105237592D01*
X169612771Y-105237592D02*
X169765152Y-105275688D01*
X169765152Y-105275688D02*
X170069914Y-105275688D01*
X170069914Y-105275688D02*
X170146104Y-105237592D01*
X170146104Y-105237592D02*
X170184200Y-105199497D01*
X170184200Y-105199497D02*
X170222295Y-105123307D01*
X170222295Y-105123307D02*
X170222295Y-104970926D01*
X170222295Y-104970926D02*
X170184200Y-104894735D01*
X170184200Y-104894735D02*
X170146104Y-104856640D01*
X170146104Y-104856640D02*
X170069914Y-104818545D01*
X170069914Y-104818545D02*
X169879438Y-104818545D01*
X169879438Y-104818545D02*
X169803247Y-104856640D01*
X169803247Y-104856640D02*
X169765152Y-104894735D01*
X169765152Y-104894735D02*
X169727057Y-104970926D01*
X169727057Y-104970926D02*
X169727057Y-105123307D01*
X169727057Y-105123307D02*
X169765152Y-105199497D01*
X169765152Y-105199497D02*
X169803247Y-105237592D01*
X169803247Y-105237592D02*
X169879438Y-105275688D01*
G36*
X170045642Y-98270261D02*
G01*
X170103582Y-98299231D01*
X170158648Y-98354296D01*
X170187295Y-98440237D01*
X170187295Y-98543544D01*
X169537295Y-98543544D01*
X169537295Y-98440237D01*
X169565942Y-98354295D01*
X169621006Y-98299231D01*
X169678945Y-98270261D01*
X169814387Y-98236401D01*
X169910203Y-98236401D01*
X170045642Y-98270261D01*
G37*
G36*
X170426184Y-100458624D02*
G01*
X169298406Y-100458624D01*
X169298406Y-99913782D01*
X169387295Y-99913782D01*
X169387295Y-100028068D01*
X169388024Y-100035473D01*
X169387884Y-100037448D01*
X169388474Y-100040045D01*
X169388736Y-100042700D01*
X169389494Y-100044531D01*
X169391144Y-100051785D01*
X169429239Y-100166071D01*
X169435233Y-100179496D01*
X169436998Y-100181531D01*
X169438030Y-100184022D01*
X169447357Y-100195387D01*
X169523547Y-100271577D01*
X169529297Y-100276297D01*
X169530596Y-100277794D01*
X169532850Y-100279213D01*
X169534912Y-100280905D01*
X169536744Y-100281663D01*
X169543039Y-100285626D01*
X169619230Y-100323721D01*
X169620299Y-100324130D01*
X169620735Y-100324453D01*
X169626886Y-100326651D01*
X169632962Y-100328976D01*
X169633500Y-100329014D01*
X169634580Y-100329400D01*
X169786962Y-100367496D01*
X169789498Y-100367871D01*
X169790520Y-100368294D01*
X169796032Y-100368836D01*
X169801506Y-100369646D01*
X169802598Y-100369483D01*
X169805152Y-100369735D01*
X169919438Y-100369735D01*
X169921991Y-100369483D01*
X169923084Y-100369646D01*
X169928558Y-100368836D01*
X169934070Y-100368294D01*
X169935090Y-100367871D01*
X169937629Y-100367496D01*
X170090010Y-100329400D01*
X170091089Y-100329014D01*
X170091628Y-100328976D01*
X170097703Y-100326651D01*
X170103855Y-100324453D01*
X170104290Y-100324130D01*
X170105360Y-100323721D01*
X170181550Y-100285626D01*
X170187846Y-100281662D01*
X170189676Y-100280905D01*
X170191734Y-100279215D01*
X170193993Y-100277794D01*
X170195292Y-100276295D01*
X170201042Y-100271577D01*
X170277233Y-100195387D01*
X170286560Y-100184022D01*
X170287591Y-100181531D01*
X170289357Y-100179496D01*
X170295351Y-100166071D01*
X170333446Y-100051785D01*
X170335095Y-100044531D01*
X170335854Y-100042700D01*
X170336115Y-100040045D01*
X170336706Y-100037448D01*
X170336565Y-100035473D01*
X170337295Y-100028068D01*
X170337295Y-99951877D01*
X170336565Y-99944471D01*
X170336706Y-99942497D01*
X170336115Y-99939899D01*
X170335854Y-99937245D01*
X170335095Y-99935413D01*
X170333446Y-99928160D01*
X170295351Y-99813875D01*
X170289357Y-99800449D01*
X170287592Y-99798414D01*
X170286561Y-99795924D01*
X170277233Y-99784559D01*
X170239137Y-99746463D01*
X170227772Y-99737136D01*
X170200736Y-99725937D01*
X170186104Y-99724496D01*
X169919438Y-99724496D01*
X169904806Y-99725937D01*
X169877770Y-99737136D01*
X169857078Y-99757828D01*
X169845879Y-99784864D01*
X169844438Y-99799496D01*
X169844438Y-99951877D01*
X169845879Y-99966509D01*
X169857078Y-99993545D01*
X169877770Y-100014237D01*
X169904806Y-100025436D01*
X169934070Y-100025436D01*
X169961106Y-100014237D01*
X169981798Y-99993545D01*
X169992997Y-99966509D01*
X169994438Y-99951877D01*
X169994438Y-99874496D01*
X170155038Y-99874496D01*
X170158648Y-99878106D01*
X170187295Y-99964047D01*
X170187295Y-100015898D01*
X170158648Y-100101839D01*
X170103582Y-100156904D01*
X170045642Y-100185874D01*
X169910203Y-100219735D01*
X169814387Y-100219735D01*
X169678945Y-100185874D01*
X169621006Y-100156904D01*
X169565942Y-100101840D01*
X169537295Y-100015898D01*
X169537295Y-99931487D01*
X169567472Y-99871133D01*
X169572727Y-99857401D01*
X169574801Y-99828211D01*
X169565547Y-99800450D01*
X169546374Y-99778342D01*
X169520199Y-99765255D01*
X169491009Y-99763181D01*
X169463248Y-99772435D01*
X169441140Y-99791608D01*
X169433308Y-99804051D01*
X169395213Y-99880241D01*
X169389958Y-99893973D01*
X169389767Y-99896660D01*
X169388736Y-99899150D01*
X169387295Y-99913782D01*
X169298406Y-99913782D01*
X169298406Y-99451400D01*
X169387478Y-99451400D01*
X169388736Y-99461296D01*
X169388736Y-99471271D01*
X169390565Y-99475686D01*
X169391168Y-99480430D01*
X169396118Y-99489094D01*
X169399935Y-99498307D01*
X169403313Y-99501685D01*
X169405687Y-99505839D01*
X169413576Y-99511948D01*
X169420627Y-99518999D01*
X169425043Y-99520828D01*
X169428824Y-99523756D01*
X169438447Y-99526380D01*
X169447663Y-99530198D01*
X169455145Y-99530934D01*
X169457056Y-99531456D01*
X169458531Y-99531268D01*
X169462295Y-99531639D01*
X170262295Y-99531639D01*
X170276927Y-99530198D01*
X170303963Y-99518999D01*
X170324655Y-99498307D01*
X170335854Y-99471271D01*
X170335854Y-99442007D01*
X170324655Y-99414971D01*
X170303963Y-99394279D01*
X170276927Y-99383080D01*
X170262295Y-99381639D01*
X169744711Y-99381639D01*
X170299505Y-99064614D01*
X170302588Y-99062425D01*
X170303963Y-99061856D01*
X170305362Y-99060456D01*
X170311495Y-99056104D01*
X170317603Y-99048215D01*
X170324655Y-99041164D01*
X170326485Y-99036745D01*
X170329412Y-99032966D01*
X170332036Y-99023344D01*
X170335854Y-99014128D01*
X170335854Y-99009347D01*
X170337112Y-99004735D01*
X170335854Y-98994838D01*
X170335854Y-98984864D01*
X170334024Y-98980448D01*
X170333422Y-98975705D01*
X170328471Y-98967040D01*
X170324655Y-98957828D01*
X170321276Y-98954449D01*
X170318903Y-98950296D01*
X170311013Y-98944186D01*
X170303963Y-98937136D01*
X170299546Y-98935306D01*
X170295766Y-98932379D01*
X170286142Y-98929754D01*
X170276927Y-98925937D01*
X170269444Y-98925200D01*
X170267534Y-98924679D01*
X170266058Y-98924866D01*
X170262295Y-98924496D01*
X169462295Y-98924496D01*
X169447663Y-98925937D01*
X169420627Y-98937136D01*
X169399935Y-98957828D01*
X169388736Y-98984864D01*
X169388736Y-99014128D01*
X169399935Y-99041164D01*
X169420627Y-99061856D01*
X169447663Y-99073055D01*
X169462295Y-99074496D01*
X169979879Y-99074496D01*
X169425085Y-99391521D01*
X169422001Y-99393709D01*
X169420627Y-99394279D01*
X169419227Y-99395678D01*
X169413095Y-99400031D01*
X169406985Y-99407920D01*
X169399935Y-99414971D01*
X169398105Y-99419387D01*
X169395178Y-99423168D01*
X169392553Y-99432791D01*
X169388736Y-99442007D01*
X169388736Y-99446787D01*
X169387478Y-99451400D01*
X169298406Y-99451400D01*
X169298406Y-98428068D01*
X169387295Y-98428068D01*
X169387295Y-98618544D01*
X169388736Y-98633176D01*
X169399935Y-98660212D01*
X169420627Y-98680904D01*
X169447663Y-98692103D01*
X169462295Y-98693544D01*
X170262295Y-98693544D01*
X170276927Y-98692103D01*
X170303963Y-98680904D01*
X170324655Y-98660212D01*
X170335854Y-98633176D01*
X170337295Y-98618544D01*
X170337295Y-98428068D01*
X170336565Y-98420662D01*
X170336706Y-98418688D01*
X170336115Y-98416090D01*
X170335854Y-98413436D01*
X170335095Y-98411604D01*
X170333446Y-98404351D01*
X170295351Y-98290065D01*
X170289357Y-98276640D01*
X170287591Y-98274604D01*
X170286560Y-98272114D01*
X170277233Y-98260749D01*
X170201042Y-98184559D01*
X170195292Y-98179840D01*
X170193993Y-98178342D01*
X170191734Y-98176920D01*
X170189676Y-98175231D01*
X170187846Y-98174473D01*
X170181550Y-98170510D01*
X170105360Y-98132415D01*
X170104290Y-98132005D01*
X170103855Y-98131683D01*
X170097703Y-98129484D01*
X170091628Y-98127160D01*
X170091089Y-98127121D01*
X170090010Y-98126736D01*
X169937629Y-98088640D01*
X169935090Y-98088264D01*
X169934070Y-98087842D01*
X169928558Y-98087299D01*
X169923084Y-98086490D01*
X169921991Y-98086652D01*
X169919438Y-98086401D01*
X169805152Y-98086401D01*
X169802598Y-98086652D01*
X169801506Y-98086490D01*
X169796032Y-98087299D01*
X169790520Y-98087842D01*
X169789498Y-98088264D01*
X169786962Y-98088640D01*
X169634580Y-98126736D01*
X169633500Y-98127121D01*
X169632962Y-98127160D01*
X169626886Y-98129484D01*
X169620735Y-98131683D01*
X169620299Y-98132005D01*
X169619230Y-98132415D01*
X169543039Y-98170510D01*
X169536744Y-98174472D01*
X169534912Y-98175231D01*
X169532850Y-98176922D01*
X169530596Y-98178342D01*
X169529297Y-98179838D01*
X169523547Y-98184559D01*
X169447357Y-98260749D01*
X169438030Y-98272114D01*
X169436998Y-98274604D01*
X169435233Y-98276640D01*
X169429239Y-98290065D01*
X169391144Y-98404351D01*
X169389494Y-98411604D01*
X169388736Y-98413436D01*
X169388474Y-98416090D01*
X169387884Y-98418688D01*
X169388024Y-98420662D01*
X169387295Y-98428068D01*
X169298406Y-98428068D01*
X169298406Y-97997512D01*
X170426184Y-97997512D01*
X170426184Y-100458624D01*
G37*
X172762295Y-106456639D02*
X171962295Y-106456639D01*
X171962295Y-105923306D02*
X171962295Y-105770925D01*
X171962295Y-105770925D02*
X172000390Y-105694735D01*
X172000390Y-105694735D02*
X172076580Y-105618544D01*
X172076580Y-105618544D02*
X172228961Y-105580449D01*
X172228961Y-105580449D02*
X172495628Y-105580449D01*
X172495628Y-105580449D02*
X172648009Y-105618544D01*
X172648009Y-105618544D02*
X172724200Y-105694735D01*
X172724200Y-105694735D02*
X172762295Y-105770925D01*
X172762295Y-105770925D02*
X172762295Y-105923306D01*
X172762295Y-105923306D02*
X172724200Y-105999497D01*
X172724200Y-105999497D02*
X172648009Y-106075687D01*
X172648009Y-106075687D02*
X172495628Y-106113783D01*
X172495628Y-106113783D02*
X172228961Y-106113783D01*
X172228961Y-106113783D02*
X172076580Y-106075687D01*
X172076580Y-106075687D02*
X172000390Y-105999497D01*
X172000390Y-105999497D02*
X171962295Y-105923306D01*
X171962295Y-105313783D02*
X171962295Y-104780449D01*
X171962295Y-104780449D02*
X172762295Y-105123307D01*
X175302295Y-106456639D02*
X174502295Y-106456639D01*
X174502295Y-105923306D02*
X174502295Y-105770925D01*
X174502295Y-105770925D02*
X174540390Y-105694735D01*
X174540390Y-105694735D02*
X174616580Y-105618544D01*
X174616580Y-105618544D02*
X174768961Y-105580449D01*
X174768961Y-105580449D02*
X175035628Y-105580449D01*
X175035628Y-105580449D02*
X175188009Y-105618544D01*
X175188009Y-105618544D02*
X175264200Y-105694735D01*
X175264200Y-105694735D02*
X175302295Y-105770925D01*
X175302295Y-105770925D02*
X175302295Y-105923306D01*
X175302295Y-105923306D02*
X175264200Y-105999497D01*
X175264200Y-105999497D02*
X175188009Y-106075687D01*
X175188009Y-106075687D02*
X175035628Y-106113783D01*
X175035628Y-106113783D02*
X174768961Y-106113783D01*
X174768961Y-106113783D02*
X174616580Y-106075687D01*
X174616580Y-106075687D02*
X174540390Y-105999497D01*
X174540390Y-105999497D02*
X174502295Y-105923306D01*
X175302295Y-104818545D02*
X175302295Y-105275688D01*
X175302295Y-105047116D02*
X174502295Y-105047116D01*
X174502295Y-105047116D02*
X174616580Y-105123307D01*
X174616580Y-105123307D02*
X174692771Y-105199497D01*
X174692771Y-105199497D02*
X174730866Y-105275688D01*
X174502295Y-104132830D02*
X174502295Y-104285211D01*
X174502295Y-104285211D02*
X174540390Y-104361402D01*
X174540390Y-104361402D02*
X174578485Y-104399497D01*
X174578485Y-104399497D02*
X174692771Y-104475687D01*
X174692771Y-104475687D02*
X174845152Y-104513783D01*
X174845152Y-104513783D02*
X175149914Y-104513783D01*
X175149914Y-104513783D02*
X175226104Y-104475687D01*
X175226104Y-104475687D02*
X175264200Y-104437592D01*
X175264200Y-104437592D02*
X175302295Y-104361402D01*
X175302295Y-104361402D02*
X175302295Y-104209021D01*
X175302295Y-104209021D02*
X175264200Y-104132830D01*
X175264200Y-104132830D02*
X175226104Y-104094735D01*
X175226104Y-104094735D02*
X175149914Y-104056640D01*
X175149914Y-104056640D02*
X174959438Y-104056640D01*
X174959438Y-104056640D02*
X174883247Y-104094735D01*
X174883247Y-104094735D02*
X174845152Y-104132830D01*
X174845152Y-104132830D02*
X174807057Y-104209021D01*
X174807057Y-104209021D02*
X174807057Y-104361402D01*
X174807057Y-104361402D02*
X174845152Y-104437592D01*
X174845152Y-104437592D02*
X174883247Y-104475687D01*
X174883247Y-104475687D02*
X174959438Y-104513783D01*
X177842295Y-106456639D02*
X177042295Y-106456639D01*
X177042295Y-105923306D02*
X177042295Y-105770925D01*
X177042295Y-105770925D02*
X177080390Y-105694735D01*
X177080390Y-105694735D02*
X177156580Y-105618544D01*
X177156580Y-105618544D02*
X177308961Y-105580449D01*
X177308961Y-105580449D02*
X177575628Y-105580449D01*
X177575628Y-105580449D02*
X177728009Y-105618544D01*
X177728009Y-105618544D02*
X177804200Y-105694735D01*
X177804200Y-105694735D02*
X177842295Y-105770925D01*
X177842295Y-105770925D02*
X177842295Y-105923306D01*
X177842295Y-105923306D02*
X177804200Y-105999497D01*
X177804200Y-105999497D02*
X177728009Y-106075687D01*
X177728009Y-106075687D02*
X177575628Y-106113783D01*
X177575628Y-106113783D02*
X177308961Y-106113783D01*
X177308961Y-106113783D02*
X177156580Y-106075687D01*
X177156580Y-106075687D02*
X177080390Y-105999497D01*
X177080390Y-105999497D02*
X177042295Y-105923306D01*
X177842295Y-104818545D02*
X177842295Y-105275688D01*
X177842295Y-105047116D02*
X177042295Y-105047116D01*
X177042295Y-105047116D02*
X177156580Y-105123307D01*
X177156580Y-105123307D02*
X177232771Y-105199497D01*
X177232771Y-105199497D02*
X177270866Y-105275688D01*
X177042295Y-104094735D02*
X177042295Y-104475687D01*
X177042295Y-104475687D02*
X177423247Y-104513783D01*
X177423247Y-104513783D02*
X177385152Y-104475687D01*
X177385152Y-104475687D02*
X177347057Y-104399497D01*
X177347057Y-104399497D02*
X177347057Y-104209021D01*
X177347057Y-104209021D02*
X177385152Y-104132830D01*
X177385152Y-104132830D02*
X177423247Y-104094735D01*
X177423247Y-104094735D02*
X177499438Y-104056640D01*
X177499438Y-104056640D02*
X177689914Y-104056640D01*
X177689914Y-104056640D02*
X177766104Y-104094735D01*
X177766104Y-104094735D02*
X177804200Y-104132830D01*
X177804200Y-104132830D02*
X177842295Y-104209021D01*
X177842295Y-104209021D02*
X177842295Y-104399497D01*
X177842295Y-104399497D02*
X177804200Y-104475687D01*
X177804200Y-104475687D02*
X177766104Y-104513783D01*
X180382295Y-106456639D02*
X179582295Y-106456639D01*
X179582295Y-105923306D02*
X179582295Y-105770925D01*
X179582295Y-105770925D02*
X179620390Y-105694735D01*
X179620390Y-105694735D02*
X179696580Y-105618544D01*
X179696580Y-105618544D02*
X179848961Y-105580449D01*
X179848961Y-105580449D02*
X180115628Y-105580449D01*
X180115628Y-105580449D02*
X180268009Y-105618544D01*
X180268009Y-105618544D02*
X180344200Y-105694735D01*
X180344200Y-105694735D02*
X180382295Y-105770925D01*
X180382295Y-105770925D02*
X180382295Y-105923306D01*
X180382295Y-105923306D02*
X180344200Y-105999497D01*
X180344200Y-105999497D02*
X180268009Y-106075687D01*
X180268009Y-106075687D02*
X180115628Y-106113783D01*
X180115628Y-106113783D02*
X179848961Y-106113783D01*
X179848961Y-106113783D02*
X179696580Y-106075687D01*
X179696580Y-106075687D02*
X179620390Y-105999497D01*
X179620390Y-105999497D02*
X179582295Y-105923306D01*
X180382295Y-104818545D02*
X180382295Y-105275688D01*
X180382295Y-105047116D02*
X179582295Y-105047116D01*
X179582295Y-105047116D02*
X179696580Y-105123307D01*
X179696580Y-105123307D02*
X179772771Y-105199497D01*
X179772771Y-105199497D02*
X179810866Y-105275688D01*
X179582295Y-104551878D02*
X179582295Y-104018544D01*
X179582295Y-104018544D02*
X180382295Y-104361402D01*
X182922295Y-106456639D02*
X182122295Y-106456639D01*
X182122295Y-105923306D02*
X182122295Y-105770925D01*
X182122295Y-105770925D02*
X182160390Y-105694735D01*
X182160390Y-105694735D02*
X182236580Y-105618544D01*
X182236580Y-105618544D02*
X182388961Y-105580449D01*
X182388961Y-105580449D02*
X182655628Y-105580449D01*
X182655628Y-105580449D02*
X182808009Y-105618544D01*
X182808009Y-105618544D02*
X182884200Y-105694735D01*
X182884200Y-105694735D02*
X182922295Y-105770925D01*
X182922295Y-105770925D02*
X182922295Y-105923306D01*
X182922295Y-105923306D02*
X182884200Y-105999497D01*
X182884200Y-105999497D02*
X182808009Y-106075687D01*
X182808009Y-106075687D02*
X182655628Y-106113783D01*
X182655628Y-106113783D02*
X182388961Y-106113783D01*
X182388961Y-106113783D02*
X182236580Y-106075687D01*
X182236580Y-106075687D02*
X182160390Y-105999497D01*
X182160390Y-105999497D02*
X182122295Y-105923306D01*
X182922295Y-104818545D02*
X182922295Y-105275688D01*
X182922295Y-105047116D02*
X182122295Y-105047116D01*
X182122295Y-105047116D02*
X182236580Y-105123307D01*
X182236580Y-105123307D02*
X182312771Y-105199497D01*
X182312771Y-105199497D02*
X182350866Y-105275688D01*
X182465152Y-104361402D02*
X182427057Y-104437592D01*
X182427057Y-104437592D02*
X182388961Y-104475687D01*
X182388961Y-104475687D02*
X182312771Y-104513783D01*
X182312771Y-104513783D02*
X182274676Y-104513783D01*
X182274676Y-104513783D02*
X182198485Y-104475687D01*
X182198485Y-104475687D02*
X182160390Y-104437592D01*
X182160390Y-104437592D02*
X182122295Y-104361402D01*
X182122295Y-104361402D02*
X182122295Y-104209021D01*
X182122295Y-104209021D02*
X182160390Y-104132830D01*
X182160390Y-104132830D02*
X182198485Y-104094735D01*
X182198485Y-104094735D02*
X182274676Y-104056640D01*
X182274676Y-104056640D02*
X182312771Y-104056640D01*
X182312771Y-104056640D02*
X182388961Y-104094735D01*
X182388961Y-104094735D02*
X182427057Y-104132830D01*
X182427057Y-104132830D02*
X182465152Y-104209021D01*
X182465152Y-104209021D02*
X182465152Y-104361402D01*
X182465152Y-104361402D02*
X182503247Y-104437592D01*
X182503247Y-104437592D02*
X182541342Y-104475687D01*
X182541342Y-104475687D02*
X182617533Y-104513783D01*
X182617533Y-104513783D02*
X182769914Y-104513783D01*
X182769914Y-104513783D02*
X182846104Y-104475687D01*
X182846104Y-104475687D02*
X182884200Y-104437592D01*
X182884200Y-104437592D02*
X182922295Y-104361402D01*
X182922295Y-104361402D02*
X182922295Y-104209021D01*
X182922295Y-104209021D02*
X182884200Y-104132830D01*
X182884200Y-104132830D02*
X182846104Y-104094735D01*
X182846104Y-104094735D02*
X182769914Y-104056640D01*
X182769914Y-104056640D02*
X182617533Y-104056640D01*
X182617533Y-104056640D02*
X182541342Y-104094735D01*
X182541342Y-104094735D02*
X182503247Y-104132830D01*
X182503247Y-104132830D02*
X182465152Y-104209021D01*
X185462295Y-106456639D02*
X184662295Y-106456639D01*
X184662295Y-105923306D02*
X184662295Y-105770925D01*
X184662295Y-105770925D02*
X184700390Y-105694735D01*
X184700390Y-105694735D02*
X184776580Y-105618544D01*
X184776580Y-105618544D02*
X184928961Y-105580449D01*
X184928961Y-105580449D02*
X185195628Y-105580449D01*
X185195628Y-105580449D02*
X185348009Y-105618544D01*
X185348009Y-105618544D02*
X185424200Y-105694735D01*
X185424200Y-105694735D02*
X185462295Y-105770925D01*
X185462295Y-105770925D02*
X185462295Y-105923306D01*
X185462295Y-105923306D02*
X185424200Y-105999497D01*
X185424200Y-105999497D02*
X185348009Y-106075687D01*
X185348009Y-106075687D02*
X185195628Y-106113783D01*
X185195628Y-106113783D02*
X184928961Y-106113783D01*
X184928961Y-106113783D02*
X184776580Y-106075687D01*
X184776580Y-106075687D02*
X184700390Y-105999497D01*
X184700390Y-105999497D02*
X184662295Y-105923306D01*
X185462295Y-104818545D02*
X185462295Y-105275688D01*
X185462295Y-105047116D02*
X184662295Y-105047116D01*
X184662295Y-105047116D02*
X184776580Y-105123307D01*
X184776580Y-105123307D02*
X184852771Y-105199497D01*
X184852771Y-105199497D02*
X184890866Y-105275688D01*
X184662295Y-104323306D02*
X184662295Y-104247116D01*
X184662295Y-104247116D02*
X184700390Y-104170925D01*
X184700390Y-104170925D02*
X184738485Y-104132830D01*
X184738485Y-104132830D02*
X184814676Y-104094735D01*
X184814676Y-104094735D02*
X184967057Y-104056640D01*
X184967057Y-104056640D02*
X185157533Y-104056640D01*
X185157533Y-104056640D02*
X185309914Y-104094735D01*
X185309914Y-104094735D02*
X185386104Y-104132830D01*
X185386104Y-104132830D02*
X185424200Y-104170925D01*
X185424200Y-104170925D02*
X185462295Y-104247116D01*
X185462295Y-104247116D02*
X185462295Y-104323306D01*
X185462295Y-104323306D02*
X185424200Y-104399497D01*
X185424200Y-104399497D02*
X185386104Y-104437592D01*
X185386104Y-104437592D02*
X185309914Y-104475687D01*
X185309914Y-104475687D02*
X185157533Y-104513783D01*
X185157533Y-104513783D02*
X184967057Y-104513783D01*
X184967057Y-104513783D02*
X184814676Y-104475687D01*
X184814676Y-104475687D02*
X184738485Y-104437592D01*
X184738485Y-104437592D02*
X184700390Y-104399497D01*
X184700390Y-104399497D02*
X184662295Y-104323306D01*
X188002295Y-106456639D02*
X187202295Y-106456639D01*
X187202295Y-105923306D02*
X187202295Y-105770925D01*
X187202295Y-105770925D02*
X187240390Y-105694735D01*
X187240390Y-105694735D02*
X187316580Y-105618544D01*
X187316580Y-105618544D02*
X187468961Y-105580449D01*
X187468961Y-105580449D02*
X187735628Y-105580449D01*
X187735628Y-105580449D02*
X187888009Y-105618544D01*
X187888009Y-105618544D02*
X187964200Y-105694735D01*
X187964200Y-105694735D02*
X188002295Y-105770925D01*
X188002295Y-105770925D02*
X188002295Y-105923306D01*
X188002295Y-105923306D02*
X187964200Y-105999497D01*
X187964200Y-105999497D02*
X187888009Y-106075687D01*
X187888009Y-106075687D02*
X187735628Y-106113783D01*
X187735628Y-106113783D02*
X187468961Y-106113783D01*
X187468961Y-106113783D02*
X187316580Y-106075687D01*
X187316580Y-106075687D02*
X187240390Y-105999497D01*
X187240390Y-105999497D02*
X187202295Y-105923306D01*
X188002295Y-104818545D02*
X188002295Y-105275688D01*
X188002295Y-105047116D02*
X187202295Y-105047116D01*
X187202295Y-105047116D02*
X187316580Y-105123307D01*
X187316580Y-105123307D02*
X187392771Y-105199497D01*
X187392771Y-105199497D02*
X187430866Y-105275688D01*
X188002295Y-104056640D02*
X188002295Y-104513783D01*
X188002295Y-104285211D02*
X187202295Y-104285211D01*
X187202295Y-104285211D02*
X187316580Y-104361402D01*
X187316580Y-104361402D02*
X187392771Y-104437592D01*
X187392771Y-104437592D02*
X187430866Y-104513783D01*
G36*
X187795642Y-98270261D02*
G01*
X187853582Y-98299231D01*
X187908648Y-98354296D01*
X187937295Y-98440237D01*
X187937295Y-98543544D01*
X187287295Y-98543544D01*
X187287295Y-98440237D01*
X187315942Y-98354295D01*
X187371006Y-98299231D01*
X187428945Y-98270261D01*
X187564387Y-98236401D01*
X187660203Y-98236401D01*
X187795642Y-98270261D01*
G37*
G36*
X188176184Y-100458624D02*
G01*
X187048406Y-100458624D01*
X187048406Y-99913782D01*
X187137295Y-99913782D01*
X187137295Y-100028068D01*
X187138024Y-100035473D01*
X187137884Y-100037448D01*
X187138474Y-100040045D01*
X187138736Y-100042700D01*
X187139494Y-100044531D01*
X187141144Y-100051785D01*
X187179239Y-100166071D01*
X187185233Y-100179496D01*
X187186998Y-100181531D01*
X187188030Y-100184022D01*
X187197357Y-100195387D01*
X187273547Y-100271577D01*
X187279297Y-100276297D01*
X187280596Y-100277794D01*
X187282850Y-100279213D01*
X187284912Y-100280905D01*
X187286744Y-100281663D01*
X187293039Y-100285626D01*
X187369230Y-100323721D01*
X187370299Y-100324130D01*
X187370735Y-100324453D01*
X187376886Y-100326651D01*
X187382962Y-100328976D01*
X187383500Y-100329014D01*
X187384580Y-100329400D01*
X187536962Y-100367496D01*
X187539498Y-100367871D01*
X187540520Y-100368294D01*
X187546032Y-100368836D01*
X187551506Y-100369646D01*
X187552598Y-100369483D01*
X187555152Y-100369735D01*
X187669438Y-100369735D01*
X187671991Y-100369483D01*
X187673084Y-100369646D01*
X187678558Y-100368836D01*
X187684070Y-100368294D01*
X187685090Y-100367871D01*
X187687629Y-100367496D01*
X187840010Y-100329400D01*
X187841089Y-100329014D01*
X187841628Y-100328976D01*
X187847703Y-100326651D01*
X187853855Y-100324453D01*
X187854290Y-100324130D01*
X187855360Y-100323721D01*
X187931550Y-100285626D01*
X187937846Y-100281662D01*
X187939676Y-100280905D01*
X187941734Y-100279215D01*
X187943993Y-100277794D01*
X187945292Y-100276295D01*
X187951042Y-100271577D01*
X188027233Y-100195387D01*
X188036560Y-100184022D01*
X188037591Y-100181531D01*
X188039357Y-100179496D01*
X188045351Y-100166071D01*
X188083446Y-100051785D01*
X188085095Y-100044531D01*
X188085854Y-100042700D01*
X188086115Y-100040045D01*
X188086706Y-100037448D01*
X188086565Y-100035473D01*
X188087295Y-100028068D01*
X188087295Y-99951877D01*
X188086565Y-99944471D01*
X188086706Y-99942497D01*
X188086115Y-99939899D01*
X188085854Y-99937245D01*
X188085095Y-99935413D01*
X188083446Y-99928160D01*
X188045351Y-99813875D01*
X188039357Y-99800449D01*
X188037592Y-99798414D01*
X188036561Y-99795924D01*
X188027233Y-99784559D01*
X187989137Y-99746463D01*
X187977772Y-99737136D01*
X187950736Y-99725937D01*
X187936104Y-99724496D01*
X187669438Y-99724496D01*
X187654806Y-99725937D01*
X187627770Y-99737136D01*
X187607078Y-99757828D01*
X187595879Y-99784864D01*
X187594438Y-99799496D01*
X187594438Y-99951877D01*
X187595879Y-99966509D01*
X187607078Y-99993545D01*
X187627770Y-100014237D01*
X187654806Y-100025436D01*
X187684070Y-100025436D01*
X187711106Y-100014237D01*
X187731798Y-99993545D01*
X187742997Y-99966509D01*
X187744438Y-99951877D01*
X187744438Y-99874496D01*
X187905038Y-99874496D01*
X187908648Y-99878106D01*
X187937295Y-99964047D01*
X187937295Y-100015898D01*
X187908648Y-100101839D01*
X187853582Y-100156904D01*
X187795642Y-100185874D01*
X187660203Y-100219735D01*
X187564387Y-100219735D01*
X187428945Y-100185874D01*
X187371006Y-100156904D01*
X187315942Y-100101840D01*
X187287295Y-100015898D01*
X187287295Y-99931487D01*
X187317472Y-99871133D01*
X187322727Y-99857401D01*
X187324801Y-99828211D01*
X187315547Y-99800450D01*
X187296374Y-99778342D01*
X187270199Y-99765255D01*
X187241009Y-99763181D01*
X187213248Y-99772435D01*
X187191140Y-99791608D01*
X187183308Y-99804051D01*
X187145213Y-99880241D01*
X187139958Y-99893973D01*
X187139767Y-99896660D01*
X187138736Y-99899150D01*
X187137295Y-99913782D01*
X187048406Y-99913782D01*
X187048406Y-99451400D01*
X187137478Y-99451400D01*
X187138736Y-99461296D01*
X187138736Y-99471271D01*
X187140565Y-99475686D01*
X187141168Y-99480430D01*
X187146118Y-99489094D01*
X187149935Y-99498307D01*
X187153313Y-99501685D01*
X187155687Y-99505839D01*
X187163576Y-99511948D01*
X187170627Y-99518999D01*
X187175043Y-99520828D01*
X187178824Y-99523756D01*
X187188447Y-99526380D01*
X187197663Y-99530198D01*
X187205145Y-99530934D01*
X187207056Y-99531456D01*
X187208531Y-99531268D01*
X187212295Y-99531639D01*
X188012295Y-99531639D01*
X188026927Y-99530198D01*
X188053963Y-99518999D01*
X188074655Y-99498307D01*
X188085854Y-99471271D01*
X188085854Y-99442007D01*
X188074655Y-99414971D01*
X188053963Y-99394279D01*
X188026927Y-99383080D01*
X188012295Y-99381639D01*
X187494711Y-99381639D01*
X188049505Y-99064614D01*
X188052588Y-99062425D01*
X188053963Y-99061856D01*
X188055362Y-99060456D01*
X188061495Y-99056104D01*
X188067603Y-99048215D01*
X188074655Y-99041164D01*
X188076485Y-99036745D01*
X188079412Y-99032966D01*
X188082036Y-99023344D01*
X188085854Y-99014128D01*
X188085854Y-99009347D01*
X188087112Y-99004735D01*
X188085854Y-98994838D01*
X188085854Y-98984864D01*
X188084024Y-98980448D01*
X188083422Y-98975705D01*
X188078471Y-98967040D01*
X188074655Y-98957828D01*
X188071276Y-98954449D01*
X188068903Y-98950296D01*
X188061013Y-98944186D01*
X188053963Y-98937136D01*
X188049546Y-98935306D01*
X188045766Y-98932379D01*
X188036142Y-98929754D01*
X188026927Y-98925937D01*
X188019444Y-98925200D01*
X188017534Y-98924679D01*
X188016058Y-98924866D01*
X188012295Y-98924496D01*
X187212295Y-98924496D01*
X187197663Y-98925937D01*
X187170627Y-98937136D01*
X187149935Y-98957828D01*
X187138736Y-98984864D01*
X187138736Y-99014128D01*
X187149935Y-99041164D01*
X187170627Y-99061856D01*
X187197663Y-99073055D01*
X187212295Y-99074496D01*
X187729879Y-99074496D01*
X187175085Y-99391521D01*
X187172001Y-99393709D01*
X187170627Y-99394279D01*
X187169227Y-99395678D01*
X187163095Y-99400031D01*
X187156985Y-99407920D01*
X187149935Y-99414971D01*
X187148105Y-99419387D01*
X187145178Y-99423168D01*
X187142553Y-99432791D01*
X187138736Y-99442007D01*
X187138736Y-99446787D01*
X187137478Y-99451400D01*
X187048406Y-99451400D01*
X187048406Y-98428068D01*
X187137295Y-98428068D01*
X187137295Y-98618544D01*
X187138736Y-98633176D01*
X187149935Y-98660212D01*
X187170627Y-98680904D01*
X187197663Y-98692103D01*
X187212295Y-98693544D01*
X188012295Y-98693544D01*
X188026927Y-98692103D01*
X188053963Y-98680904D01*
X188074655Y-98660212D01*
X188085854Y-98633176D01*
X188087295Y-98618544D01*
X188087295Y-98428068D01*
X188086565Y-98420662D01*
X188086706Y-98418688D01*
X188086115Y-98416090D01*
X188085854Y-98413436D01*
X188085095Y-98411604D01*
X188083446Y-98404351D01*
X188045351Y-98290065D01*
X188039357Y-98276640D01*
X188037591Y-98274604D01*
X188036560Y-98272114D01*
X188027233Y-98260749D01*
X187951042Y-98184559D01*
X187945292Y-98179840D01*
X187943993Y-98178342D01*
X187941734Y-98176920D01*
X187939676Y-98175231D01*
X187937846Y-98174473D01*
X187931550Y-98170510D01*
X187855360Y-98132415D01*
X187854290Y-98132005D01*
X187853855Y-98131683D01*
X187847703Y-98129484D01*
X187841628Y-98127160D01*
X187841089Y-98127121D01*
X187840010Y-98126736D01*
X187687629Y-98088640D01*
X187685090Y-98088264D01*
X187684070Y-98087842D01*
X187678558Y-98087299D01*
X187673084Y-98086490D01*
X187671991Y-98086652D01*
X187669438Y-98086401D01*
X187555152Y-98086401D01*
X187552598Y-98086652D01*
X187551506Y-98086490D01*
X187546032Y-98087299D01*
X187540520Y-98087842D01*
X187539498Y-98088264D01*
X187536962Y-98088640D01*
X187384580Y-98126736D01*
X187383500Y-98127121D01*
X187382962Y-98127160D01*
X187376886Y-98129484D01*
X187370735Y-98131683D01*
X187370299Y-98132005D01*
X187369230Y-98132415D01*
X187293039Y-98170510D01*
X187286744Y-98174472D01*
X187284912Y-98175231D01*
X187282850Y-98176922D01*
X187280596Y-98178342D01*
X187279297Y-98179838D01*
X187273547Y-98184559D01*
X187197357Y-98260749D01*
X187188030Y-98272114D01*
X187186998Y-98274604D01*
X187185233Y-98276640D01*
X187179239Y-98290065D01*
X187141144Y-98404351D01*
X187139494Y-98411604D01*
X187138736Y-98413436D01*
X187138474Y-98416090D01*
X187137884Y-98418688D01*
X187138024Y-98420662D01*
X187137295Y-98428068D01*
X187048406Y-98428068D01*
X187048406Y-97997512D01*
X188176184Y-97997512D01*
X188176184Y-100458624D01*
G37*
G36*
X190325642Y-104470261D02*
G01*
X190383582Y-104499231D01*
X190438648Y-104554296D01*
X190467295Y-104640237D01*
X190467295Y-104743544D01*
X189817295Y-104743544D01*
X189817295Y-104640237D01*
X189845942Y-104554295D01*
X189901006Y-104499231D01*
X189958945Y-104470261D01*
X190094387Y-104436401D01*
X190190203Y-104436401D01*
X190325642Y-104470261D01*
G37*
G36*
X190706184Y-106658624D02*
G01*
X189578406Y-106658624D01*
X189578406Y-106113782D01*
X189667295Y-106113782D01*
X189667295Y-106228068D01*
X189668024Y-106235473D01*
X189667884Y-106237448D01*
X189668474Y-106240045D01*
X189668736Y-106242700D01*
X189669494Y-106244531D01*
X189671144Y-106251785D01*
X189709239Y-106366071D01*
X189715233Y-106379496D01*
X189716998Y-106381531D01*
X189718030Y-106384022D01*
X189727357Y-106395387D01*
X189803547Y-106471577D01*
X189809297Y-106476297D01*
X189810596Y-106477794D01*
X189812850Y-106479213D01*
X189814912Y-106480905D01*
X189816744Y-106481663D01*
X189823039Y-106485626D01*
X189899230Y-106523721D01*
X189900299Y-106524130D01*
X189900735Y-106524453D01*
X189906886Y-106526651D01*
X189912962Y-106528976D01*
X189913500Y-106529014D01*
X189914580Y-106529400D01*
X190066962Y-106567496D01*
X190069498Y-106567871D01*
X190070520Y-106568294D01*
X190076032Y-106568836D01*
X190081506Y-106569646D01*
X190082598Y-106569483D01*
X190085152Y-106569735D01*
X190199438Y-106569735D01*
X190201991Y-106569483D01*
X190203084Y-106569646D01*
X190208558Y-106568836D01*
X190214070Y-106568294D01*
X190215090Y-106567871D01*
X190217629Y-106567496D01*
X190370010Y-106529400D01*
X190371089Y-106529014D01*
X190371628Y-106528976D01*
X190377703Y-106526651D01*
X190383855Y-106524453D01*
X190384290Y-106524130D01*
X190385360Y-106523721D01*
X190461550Y-106485626D01*
X190467846Y-106481662D01*
X190469676Y-106480905D01*
X190471734Y-106479215D01*
X190473993Y-106477794D01*
X190475292Y-106476295D01*
X190481042Y-106471577D01*
X190557233Y-106395387D01*
X190566560Y-106384022D01*
X190567591Y-106381531D01*
X190569357Y-106379496D01*
X190575351Y-106366071D01*
X190613446Y-106251785D01*
X190615095Y-106244531D01*
X190615854Y-106242700D01*
X190616115Y-106240045D01*
X190616706Y-106237448D01*
X190616565Y-106235473D01*
X190617295Y-106228068D01*
X190617295Y-106151877D01*
X190616565Y-106144471D01*
X190616706Y-106142497D01*
X190616115Y-106139899D01*
X190615854Y-106137245D01*
X190615095Y-106135413D01*
X190613446Y-106128160D01*
X190575351Y-106013875D01*
X190569357Y-106000449D01*
X190567592Y-105998414D01*
X190566561Y-105995924D01*
X190557233Y-105984559D01*
X190519137Y-105946463D01*
X190507772Y-105937136D01*
X190480736Y-105925937D01*
X190466104Y-105924496D01*
X190199438Y-105924496D01*
X190184806Y-105925937D01*
X190157770Y-105937136D01*
X190137078Y-105957828D01*
X190125879Y-105984864D01*
X190124438Y-105999496D01*
X190124438Y-106151877D01*
X190125879Y-106166509D01*
X190137078Y-106193545D01*
X190157770Y-106214237D01*
X190184806Y-106225436D01*
X190214070Y-106225436D01*
X190241106Y-106214237D01*
X190261798Y-106193545D01*
X190272997Y-106166509D01*
X190274438Y-106151877D01*
X190274438Y-106074496D01*
X190435038Y-106074496D01*
X190438648Y-106078106D01*
X190467295Y-106164047D01*
X190467295Y-106215898D01*
X190438648Y-106301839D01*
X190383582Y-106356904D01*
X190325642Y-106385874D01*
X190190203Y-106419735D01*
X190094387Y-106419735D01*
X189958945Y-106385874D01*
X189901006Y-106356904D01*
X189845942Y-106301840D01*
X189817295Y-106215898D01*
X189817295Y-106131487D01*
X189847472Y-106071133D01*
X189852727Y-106057401D01*
X189854801Y-106028211D01*
X189845547Y-106000450D01*
X189826374Y-105978342D01*
X189800199Y-105965255D01*
X189771009Y-105963181D01*
X189743248Y-105972435D01*
X189721140Y-105991608D01*
X189713308Y-106004051D01*
X189675213Y-106080241D01*
X189669958Y-106093973D01*
X189669767Y-106096660D01*
X189668736Y-106099150D01*
X189667295Y-106113782D01*
X189578406Y-106113782D01*
X189578406Y-105651400D01*
X189667478Y-105651400D01*
X189668736Y-105661296D01*
X189668736Y-105671271D01*
X189670565Y-105675686D01*
X189671168Y-105680430D01*
X189676118Y-105689094D01*
X189679935Y-105698307D01*
X189683313Y-105701685D01*
X189685687Y-105705839D01*
X189693576Y-105711948D01*
X189700627Y-105718999D01*
X189705043Y-105720828D01*
X189708824Y-105723756D01*
X189718447Y-105726380D01*
X189727663Y-105730198D01*
X189735145Y-105730934D01*
X189737056Y-105731456D01*
X189738531Y-105731268D01*
X189742295Y-105731639D01*
X190542295Y-105731639D01*
X190556927Y-105730198D01*
X190583963Y-105718999D01*
X190604655Y-105698307D01*
X190615854Y-105671271D01*
X190615854Y-105642007D01*
X190604655Y-105614971D01*
X190583963Y-105594279D01*
X190556927Y-105583080D01*
X190542295Y-105581639D01*
X190024711Y-105581639D01*
X190579505Y-105264614D01*
X190582588Y-105262425D01*
X190583963Y-105261856D01*
X190585362Y-105260456D01*
X190591495Y-105256104D01*
X190597603Y-105248215D01*
X190604655Y-105241164D01*
X190606485Y-105236745D01*
X190609412Y-105232966D01*
X190612036Y-105223344D01*
X190615854Y-105214128D01*
X190615854Y-105209347D01*
X190617112Y-105204735D01*
X190615854Y-105194838D01*
X190615854Y-105184864D01*
X190614024Y-105180448D01*
X190613422Y-105175705D01*
X190608471Y-105167040D01*
X190604655Y-105157828D01*
X190601276Y-105154449D01*
X190598903Y-105150296D01*
X190591013Y-105144186D01*
X190583963Y-105137136D01*
X190579546Y-105135306D01*
X190575766Y-105132379D01*
X190566142Y-105129754D01*
X190556927Y-105125937D01*
X190549444Y-105125200D01*
X190547534Y-105124679D01*
X190546058Y-105124866D01*
X190542295Y-105124496D01*
X189742295Y-105124496D01*
X189727663Y-105125937D01*
X189700627Y-105137136D01*
X189679935Y-105157828D01*
X189668736Y-105184864D01*
X189668736Y-105214128D01*
X189679935Y-105241164D01*
X189700627Y-105261856D01*
X189727663Y-105273055D01*
X189742295Y-105274496D01*
X190259879Y-105274496D01*
X189705085Y-105591521D01*
X189702001Y-105593709D01*
X189700627Y-105594279D01*
X189699227Y-105595678D01*
X189693095Y-105600031D01*
X189686985Y-105607920D01*
X189679935Y-105614971D01*
X189678105Y-105619387D01*
X189675178Y-105623168D01*
X189672553Y-105632791D01*
X189668736Y-105642007D01*
X189668736Y-105646787D01*
X189667478Y-105651400D01*
X189578406Y-105651400D01*
X189578406Y-104628068D01*
X189667295Y-104628068D01*
X189667295Y-104818544D01*
X189668736Y-104833176D01*
X189679935Y-104860212D01*
X189700627Y-104880904D01*
X189727663Y-104892103D01*
X189742295Y-104893544D01*
X190542295Y-104893544D01*
X190556927Y-104892103D01*
X190583963Y-104880904D01*
X190604655Y-104860212D01*
X190615854Y-104833176D01*
X190617295Y-104818544D01*
X190617295Y-104628068D01*
X190616565Y-104620662D01*
X190616706Y-104618688D01*
X190616115Y-104616090D01*
X190615854Y-104613436D01*
X190615095Y-104611604D01*
X190613446Y-104604351D01*
X190575351Y-104490065D01*
X190569357Y-104476640D01*
X190567591Y-104474604D01*
X190566560Y-104472114D01*
X190557233Y-104460749D01*
X190481042Y-104384559D01*
X190475292Y-104379840D01*
X190473993Y-104378342D01*
X190471734Y-104376920D01*
X190469676Y-104375231D01*
X190467846Y-104374473D01*
X190461550Y-104370510D01*
X190385360Y-104332415D01*
X190384290Y-104332005D01*
X190383855Y-104331683D01*
X190377703Y-104329484D01*
X190371628Y-104327160D01*
X190371089Y-104327121D01*
X190370010Y-104326736D01*
X190217629Y-104288640D01*
X190215090Y-104288264D01*
X190214070Y-104287842D01*
X190208558Y-104287299D01*
X190203084Y-104286490D01*
X190201991Y-104286652D01*
X190199438Y-104286401D01*
X190085152Y-104286401D01*
X190082598Y-104286652D01*
X190081506Y-104286490D01*
X190076032Y-104287299D01*
X190070520Y-104287842D01*
X190069498Y-104288264D01*
X190066962Y-104288640D01*
X189914580Y-104326736D01*
X189913500Y-104327121D01*
X189912962Y-104327160D01*
X189906886Y-104329484D01*
X189900735Y-104331683D01*
X189900299Y-104332005D01*
X189899230Y-104332415D01*
X189823039Y-104370510D01*
X189816744Y-104374472D01*
X189814912Y-104375231D01*
X189812850Y-104376922D01*
X189810596Y-104378342D01*
X189809297Y-104379838D01*
X189803547Y-104384559D01*
X189727357Y-104460749D01*
X189718030Y-104472114D01*
X189716998Y-104474604D01*
X189715233Y-104476640D01*
X189709239Y-104490065D01*
X189671144Y-104604351D01*
X189669494Y-104611604D01*
X189668736Y-104613436D01*
X189668474Y-104616090D01*
X189667884Y-104618688D01*
X189668024Y-104620662D01*
X189667295Y-104628068D01*
X189578406Y-104628068D01*
X189578406Y-104197512D01*
X190706184Y-104197512D01*
X190706184Y-106658624D01*
G37*
X193082295Y-106456639D02*
X192282295Y-106456639D01*
X192282295Y-105923306D02*
X192282295Y-105770925D01*
X192282295Y-105770925D02*
X192320390Y-105694735D01*
X192320390Y-105694735D02*
X192396580Y-105618544D01*
X192396580Y-105618544D02*
X192548961Y-105580449D01*
X192548961Y-105580449D02*
X192815628Y-105580449D01*
X192815628Y-105580449D02*
X192968009Y-105618544D01*
X192968009Y-105618544D02*
X193044200Y-105694735D01*
X193044200Y-105694735D02*
X193082295Y-105770925D01*
X193082295Y-105770925D02*
X193082295Y-105923306D01*
X193082295Y-105923306D02*
X193044200Y-105999497D01*
X193044200Y-105999497D02*
X192968009Y-106075687D01*
X192968009Y-106075687D02*
X192815628Y-106113783D01*
X192815628Y-106113783D02*
X192548961Y-106113783D01*
X192548961Y-106113783D02*
X192396580Y-106075687D01*
X192396580Y-106075687D02*
X192320390Y-105999497D01*
X192320390Y-105999497D02*
X192282295Y-105923306D01*
X193082295Y-104818545D02*
X193082295Y-105275688D01*
X193082295Y-105047116D02*
X192282295Y-105047116D01*
X192282295Y-105047116D02*
X192396580Y-105123307D01*
X192396580Y-105123307D02*
X192472771Y-105199497D01*
X192472771Y-105199497D02*
X192510866Y-105275688D01*
X192282295Y-104551878D02*
X192282295Y-104056640D01*
X192282295Y-104056640D02*
X192587057Y-104323306D01*
X192587057Y-104323306D02*
X192587057Y-104209021D01*
X192587057Y-104209021D02*
X192625152Y-104132830D01*
X192625152Y-104132830D02*
X192663247Y-104094735D01*
X192663247Y-104094735D02*
X192739438Y-104056640D01*
X192739438Y-104056640D02*
X192929914Y-104056640D01*
X192929914Y-104056640D02*
X193006104Y-104094735D01*
X193006104Y-104094735D02*
X193044200Y-104132830D01*
X193044200Y-104132830D02*
X193082295Y-104209021D01*
X193082295Y-104209021D02*
X193082295Y-104437592D01*
X193082295Y-104437592D02*
X193044200Y-104513783D01*
X193044200Y-104513783D02*
X193006104Y-104551878D01*
X195622295Y-106456639D02*
X194822295Y-106456639D01*
X194822295Y-105923306D02*
X194822295Y-105770925D01*
X194822295Y-105770925D02*
X194860390Y-105694735D01*
X194860390Y-105694735D02*
X194936580Y-105618544D01*
X194936580Y-105618544D02*
X195088961Y-105580449D01*
X195088961Y-105580449D02*
X195355628Y-105580449D01*
X195355628Y-105580449D02*
X195508009Y-105618544D01*
X195508009Y-105618544D02*
X195584200Y-105694735D01*
X195584200Y-105694735D02*
X195622295Y-105770925D01*
X195622295Y-105770925D02*
X195622295Y-105923306D01*
X195622295Y-105923306D02*
X195584200Y-105999497D01*
X195584200Y-105999497D02*
X195508009Y-106075687D01*
X195508009Y-106075687D02*
X195355628Y-106113783D01*
X195355628Y-106113783D02*
X195088961Y-106113783D01*
X195088961Y-106113783D02*
X194936580Y-106075687D01*
X194936580Y-106075687D02*
X194860390Y-105999497D01*
X194860390Y-105999497D02*
X194822295Y-105923306D01*
X195622295Y-104818545D02*
X195622295Y-105275688D01*
X195622295Y-105047116D02*
X194822295Y-105047116D01*
X194822295Y-105047116D02*
X194936580Y-105123307D01*
X194936580Y-105123307D02*
X195012771Y-105199497D01*
X195012771Y-105199497D02*
X195050866Y-105275688D01*
X194898485Y-104513783D02*
X194860390Y-104475687D01*
X194860390Y-104475687D02*
X194822295Y-104399497D01*
X194822295Y-104399497D02*
X194822295Y-104209021D01*
X194822295Y-104209021D02*
X194860390Y-104132830D01*
X194860390Y-104132830D02*
X194898485Y-104094735D01*
X194898485Y-104094735D02*
X194974676Y-104056640D01*
X194974676Y-104056640D02*
X195050866Y-104056640D01*
X195050866Y-104056640D02*
X195165152Y-104094735D01*
X195165152Y-104094735D02*
X195622295Y-104551878D01*
X195622295Y-104551878D02*
X195622295Y-104056640D01*
X198162295Y-106456639D02*
X197362295Y-106456639D01*
X197362295Y-105923306D02*
X197362295Y-105770925D01*
X197362295Y-105770925D02*
X197400390Y-105694735D01*
X197400390Y-105694735D02*
X197476580Y-105618544D01*
X197476580Y-105618544D02*
X197628961Y-105580449D01*
X197628961Y-105580449D02*
X197895628Y-105580449D01*
X197895628Y-105580449D02*
X198048009Y-105618544D01*
X198048009Y-105618544D02*
X198124200Y-105694735D01*
X198124200Y-105694735D02*
X198162295Y-105770925D01*
X198162295Y-105770925D02*
X198162295Y-105923306D01*
X198162295Y-105923306D02*
X198124200Y-105999497D01*
X198124200Y-105999497D02*
X198048009Y-106075687D01*
X198048009Y-106075687D02*
X197895628Y-106113783D01*
X197895628Y-106113783D02*
X197628961Y-106113783D01*
X197628961Y-106113783D02*
X197476580Y-106075687D01*
X197476580Y-106075687D02*
X197400390Y-105999497D01*
X197400390Y-105999497D02*
X197362295Y-105923306D01*
X198162295Y-104818545D02*
X198162295Y-105275688D01*
X198162295Y-105047116D02*
X197362295Y-105047116D01*
X197362295Y-105047116D02*
X197476580Y-105123307D01*
X197476580Y-105123307D02*
X197552771Y-105199497D01*
X197552771Y-105199497D02*
X197590866Y-105275688D01*
X197628961Y-104132830D02*
X198162295Y-104132830D01*
X197324200Y-104323306D02*
X197895628Y-104513783D01*
X197895628Y-104513783D02*
X197895628Y-104018544D01*
X200702295Y-106456639D02*
X199902295Y-106456639D01*
X199902295Y-105923306D02*
X199902295Y-105770925D01*
X199902295Y-105770925D02*
X199940390Y-105694735D01*
X199940390Y-105694735D02*
X200016580Y-105618544D01*
X200016580Y-105618544D02*
X200168961Y-105580449D01*
X200168961Y-105580449D02*
X200435628Y-105580449D01*
X200435628Y-105580449D02*
X200588009Y-105618544D01*
X200588009Y-105618544D02*
X200664200Y-105694735D01*
X200664200Y-105694735D02*
X200702295Y-105770925D01*
X200702295Y-105770925D02*
X200702295Y-105923306D01*
X200702295Y-105923306D02*
X200664200Y-105999497D01*
X200664200Y-105999497D02*
X200588009Y-106075687D01*
X200588009Y-106075687D02*
X200435628Y-106113783D01*
X200435628Y-106113783D02*
X200168961Y-106113783D01*
X200168961Y-106113783D02*
X200016580Y-106075687D01*
X200016580Y-106075687D02*
X199940390Y-105999497D01*
X199940390Y-105999497D02*
X199902295Y-105923306D01*
X199978485Y-105275688D02*
X199940390Y-105237592D01*
X199940390Y-105237592D02*
X199902295Y-105161402D01*
X199902295Y-105161402D02*
X199902295Y-104970926D01*
X199902295Y-104970926D02*
X199940390Y-104894735D01*
X199940390Y-104894735D02*
X199978485Y-104856640D01*
X199978485Y-104856640D02*
X200054676Y-104818545D01*
X200054676Y-104818545D02*
X200130866Y-104818545D01*
X200130866Y-104818545D02*
X200245152Y-104856640D01*
X200245152Y-104856640D02*
X200702295Y-105313783D01*
X200702295Y-105313783D02*
X200702295Y-104818545D01*
X200702295Y-104056640D02*
X200702295Y-104513783D01*
X200702295Y-104285211D02*
X199902295Y-104285211D01*
X199902295Y-104285211D02*
X200016580Y-104361402D01*
X200016580Y-104361402D02*
X200092771Y-104437592D01*
X200092771Y-104437592D02*
X200130866Y-104513783D01*
X203242295Y-106456639D02*
X202442295Y-106456639D01*
X202442295Y-105923306D02*
X202442295Y-105770925D01*
X202442295Y-105770925D02*
X202480390Y-105694735D01*
X202480390Y-105694735D02*
X202556580Y-105618544D01*
X202556580Y-105618544D02*
X202708961Y-105580449D01*
X202708961Y-105580449D02*
X202975628Y-105580449D01*
X202975628Y-105580449D02*
X203128009Y-105618544D01*
X203128009Y-105618544D02*
X203204200Y-105694735D01*
X203204200Y-105694735D02*
X203242295Y-105770925D01*
X203242295Y-105770925D02*
X203242295Y-105923306D01*
X203242295Y-105923306D02*
X203204200Y-105999497D01*
X203204200Y-105999497D02*
X203128009Y-106075687D01*
X203128009Y-106075687D02*
X202975628Y-106113783D01*
X202975628Y-106113783D02*
X202708961Y-106113783D01*
X202708961Y-106113783D02*
X202556580Y-106075687D01*
X202556580Y-106075687D02*
X202480390Y-105999497D01*
X202480390Y-105999497D02*
X202442295Y-105923306D01*
X202708961Y-104894735D02*
X203242295Y-104894735D01*
X202404200Y-105085211D02*
X202975628Y-105275688D01*
X202975628Y-105275688D02*
X202975628Y-104780449D01*
X202442295Y-104551878D02*
X202442295Y-104018544D01*
X202442295Y-104018544D02*
X203242295Y-104361402D01*
X205782295Y-106456639D02*
X204982295Y-106456639D01*
X204982295Y-105923306D02*
X204982295Y-105770925D01*
X204982295Y-105770925D02*
X205020390Y-105694735D01*
X205020390Y-105694735D02*
X205096580Y-105618544D01*
X205096580Y-105618544D02*
X205248961Y-105580449D01*
X205248961Y-105580449D02*
X205515628Y-105580449D01*
X205515628Y-105580449D02*
X205668009Y-105618544D01*
X205668009Y-105618544D02*
X205744200Y-105694735D01*
X205744200Y-105694735D02*
X205782295Y-105770925D01*
X205782295Y-105770925D02*
X205782295Y-105923306D01*
X205782295Y-105923306D02*
X205744200Y-105999497D01*
X205744200Y-105999497D02*
X205668009Y-106075687D01*
X205668009Y-106075687D02*
X205515628Y-106113783D01*
X205515628Y-106113783D02*
X205248961Y-106113783D01*
X205248961Y-106113783D02*
X205096580Y-106075687D01*
X205096580Y-106075687D02*
X205020390Y-105999497D01*
X205020390Y-105999497D02*
X204982295Y-105923306D01*
X205248961Y-104894735D02*
X205782295Y-104894735D01*
X204944200Y-105085211D02*
X205515628Y-105275688D01*
X205515628Y-105275688D02*
X205515628Y-104780449D01*
X205325152Y-104361402D02*
X205287057Y-104437592D01*
X205287057Y-104437592D02*
X205248961Y-104475687D01*
X205248961Y-104475687D02*
X205172771Y-104513783D01*
X205172771Y-104513783D02*
X205134676Y-104513783D01*
X205134676Y-104513783D02*
X205058485Y-104475687D01*
X205058485Y-104475687D02*
X205020390Y-104437592D01*
X205020390Y-104437592D02*
X204982295Y-104361402D01*
X204982295Y-104361402D02*
X204982295Y-104209021D01*
X204982295Y-104209021D02*
X205020390Y-104132830D01*
X205020390Y-104132830D02*
X205058485Y-104094735D01*
X205058485Y-104094735D02*
X205134676Y-104056640D01*
X205134676Y-104056640D02*
X205172771Y-104056640D01*
X205172771Y-104056640D02*
X205248961Y-104094735D01*
X205248961Y-104094735D02*
X205287057Y-104132830D01*
X205287057Y-104132830D02*
X205325152Y-104209021D01*
X205325152Y-104209021D02*
X205325152Y-104361402D01*
X205325152Y-104361402D02*
X205363247Y-104437592D01*
X205363247Y-104437592D02*
X205401342Y-104475687D01*
X205401342Y-104475687D02*
X205477533Y-104513783D01*
X205477533Y-104513783D02*
X205629914Y-104513783D01*
X205629914Y-104513783D02*
X205706104Y-104475687D01*
X205706104Y-104475687D02*
X205744200Y-104437592D01*
X205744200Y-104437592D02*
X205782295Y-104361402D01*
X205782295Y-104361402D02*
X205782295Y-104209021D01*
X205782295Y-104209021D02*
X205744200Y-104132830D01*
X205744200Y-104132830D02*
X205706104Y-104094735D01*
X205706104Y-104094735D02*
X205629914Y-104056640D01*
X205629914Y-104056640D02*
X205477533Y-104056640D01*
X205477533Y-104056640D02*
X205401342Y-104094735D01*
X205401342Y-104094735D02*
X205363247Y-104132830D01*
X205363247Y-104132830D02*
X205325152Y-104209021D01*
X208322295Y-106456639D02*
X207522295Y-106456639D01*
X207522295Y-105923306D02*
X207522295Y-105770925D01*
X207522295Y-105770925D02*
X207560390Y-105694735D01*
X207560390Y-105694735D02*
X207636580Y-105618544D01*
X207636580Y-105618544D02*
X207788961Y-105580449D01*
X207788961Y-105580449D02*
X208055628Y-105580449D01*
X208055628Y-105580449D02*
X208208009Y-105618544D01*
X208208009Y-105618544D02*
X208284200Y-105694735D01*
X208284200Y-105694735D02*
X208322295Y-105770925D01*
X208322295Y-105770925D02*
X208322295Y-105923306D01*
X208322295Y-105923306D02*
X208284200Y-105999497D01*
X208284200Y-105999497D02*
X208208009Y-106075687D01*
X208208009Y-106075687D02*
X208055628Y-106113783D01*
X208055628Y-106113783D02*
X207788961Y-106113783D01*
X207788961Y-106113783D02*
X207636580Y-106075687D01*
X207636580Y-106075687D02*
X207560390Y-105999497D01*
X207560390Y-105999497D02*
X207522295Y-105923306D01*
X207788961Y-104894735D02*
X208322295Y-104894735D01*
X207484200Y-105085211D02*
X208055628Y-105275688D01*
X208055628Y-105275688D02*
X208055628Y-104780449D01*
X208322295Y-104056640D02*
X208322295Y-104513783D01*
X208322295Y-104285211D02*
X207522295Y-104285211D01*
X207522295Y-104285211D02*
X207636580Y-104361402D01*
X207636580Y-104361402D02*
X207712771Y-104437592D01*
X207712771Y-104437592D02*
X207750866Y-104513783D01*
X210862295Y-106456639D02*
X210062295Y-106456639D01*
X210062295Y-105923306D02*
X210062295Y-105770925D01*
X210062295Y-105770925D02*
X210100390Y-105694735D01*
X210100390Y-105694735D02*
X210176580Y-105618544D01*
X210176580Y-105618544D02*
X210328961Y-105580449D01*
X210328961Y-105580449D02*
X210595628Y-105580449D01*
X210595628Y-105580449D02*
X210748009Y-105618544D01*
X210748009Y-105618544D02*
X210824200Y-105694735D01*
X210824200Y-105694735D02*
X210862295Y-105770925D01*
X210862295Y-105770925D02*
X210862295Y-105923306D01*
X210862295Y-105923306D02*
X210824200Y-105999497D01*
X210824200Y-105999497D02*
X210748009Y-106075687D01*
X210748009Y-106075687D02*
X210595628Y-106113783D01*
X210595628Y-106113783D02*
X210328961Y-106113783D01*
X210328961Y-106113783D02*
X210176580Y-106075687D01*
X210176580Y-106075687D02*
X210100390Y-105999497D01*
X210100390Y-105999497D02*
X210062295Y-105923306D01*
X210062295Y-105313783D02*
X210062295Y-104818545D01*
X210062295Y-104818545D02*
X210367057Y-105085211D01*
X210367057Y-105085211D02*
X210367057Y-104970926D01*
X210367057Y-104970926D02*
X210405152Y-104894735D01*
X210405152Y-104894735D02*
X210443247Y-104856640D01*
X210443247Y-104856640D02*
X210519438Y-104818545D01*
X210519438Y-104818545D02*
X210709914Y-104818545D01*
X210709914Y-104818545D02*
X210786104Y-104856640D01*
X210786104Y-104856640D02*
X210824200Y-104894735D01*
X210824200Y-104894735D02*
X210862295Y-104970926D01*
X210862295Y-104970926D02*
X210862295Y-105199497D01*
X210862295Y-105199497D02*
X210824200Y-105275688D01*
X210824200Y-105275688D02*
X210786104Y-105313783D01*
X210862295Y-104437592D02*
X210862295Y-104285211D01*
X210862295Y-104285211D02*
X210824200Y-104209021D01*
X210824200Y-104209021D02*
X210786104Y-104170925D01*
X210786104Y-104170925D02*
X210671819Y-104094735D01*
X210671819Y-104094735D02*
X210519438Y-104056640D01*
X210519438Y-104056640D02*
X210214676Y-104056640D01*
X210214676Y-104056640D02*
X210138485Y-104094735D01*
X210138485Y-104094735D02*
X210100390Y-104132830D01*
X210100390Y-104132830D02*
X210062295Y-104209021D01*
X210062295Y-104209021D02*
X210062295Y-104361402D01*
X210062295Y-104361402D02*
X210100390Y-104437592D01*
X210100390Y-104437592D02*
X210138485Y-104475687D01*
X210138485Y-104475687D02*
X210214676Y-104513783D01*
X210214676Y-104513783D02*
X210405152Y-104513783D01*
X210405152Y-104513783D02*
X210481342Y-104475687D01*
X210481342Y-104475687D02*
X210519438Y-104437592D01*
X210519438Y-104437592D02*
X210557533Y-104361402D01*
X210557533Y-104361402D02*
X210557533Y-104209021D01*
X210557533Y-104209021D02*
X210519438Y-104132830D01*
X210519438Y-104132830D02*
X210481342Y-104094735D01*
X210481342Y-104094735D02*
X210405152Y-104056640D01*
G36*
X213185642Y-104470261D02*
G01*
X213243582Y-104499231D01*
X213298648Y-104554296D01*
X213327295Y-104640237D01*
X213327295Y-104743544D01*
X212677295Y-104743544D01*
X212677295Y-104640237D01*
X212705942Y-104554295D01*
X212761006Y-104499231D01*
X212818945Y-104470261D01*
X212954387Y-104436401D01*
X213050203Y-104436401D01*
X213185642Y-104470261D01*
G37*
G36*
X213566184Y-106658624D02*
G01*
X212438406Y-106658624D01*
X212438406Y-106113782D01*
X212527295Y-106113782D01*
X212527295Y-106228068D01*
X212528024Y-106235473D01*
X212527884Y-106237448D01*
X212528474Y-106240045D01*
X212528736Y-106242700D01*
X212529494Y-106244531D01*
X212531144Y-106251785D01*
X212569239Y-106366071D01*
X212575233Y-106379496D01*
X212576998Y-106381531D01*
X212578030Y-106384022D01*
X212587357Y-106395387D01*
X212663547Y-106471577D01*
X212669297Y-106476297D01*
X212670596Y-106477794D01*
X212672850Y-106479213D01*
X212674912Y-106480905D01*
X212676744Y-106481663D01*
X212683039Y-106485626D01*
X212759230Y-106523721D01*
X212760299Y-106524130D01*
X212760735Y-106524453D01*
X212766886Y-106526651D01*
X212772962Y-106528976D01*
X212773500Y-106529014D01*
X212774580Y-106529400D01*
X212926962Y-106567496D01*
X212929498Y-106567871D01*
X212930520Y-106568294D01*
X212936032Y-106568836D01*
X212941506Y-106569646D01*
X212942598Y-106569483D01*
X212945152Y-106569735D01*
X213059438Y-106569735D01*
X213061991Y-106569483D01*
X213063084Y-106569646D01*
X213068558Y-106568836D01*
X213074070Y-106568294D01*
X213075090Y-106567871D01*
X213077629Y-106567496D01*
X213230010Y-106529400D01*
X213231089Y-106529014D01*
X213231628Y-106528976D01*
X213237703Y-106526651D01*
X213243855Y-106524453D01*
X213244290Y-106524130D01*
X213245360Y-106523721D01*
X213321550Y-106485626D01*
X213327846Y-106481662D01*
X213329676Y-106480905D01*
X213331734Y-106479215D01*
X213333993Y-106477794D01*
X213335292Y-106476295D01*
X213341042Y-106471577D01*
X213417233Y-106395387D01*
X213426560Y-106384022D01*
X213427591Y-106381531D01*
X213429357Y-106379496D01*
X213435351Y-106366071D01*
X213473446Y-106251785D01*
X213475095Y-106244531D01*
X213475854Y-106242700D01*
X213476115Y-106240045D01*
X213476706Y-106237448D01*
X213476565Y-106235473D01*
X213477295Y-106228068D01*
X213477295Y-106151877D01*
X213476565Y-106144471D01*
X213476706Y-106142497D01*
X213476115Y-106139899D01*
X213475854Y-106137245D01*
X213475095Y-106135413D01*
X213473446Y-106128160D01*
X213435351Y-106013875D01*
X213429357Y-106000449D01*
X213427592Y-105998414D01*
X213426561Y-105995924D01*
X213417233Y-105984559D01*
X213379137Y-105946463D01*
X213367772Y-105937136D01*
X213340736Y-105925937D01*
X213326104Y-105924496D01*
X213059438Y-105924496D01*
X213044806Y-105925937D01*
X213017770Y-105937136D01*
X212997078Y-105957828D01*
X212985879Y-105984864D01*
X212984438Y-105999496D01*
X212984438Y-106151877D01*
X212985879Y-106166509D01*
X212997078Y-106193545D01*
X213017770Y-106214237D01*
X213044806Y-106225436D01*
X213074070Y-106225436D01*
X213101106Y-106214237D01*
X213121798Y-106193545D01*
X213132997Y-106166509D01*
X213134438Y-106151877D01*
X213134438Y-106074496D01*
X213295038Y-106074496D01*
X213298648Y-106078106D01*
X213327295Y-106164047D01*
X213327295Y-106215898D01*
X213298648Y-106301839D01*
X213243582Y-106356904D01*
X213185642Y-106385874D01*
X213050203Y-106419735D01*
X212954387Y-106419735D01*
X212818945Y-106385874D01*
X212761006Y-106356904D01*
X212705942Y-106301840D01*
X212677295Y-106215898D01*
X212677295Y-106131487D01*
X212707472Y-106071133D01*
X212712727Y-106057401D01*
X212714801Y-106028211D01*
X212705547Y-106000450D01*
X212686374Y-105978342D01*
X212660199Y-105965255D01*
X212631009Y-105963181D01*
X212603248Y-105972435D01*
X212581140Y-105991608D01*
X212573308Y-106004051D01*
X212535213Y-106080241D01*
X212529958Y-106093973D01*
X212529767Y-106096660D01*
X212528736Y-106099150D01*
X212527295Y-106113782D01*
X212438406Y-106113782D01*
X212438406Y-105651400D01*
X212527478Y-105651400D01*
X212528736Y-105661296D01*
X212528736Y-105671271D01*
X212530565Y-105675686D01*
X212531168Y-105680430D01*
X212536118Y-105689094D01*
X212539935Y-105698307D01*
X212543313Y-105701685D01*
X212545687Y-105705839D01*
X212553576Y-105711948D01*
X212560627Y-105718999D01*
X212565043Y-105720828D01*
X212568824Y-105723756D01*
X212578447Y-105726380D01*
X212587663Y-105730198D01*
X212595145Y-105730934D01*
X212597056Y-105731456D01*
X212598531Y-105731268D01*
X212602295Y-105731639D01*
X213402295Y-105731639D01*
X213416927Y-105730198D01*
X213443963Y-105718999D01*
X213464655Y-105698307D01*
X213475854Y-105671271D01*
X213475854Y-105642007D01*
X213464655Y-105614971D01*
X213443963Y-105594279D01*
X213416927Y-105583080D01*
X213402295Y-105581639D01*
X212884711Y-105581639D01*
X213439505Y-105264614D01*
X213442588Y-105262425D01*
X213443963Y-105261856D01*
X213445362Y-105260456D01*
X213451495Y-105256104D01*
X213457603Y-105248215D01*
X213464655Y-105241164D01*
X213466485Y-105236745D01*
X213469412Y-105232966D01*
X213472036Y-105223344D01*
X213475854Y-105214128D01*
X213475854Y-105209347D01*
X213477112Y-105204735D01*
X213475854Y-105194838D01*
X213475854Y-105184864D01*
X213474024Y-105180448D01*
X213473422Y-105175705D01*
X213468471Y-105167040D01*
X213464655Y-105157828D01*
X213461276Y-105154449D01*
X213458903Y-105150296D01*
X213451013Y-105144186D01*
X213443963Y-105137136D01*
X213439546Y-105135306D01*
X213435766Y-105132379D01*
X213426142Y-105129754D01*
X213416927Y-105125937D01*
X213409444Y-105125200D01*
X213407534Y-105124679D01*
X213406058Y-105124866D01*
X213402295Y-105124496D01*
X212602295Y-105124496D01*
X212587663Y-105125937D01*
X212560627Y-105137136D01*
X212539935Y-105157828D01*
X212528736Y-105184864D01*
X212528736Y-105214128D01*
X212539935Y-105241164D01*
X212560627Y-105261856D01*
X212587663Y-105273055D01*
X212602295Y-105274496D01*
X213119879Y-105274496D01*
X212565085Y-105591521D01*
X212562001Y-105593709D01*
X212560627Y-105594279D01*
X212559227Y-105595678D01*
X212553095Y-105600031D01*
X212546985Y-105607920D01*
X212539935Y-105614971D01*
X212538105Y-105619387D01*
X212535178Y-105623168D01*
X212532553Y-105632791D01*
X212528736Y-105642007D01*
X212528736Y-105646787D01*
X212527478Y-105651400D01*
X212438406Y-105651400D01*
X212438406Y-104628068D01*
X212527295Y-104628068D01*
X212527295Y-104818544D01*
X212528736Y-104833176D01*
X212539935Y-104860212D01*
X212560627Y-104880904D01*
X212587663Y-104892103D01*
X212602295Y-104893544D01*
X213402295Y-104893544D01*
X213416927Y-104892103D01*
X213443963Y-104880904D01*
X213464655Y-104860212D01*
X213475854Y-104833176D01*
X213477295Y-104818544D01*
X213477295Y-104628068D01*
X213476565Y-104620662D01*
X213476706Y-104618688D01*
X213476115Y-104616090D01*
X213475854Y-104613436D01*
X213475095Y-104611604D01*
X213473446Y-104604351D01*
X213435351Y-104490065D01*
X213429357Y-104476640D01*
X213427591Y-104474604D01*
X213426560Y-104472114D01*
X213417233Y-104460749D01*
X213341042Y-104384559D01*
X213335292Y-104379840D01*
X213333993Y-104378342D01*
X213331734Y-104376920D01*
X213329676Y-104375231D01*
X213327846Y-104374473D01*
X213321550Y-104370510D01*
X213245360Y-104332415D01*
X213244290Y-104332005D01*
X213243855Y-104331683D01*
X213237703Y-104329484D01*
X213231628Y-104327160D01*
X213231089Y-104327121D01*
X213230010Y-104326736D01*
X213077629Y-104288640D01*
X213075090Y-104288264D01*
X213074070Y-104287842D01*
X213068558Y-104287299D01*
X213063084Y-104286490D01*
X213061991Y-104286652D01*
X213059438Y-104286401D01*
X212945152Y-104286401D01*
X212942598Y-104286652D01*
X212941506Y-104286490D01*
X212936032Y-104287299D01*
X212930520Y-104287842D01*
X212929498Y-104288264D01*
X212926962Y-104288640D01*
X212774580Y-104326736D01*
X212773500Y-104327121D01*
X212772962Y-104327160D01*
X212766886Y-104329484D01*
X212760735Y-104331683D01*
X212760299Y-104332005D01*
X212759230Y-104332415D01*
X212683039Y-104370510D01*
X212676744Y-104374472D01*
X212674912Y-104375231D01*
X212672850Y-104376922D01*
X212670596Y-104378342D01*
X212669297Y-104379838D01*
X212663547Y-104384559D01*
X212587357Y-104460749D01*
X212578030Y-104472114D01*
X212576998Y-104474604D01*
X212575233Y-104476640D01*
X212569239Y-104490065D01*
X212531144Y-104604351D01*
X212529494Y-104611604D01*
X212528736Y-104613436D01*
X212528474Y-104616090D01*
X212527884Y-104618688D01*
X212528024Y-104620662D01*
X212527295Y-104628068D01*
X212438406Y-104628068D01*
X212438406Y-104197512D01*
X213566184Y-104197512D01*
X213566184Y-106658624D01*
G37*
X139912295Y-88471609D02*
X140712295Y-88204942D01*
X140712295Y-88204942D02*
X139912295Y-87938276D01*
X140788485Y-87862086D02*
X140788485Y-87252562D01*
X140712295Y-87062085D02*
X140178961Y-87062085D01*
X139912295Y-87062085D02*
X139950390Y-87100181D01*
X139950390Y-87100181D02*
X139988485Y-87062085D01*
X139988485Y-87062085D02*
X139950390Y-87023990D01*
X139950390Y-87023990D02*
X139912295Y-87062085D01*
X139912295Y-87062085D02*
X139988485Y-87062085D01*
X140178961Y-86681133D02*
X140712295Y-86681133D01*
X140255152Y-86681133D02*
X140217057Y-86643038D01*
X140217057Y-86643038D02*
X140178961Y-86566848D01*
X140178961Y-86566848D02*
X140178961Y-86452562D01*
X140178961Y-86452562D02*
X140217057Y-86376371D01*
X140217057Y-86376371D02*
X140293247Y-86338276D01*
X140293247Y-86338276D02*
X140712295Y-86338276D01*
X157468318Y-103330324D02*
X158115937Y-103330324D01*
X158115937Y-103330324D02*
X158192127Y-103292229D01*
X158192127Y-103292229D02*
X158230223Y-103254134D01*
X158230223Y-103254134D02*
X158268318Y-103177943D01*
X158268318Y-103177943D02*
X158268318Y-103025562D01*
X158268318Y-103025562D02*
X158230223Y-102949372D01*
X158230223Y-102949372D02*
X158192127Y-102911277D01*
X158192127Y-102911277D02*
X158115937Y-102873181D01*
X158115937Y-102873181D02*
X157468318Y-102873181D01*
X158230223Y-102530325D02*
X158268318Y-102416039D01*
X158268318Y-102416039D02*
X158268318Y-102225563D01*
X158268318Y-102225563D02*
X158230223Y-102149372D01*
X158230223Y-102149372D02*
X158192127Y-102111277D01*
X158192127Y-102111277D02*
X158115937Y-102073182D01*
X158115937Y-102073182D02*
X158039746Y-102073182D01*
X158039746Y-102073182D02*
X157963556Y-102111277D01*
X157963556Y-102111277D02*
X157925461Y-102149372D01*
X157925461Y-102149372D02*
X157887365Y-102225563D01*
X157887365Y-102225563D02*
X157849270Y-102377944D01*
X157849270Y-102377944D02*
X157811175Y-102454134D01*
X157811175Y-102454134D02*
X157773080Y-102492229D01*
X157773080Y-102492229D02*
X157696889Y-102530325D01*
X157696889Y-102530325D02*
X157620699Y-102530325D01*
X157620699Y-102530325D02*
X157544508Y-102492229D01*
X157544508Y-102492229D02*
X157506413Y-102454134D01*
X157506413Y-102454134D02*
X157468318Y-102377944D01*
X157468318Y-102377944D02*
X157468318Y-102187467D01*
X157468318Y-102187467D02*
X157506413Y-102073182D01*
X158268318Y-101273181D02*
X157887365Y-101539848D01*
X158268318Y-101730324D02*
X157468318Y-101730324D01*
X157468318Y-101730324D02*
X157468318Y-101425562D01*
X157468318Y-101425562D02*
X157506413Y-101349372D01*
X157506413Y-101349372D02*
X157544508Y-101311277D01*
X157544508Y-101311277D02*
X157620699Y-101273181D01*
X157620699Y-101273181D02*
X157734984Y-101273181D01*
X157734984Y-101273181D02*
X157811175Y-101311277D01*
X157811175Y-101311277D02*
X157849270Y-101349372D01*
X157849270Y-101349372D02*
X157887365Y-101425562D01*
X157887365Y-101425562D02*
X157887365Y-101730324D01*
X159822939Y-103806514D02*
X159822939Y-103996990D01*
X159822939Y-103996990D02*
X158680082Y-103996990D01*
X158680082Y-103996990D02*
X158680082Y-103806514D01*
X159556273Y-103501752D02*
X158756273Y-103501752D01*
X158756273Y-102968419D02*
X158756273Y-102816038D01*
X158756273Y-102816038D02*
X158794368Y-102739848D01*
X158794368Y-102739848D02*
X158870558Y-102663657D01*
X158870558Y-102663657D02*
X159022939Y-102625562D01*
X159022939Y-102625562D02*
X159289606Y-102625562D01*
X159289606Y-102625562D02*
X159441987Y-102663657D01*
X159441987Y-102663657D02*
X159518178Y-102739848D01*
X159518178Y-102739848D02*
X159556273Y-102816038D01*
X159556273Y-102816038D02*
X159556273Y-102968419D01*
X159556273Y-102968419D02*
X159518178Y-103044610D01*
X159518178Y-103044610D02*
X159441987Y-103120800D01*
X159441987Y-103120800D02*
X159289606Y-103158896D01*
X159289606Y-103158896D02*
X159022939Y-103158896D01*
X159022939Y-103158896D02*
X158870558Y-103120800D01*
X158870558Y-103120800D02*
X158794368Y-103044610D01*
X158794368Y-103044610D02*
X158756273Y-102968419D01*
X158832463Y-102320801D02*
X158794368Y-102282705D01*
X158794368Y-102282705D02*
X158756273Y-102206515D01*
X158756273Y-102206515D02*
X158756273Y-102016039D01*
X158756273Y-102016039D02*
X158794368Y-101939848D01*
X158794368Y-101939848D02*
X158832463Y-101901753D01*
X158832463Y-101901753D02*
X158908654Y-101863658D01*
X158908654Y-101863658D02*
X158984844Y-101863658D01*
X158984844Y-101863658D02*
X159099130Y-101901753D01*
X159099130Y-101901753D02*
X159556273Y-102358896D01*
X159556273Y-102358896D02*
X159556273Y-101863658D01*
X159556273Y-101101753D02*
X159556273Y-101558896D01*
X159556273Y-101330324D02*
X158756273Y-101330324D01*
X158756273Y-101330324D02*
X158870558Y-101406515D01*
X158870558Y-101406515D02*
X158946749Y-101482705D01*
X158946749Y-101482705D02*
X158984844Y-101558896D01*
X159822939Y-100835086D02*
X159822939Y-100644610D01*
X159822939Y-100644610D02*
X158680082Y-100644610D01*
X158680082Y-100644610D02*
X158680082Y-100835086D01*
X161974200Y-86788781D02*
X162012295Y-86674495D01*
X162012295Y-86674495D02*
X162012295Y-86484019D01*
X162012295Y-86484019D02*
X161974200Y-86407828D01*
X161974200Y-86407828D02*
X161936104Y-86369733D01*
X161936104Y-86369733D02*
X161859914Y-86331638D01*
X161859914Y-86331638D02*
X161783723Y-86331638D01*
X161783723Y-86331638D02*
X161707533Y-86369733D01*
X161707533Y-86369733D02*
X161669438Y-86407828D01*
X161669438Y-86407828D02*
X161631342Y-86484019D01*
X161631342Y-86484019D02*
X161593247Y-86636400D01*
X161593247Y-86636400D02*
X161555152Y-86712590D01*
X161555152Y-86712590D02*
X161517057Y-86750685D01*
X161517057Y-86750685D02*
X161440866Y-86788781D01*
X161440866Y-86788781D02*
X161364676Y-86788781D01*
X161364676Y-86788781D02*
X161288485Y-86750685D01*
X161288485Y-86750685D02*
X161250390Y-86712590D01*
X161250390Y-86712590D02*
X161212295Y-86636400D01*
X161212295Y-86636400D02*
X161212295Y-86445923D01*
X161212295Y-86445923D02*
X161250390Y-86331638D01*
X161593247Y-85988780D02*
X161593247Y-85722114D01*
X162012295Y-85607828D02*
X162012295Y-85988780D01*
X162012295Y-85988780D02*
X161212295Y-85988780D01*
X161212295Y-85988780D02*
X161212295Y-85607828D01*
X162012295Y-84807827D02*
X161631342Y-85074494D01*
X162012295Y-85264970D02*
X161212295Y-85264970D01*
X161212295Y-85264970D02*
X161212295Y-84960208D01*
X161212295Y-84960208D02*
X161250390Y-84884018D01*
X161250390Y-84884018D02*
X161288485Y-84845923D01*
X161288485Y-84845923D02*
X161364676Y-84807827D01*
X161364676Y-84807827D02*
X161478961Y-84807827D01*
X161478961Y-84807827D02*
X161555152Y-84845923D01*
X161555152Y-84845923D02*
X161593247Y-84884018D01*
X161593247Y-84884018D02*
X161631342Y-84960208D01*
X161631342Y-84960208D02*
X161631342Y-85264970D01*
X161212295Y-84579256D02*
X162012295Y-84312589D01*
X162012295Y-84312589D02*
X161212295Y-84045923D01*
X161212295Y-83626875D02*
X161212295Y-83474494D01*
X161212295Y-83474494D02*
X161250390Y-83398304D01*
X161250390Y-83398304D02*
X161326580Y-83322113D01*
X161326580Y-83322113D02*
X161478961Y-83284018D01*
X161478961Y-83284018D02*
X161745628Y-83284018D01*
X161745628Y-83284018D02*
X161898009Y-83322113D01*
X161898009Y-83322113D02*
X161974200Y-83398304D01*
X161974200Y-83398304D02*
X162012295Y-83474494D01*
X162012295Y-83474494D02*
X162012295Y-83626875D01*
X162012295Y-83626875D02*
X161974200Y-83703066D01*
X161974200Y-83703066D02*
X161898009Y-83779256D01*
X161898009Y-83779256D02*
X161745628Y-83817352D01*
X161745628Y-83817352D02*
X161478961Y-83817352D01*
X161478961Y-83817352D02*
X161326580Y-83779256D01*
X161326580Y-83779256D02*
X161250390Y-83703066D01*
X161250390Y-83703066D02*
X161212295Y-83626875D01*
X164352296Y-98870674D02*
X164352296Y-99251626D01*
X164352296Y-99251626D02*
X164733248Y-99289722D01*
X164733248Y-99289722D02*
X164695153Y-99251626D01*
X164695153Y-99251626D02*
X164657058Y-99175436D01*
X164657058Y-99175436D02*
X164657058Y-98984960D01*
X164657058Y-98984960D02*
X164695153Y-98908769D01*
X164695153Y-98908769D02*
X164733248Y-98870674D01*
X164733248Y-98870674D02*
X164809439Y-98832579D01*
X164809439Y-98832579D02*
X164999915Y-98832579D01*
X164999915Y-98832579D02*
X165076105Y-98870674D01*
X165076105Y-98870674D02*
X165114201Y-98908769D01*
X165114201Y-98908769D02*
X165152296Y-98984960D01*
X165152296Y-98984960D02*
X165152296Y-99175436D01*
X165152296Y-99175436D02*
X165114201Y-99251626D01*
X165114201Y-99251626D02*
X165076105Y-99289722D01*
X164352296Y-98604007D02*
X165152296Y-98337340D01*
X165152296Y-98337340D02*
X164352296Y-98070674D01*
X166892295Y-100089722D02*
X166892295Y-99594484D01*
X166892295Y-99594484D02*
X167197057Y-99861150D01*
X167197057Y-99861150D02*
X167197057Y-99746865D01*
X167197057Y-99746865D02*
X167235152Y-99670674D01*
X167235152Y-99670674D02*
X167273247Y-99632579D01*
X167273247Y-99632579D02*
X167349438Y-99594484D01*
X167349438Y-99594484D02*
X167539914Y-99594484D01*
X167539914Y-99594484D02*
X167616104Y-99632579D01*
X167616104Y-99632579D02*
X167654200Y-99670674D01*
X167654200Y-99670674D02*
X167692295Y-99746865D01*
X167692295Y-99746865D02*
X167692295Y-99975436D01*
X167692295Y-99975436D02*
X167654200Y-100051627D01*
X167654200Y-100051627D02*
X167616104Y-100089722D01*
X166892295Y-99365912D02*
X167692295Y-99099245D01*
X167692295Y-99099245D02*
X166892295Y-98832579D01*
X166892295Y-98642103D02*
X166892295Y-98146865D01*
X166892295Y-98146865D02*
X167197057Y-98413531D01*
X167197057Y-98413531D02*
X167197057Y-98299246D01*
X167197057Y-98299246D02*
X167235152Y-98223055D01*
X167235152Y-98223055D02*
X167273247Y-98184960D01*
X167273247Y-98184960D02*
X167349438Y-98146865D01*
X167349438Y-98146865D02*
X167539914Y-98146865D01*
X167539914Y-98146865D02*
X167616104Y-98184960D01*
X167616104Y-98184960D02*
X167654200Y-98223055D01*
X167654200Y-98223055D02*
X167692295Y-98299246D01*
X167692295Y-98299246D02*
X167692295Y-98527817D01*
X167692295Y-98527817D02*
X167654200Y-98604008D01*
X167654200Y-98604008D02*
X167616104Y-98642103D01*
X172353247Y-99365912D02*
X172353247Y-99099246D01*
X172772295Y-98984960D02*
X172772295Y-99365912D01*
X172772295Y-99365912D02*
X171972295Y-99365912D01*
X171972295Y-99365912D02*
X171972295Y-98984960D01*
X172772295Y-98642102D02*
X171972295Y-98642102D01*
X171972295Y-98642102D02*
X172772295Y-98184959D01*
X172772295Y-98184959D02*
X171972295Y-98184959D01*
X174893247Y-100623055D02*
X174931342Y-100508769D01*
X174931342Y-100508769D02*
X174969438Y-100470674D01*
X174969438Y-100470674D02*
X175045628Y-100432578D01*
X175045628Y-100432578D02*
X175159914Y-100432578D01*
X175159914Y-100432578D02*
X175236104Y-100470674D01*
X175236104Y-100470674D02*
X175274200Y-100508769D01*
X175274200Y-100508769D02*
X175312295Y-100584959D01*
X175312295Y-100584959D02*
X175312295Y-100889721D01*
X175312295Y-100889721D02*
X174512295Y-100889721D01*
X174512295Y-100889721D02*
X174512295Y-100623055D01*
X174512295Y-100623055D02*
X174550390Y-100546864D01*
X174550390Y-100546864D02*
X174588485Y-100508769D01*
X174588485Y-100508769D02*
X174664676Y-100470674D01*
X174664676Y-100470674D02*
X174740866Y-100470674D01*
X174740866Y-100470674D02*
X174817057Y-100508769D01*
X174817057Y-100508769D02*
X174855152Y-100546864D01*
X174855152Y-100546864D02*
X174893247Y-100623055D01*
X174893247Y-100623055D02*
X174893247Y-100889721D01*
X174512295Y-99937340D02*
X174512295Y-99784959D01*
X174512295Y-99784959D02*
X174550390Y-99708769D01*
X174550390Y-99708769D02*
X174626580Y-99632578D01*
X174626580Y-99632578D02*
X174778961Y-99594483D01*
X174778961Y-99594483D02*
X175045628Y-99594483D01*
X175045628Y-99594483D02*
X175198009Y-99632578D01*
X175198009Y-99632578D02*
X175274200Y-99708769D01*
X175274200Y-99708769D02*
X175312295Y-99784959D01*
X175312295Y-99784959D02*
X175312295Y-99937340D01*
X175312295Y-99937340D02*
X175274200Y-100013531D01*
X175274200Y-100013531D02*
X175198009Y-100089721D01*
X175198009Y-100089721D02*
X175045628Y-100127817D01*
X175045628Y-100127817D02*
X174778961Y-100127817D01*
X174778961Y-100127817D02*
X174626580Y-100089721D01*
X174626580Y-100089721D02*
X174550390Y-100013531D01*
X174550390Y-100013531D02*
X174512295Y-99937340D01*
X174512295Y-99099245D02*
X174512295Y-98946864D01*
X174512295Y-98946864D02*
X174550390Y-98870674D01*
X174550390Y-98870674D02*
X174626580Y-98794483D01*
X174626580Y-98794483D02*
X174778961Y-98756388D01*
X174778961Y-98756388D02*
X175045628Y-98756388D01*
X175045628Y-98756388D02*
X175198009Y-98794483D01*
X175198009Y-98794483D02*
X175274200Y-98870674D01*
X175274200Y-98870674D02*
X175312295Y-98946864D01*
X175312295Y-98946864D02*
X175312295Y-99099245D01*
X175312295Y-99099245D02*
X175274200Y-99175436D01*
X175274200Y-99175436D02*
X175198009Y-99251626D01*
X175198009Y-99251626D02*
X175045628Y-99289722D01*
X175045628Y-99289722D02*
X174778961Y-99289722D01*
X174778961Y-99289722D02*
X174626580Y-99251626D01*
X174626580Y-99251626D02*
X174550390Y-99175436D01*
X174550390Y-99175436D02*
X174512295Y-99099245D01*
X174512295Y-98527817D02*
X174512295Y-98070674D01*
X175312295Y-98299246D02*
X174512295Y-98299246D01*
X177852295Y-99670674D02*
X177471342Y-99937341D01*
X177852295Y-100127817D02*
X177052295Y-100127817D01*
X177052295Y-100127817D02*
X177052295Y-99823055D01*
X177052295Y-99823055D02*
X177090390Y-99746865D01*
X177090390Y-99746865D02*
X177128485Y-99708770D01*
X177128485Y-99708770D02*
X177204676Y-99670674D01*
X177204676Y-99670674D02*
X177318961Y-99670674D01*
X177318961Y-99670674D02*
X177395152Y-99708770D01*
X177395152Y-99708770D02*
X177433247Y-99746865D01*
X177433247Y-99746865D02*
X177471342Y-99823055D01*
X177471342Y-99823055D02*
X177471342Y-100127817D01*
X177052295Y-99404008D02*
X177852295Y-98870674D01*
X177052295Y-98870674D02*
X177852295Y-99404008D01*
X177052295Y-98413531D02*
X177052295Y-98337341D01*
X177052295Y-98337341D02*
X177090390Y-98261150D01*
X177090390Y-98261150D02*
X177128485Y-98223055D01*
X177128485Y-98223055D02*
X177204676Y-98184960D01*
X177204676Y-98184960D02*
X177357057Y-98146865D01*
X177357057Y-98146865D02*
X177547533Y-98146865D01*
X177547533Y-98146865D02*
X177699914Y-98184960D01*
X177699914Y-98184960D02*
X177776104Y-98223055D01*
X177776104Y-98223055D02*
X177814200Y-98261150D01*
X177814200Y-98261150D02*
X177852295Y-98337341D01*
X177852295Y-98337341D02*
X177852295Y-98413531D01*
X177852295Y-98413531D02*
X177814200Y-98489722D01*
X177814200Y-98489722D02*
X177776104Y-98527817D01*
X177776104Y-98527817D02*
X177699914Y-98565912D01*
X177699914Y-98565912D02*
X177547533Y-98604008D01*
X177547533Y-98604008D02*
X177357057Y-98604008D01*
X177357057Y-98604008D02*
X177204676Y-98565912D01*
X177204676Y-98565912D02*
X177128485Y-98527817D01*
X177128485Y-98527817D02*
X177090390Y-98489722D01*
X177090390Y-98489722D02*
X177052295Y-98413531D01*
X179592295Y-100051627D02*
X179592295Y-99594484D01*
X180392295Y-99823056D02*
X179592295Y-99823056D01*
X179592295Y-99404008D02*
X180392295Y-98870674D01*
X179592295Y-98870674D02*
X180392295Y-99404008D01*
X179592295Y-98413531D02*
X179592295Y-98337341D01*
X179592295Y-98337341D02*
X179630390Y-98261150D01*
X179630390Y-98261150D02*
X179668485Y-98223055D01*
X179668485Y-98223055D02*
X179744676Y-98184960D01*
X179744676Y-98184960D02*
X179897057Y-98146865D01*
X179897057Y-98146865D02*
X180087533Y-98146865D01*
X180087533Y-98146865D02*
X180239914Y-98184960D01*
X180239914Y-98184960D02*
X180316104Y-98223055D01*
X180316104Y-98223055D02*
X180354200Y-98261150D01*
X180354200Y-98261150D02*
X180392295Y-98337341D01*
X180392295Y-98337341D02*
X180392295Y-98413531D01*
X180392295Y-98413531D02*
X180354200Y-98489722D01*
X180354200Y-98489722D02*
X180316104Y-98527817D01*
X180316104Y-98527817D02*
X180239914Y-98565912D01*
X180239914Y-98565912D02*
X180087533Y-98604008D01*
X180087533Y-98604008D02*
X179897057Y-98604008D01*
X179897057Y-98604008D02*
X179744676Y-98565912D01*
X179744676Y-98565912D02*
X179668485Y-98527817D01*
X179668485Y-98527817D02*
X179630390Y-98489722D01*
X179630390Y-98489722D02*
X179592295Y-98413531D01*
X182932295Y-99594483D02*
X182132295Y-99594483D01*
X182132295Y-99594483D02*
X182132295Y-99404007D01*
X182132295Y-99404007D02*
X182170390Y-99289721D01*
X182170390Y-99289721D02*
X182246580Y-99213531D01*
X182246580Y-99213531D02*
X182322771Y-99175436D01*
X182322771Y-99175436D02*
X182475152Y-99137340D01*
X182475152Y-99137340D02*
X182589438Y-99137340D01*
X182589438Y-99137340D02*
X182741819Y-99175436D01*
X182741819Y-99175436D02*
X182818009Y-99213531D01*
X182818009Y-99213531D02*
X182894200Y-99289721D01*
X182894200Y-99289721D02*
X182932295Y-99404007D01*
X182932295Y-99404007D02*
X182932295Y-99594483D01*
X182627533Y-98794483D02*
X182627533Y-98184960D01*
X185472295Y-99594483D02*
X184672295Y-99594483D01*
X184672295Y-99594483D02*
X184672295Y-99404007D01*
X184672295Y-99404007D02*
X184710390Y-99289721D01*
X184710390Y-99289721D02*
X184786580Y-99213531D01*
X184786580Y-99213531D02*
X184862771Y-99175436D01*
X184862771Y-99175436D02*
X185015152Y-99137340D01*
X185015152Y-99137340D02*
X185129438Y-99137340D01*
X185129438Y-99137340D02*
X185281819Y-99175436D01*
X185281819Y-99175436D02*
X185358009Y-99213531D01*
X185358009Y-99213531D02*
X185434200Y-99289721D01*
X185434200Y-99289721D02*
X185472295Y-99404007D01*
X185472295Y-99404007D02*
X185472295Y-99594483D01*
X185167533Y-98794483D02*
X185167533Y-98184960D01*
X185472295Y-98489721D02*
X184862771Y-98489721D01*
X190552295Y-100546864D02*
X189752295Y-100546864D01*
X189752295Y-100013531D02*
X189752295Y-99861150D01*
X189752295Y-99861150D02*
X189790390Y-99784960D01*
X189790390Y-99784960D02*
X189866580Y-99708769D01*
X189866580Y-99708769D02*
X190018961Y-99670674D01*
X190018961Y-99670674D02*
X190285628Y-99670674D01*
X190285628Y-99670674D02*
X190438009Y-99708769D01*
X190438009Y-99708769D02*
X190514200Y-99784960D01*
X190514200Y-99784960D02*
X190552295Y-99861150D01*
X190552295Y-99861150D02*
X190552295Y-100013531D01*
X190552295Y-100013531D02*
X190514200Y-100089722D01*
X190514200Y-100089722D02*
X190438009Y-100165912D01*
X190438009Y-100165912D02*
X190285628Y-100204008D01*
X190285628Y-100204008D02*
X190018961Y-100204008D01*
X190018961Y-100204008D02*
X189866580Y-100165912D01*
X189866580Y-100165912D02*
X189790390Y-100089722D01*
X189790390Y-100089722D02*
X189752295Y-100013531D01*
X190018961Y-98984960D02*
X190552295Y-98984960D01*
X189714200Y-99175436D02*
X190285628Y-99365913D01*
X190285628Y-99365913D02*
X190285628Y-98870674D01*
X189828485Y-98604008D02*
X189790390Y-98565912D01*
X189790390Y-98565912D02*
X189752295Y-98489722D01*
X189752295Y-98489722D02*
X189752295Y-98299246D01*
X189752295Y-98299246D02*
X189790390Y-98223055D01*
X189790390Y-98223055D02*
X189828485Y-98184960D01*
X189828485Y-98184960D02*
X189904676Y-98146865D01*
X189904676Y-98146865D02*
X189980866Y-98146865D01*
X189980866Y-98146865D02*
X190095152Y-98184960D01*
X190095152Y-98184960D02*
X190552295Y-98642103D01*
X190552295Y-98642103D02*
X190552295Y-98146865D01*
X193092295Y-100546864D02*
X192292295Y-100546864D01*
X192292295Y-100013531D02*
X192292295Y-99861150D01*
X192292295Y-99861150D02*
X192330390Y-99784960D01*
X192330390Y-99784960D02*
X192406580Y-99708769D01*
X192406580Y-99708769D02*
X192558961Y-99670674D01*
X192558961Y-99670674D02*
X192825628Y-99670674D01*
X192825628Y-99670674D02*
X192978009Y-99708769D01*
X192978009Y-99708769D02*
X193054200Y-99784960D01*
X193054200Y-99784960D02*
X193092295Y-99861150D01*
X193092295Y-99861150D02*
X193092295Y-100013531D01*
X193092295Y-100013531D02*
X193054200Y-100089722D01*
X193054200Y-100089722D02*
X192978009Y-100165912D01*
X192978009Y-100165912D02*
X192825628Y-100204008D01*
X192825628Y-100204008D02*
X192558961Y-100204008D01*
X192558961Y-100204008D02*
X192406580Y-100165912D01*
X192406580Y-100165912D02*
X192330390Y-100089722D01*
X192330390Y-100089722D02*
X192292295Y-100013531D01*
X192558961Y-98984960D02*
X193092295Y-98984960D01*
X192254200Y-99175436D02*
X192825628Y-99365913D01*
X192825628Y-99365913D02*
X192825628Y-98870674D01*
X192292295Y-98413531D02*
X192292295Y-98337341D01*
X192292295Y-98337341D02*
X192330390Y-98261150D01*
X192330390Y-98261150D02*
X192368485Y-98223055D01*
X192368485Y-98223055D02*
X192444676Y-98184960D01*
X192444676Y-98184960D02*
X192597057Y-98146865D01*
X192597057Y-98146865D02*
X192787533Y-98146865D01*
X192787533Y-98146865D02*
X192939914Y-98184960D01*
X192939914Y-98184960D02*
X193016104Y-98223055D01*
X193016104Y-98223055D02*
X193054200Y-98261150D01*
X193054200Y-98261150D02*
X193092295Y-98337341D01*
X193092295Y-98337341D02*
X193092295Y-98413531D01*
X193092295Y-98413531D02*
X193054200Y-98489722D01*
X193054200Y-98489722D02*
X193016104Y-98527817D01*
X193016104Y-98527817D02*
X192939914Y-98565912D01*
X192939914Y-98565912D02*
X192787533Y-98604008D01*
X192787533Y-98604008D02*
X192597057Y-98604008D01*
X192597057Y-98604008D02*
X192444676Y-98565912D01*
X192444676Y-98565912D02*
X192368485Y-98527817D01*
X192368485Y-98527817D02*
X192330390Y-98489722D01*
X192330390Y-98489722D02*
X192292295Y-98413531D01*
X195632295Y-100546864D02*
X194832295Y-100546864D01*
X194832295Y-100013531D02*
X194832295Y-99861150D01*
X194832295Y-99861150D02*
X194870390Y-99784960D01*
X194870390Y-99784960D02*
X194946580Y-99708769D01*
X194946580Y-99708769D02*
X195098961Y-99670674D01*
X195098961Y-99670674D02*
X195365628Y-99670674D01*
X195365628Y-99670674D02*
X195518009Y-99708769D01*
X195518009Y-99708769D02*
X195594200Y-99784960D01*
X195594200Y-99784960D02*
X195632295Y-99861150D01*
X195632295Y-99861150D02*
X195632295Y-100013531D01*
X195632295Y-100013531D02*
X195594200Y-100089722D01*
X195594200Y-100089722D02*
X195518009Y-100165912D01*
X195518009Y-100165912D02*
X195365628Y-100204008D01*
X195365628Y-100204008D02*
X195098961Y-100204008D01*
X195098961Y-100204008D02*
X194946580Y-100165912D01*
X194946580Y-100165912D02*
X194870390Y-100089722D01*
X194870390Y-100089722D02*
X194832295Y-100013531D01*
X194832295Y-99404008D02*
X194832295Y-98908770D01*
X194832295Y-98908770D02*
X195137057Y-99175436D01*
X195137057Y-99175436D02*
X195137057Y-99061151D01*
X195137057Y-99061151D02*
X195175152Y-98984960D01*
X195175152Y-98984960D02*
X195213247Y-98946865D01*
X195213247Y-98946865D02*
X195289438Y-98908770D01*
X195289438Y-98908770D02*
X195479914Y-98908770D01*
X195479914Y-98908770D02*
X195556104Y-98946865D01*
X195556104Y-98946865D02*
X195594200Y-98984960D01*
X195594200Y-98984960D02*
X195632295Y-99061151D01*
X195632295Y-99061151D02*
X195632295Y-99289722D01*
X195632295Y-99289722D02*
X195594200Y-99365913D01*
X195594200Y-99365913D02*
X195556104Y-99404008D01*
X195175152Y-98451627D02*
X195137057Y-98527817D01*
X195137057Y-98527817D02*
X195098961Y-98565912D01*
X195098961Y-98565912D02*
X195022771Y-98604008D01*
X195022771Y-98604008D02*
X194984676Y-98604008D01*
X194984676Y-98604008D02*
X194908485Y-98565912D01*
X194908485Y-98565912D02*
X194870390Y-98527817D01*
X194870390Y-98527817D02*
X194832295Y-98451627D01*
X194832295Y-98451627D02*
X194832295Y-98299246D01*
X194832295Y-98299246D02*
X194870390Y-98223055D01*
X194870390Y-98223055D02*
X194908485Y-98184960D01*
X194908485Y-98184960D02*
X194984676Y-98146865D01*
X194984676Y-98146865D02*
X195022771Y-98146865D01*
X195022771Y-98146865D02*
X195098961Y-98184960D01*
X195098961Y-98184960D02*
X195137057Y-98223055D01*
X195137057Y-98223055D02*
X195175152Y-98299246D01*
X195175152Y-98299246D02*
X195175152Y-98451627D01*
X195175152Y-98451627D02*
X195213247Y-98527817D01*
X195213247Y-98527817D02*
X195251342Y-98565912D01*
X195251342Y-98565912D02*
X195327533Y-98604008D01*
X195327533Y-98604008D02*
X195479914Y-98604008D01*
X195479914Y-98604008D02*
X195556104Y-98565912D01*
X195556104Y-98565912D02*
X195594200Y-98527817D01*
X195594200Y-98527817D02*
X195632295Y-98451627D01*
X195632295Y-98451627D02*
X195632295Y-98299246D01*
X195632295Y-98299246D02*
X195594200Y-98223055D01*
X195594200Y-98223055D02*
X195556104Y-98184960D01*
X195556104Y-98184960D02*
X195479914Y-98146865D01*
X195479914Y-98146865D02*
X195327533Y-98146865D01*
X195327533Y-98146865D02*
X195251342Y-98184960D01*
X195251342Y-98184960D02*
X195213247Y-98223055D01*
X195213247Y-98223055D02*
X195175152Y-98299246D01*
X198172295Y-99708769D02*
X197372295Y-99708769D01*
X197372295Y-99175436D02*
X197372295Y-99099246D01*
X197372295Y-99099246D02*
X197410390Y-99023055D01*
X197410390Y-99023055D02*
X197448485Y-98984960D01*
X197448485Y-98984960D02*
X197524676Y-98946865D01*
X197524676Y-98946865D02*
X197677057Y-98908770D01*
X197677057Y-98908770D02*
X197867533Y-98908770D01*
X197867533Y-98908770D02*
X198019914Y-98946865D01*
X198019914Y-98946865D02*
X198096104Y-98984960D01*
X198096104Y-98984960D02*
X198134200Y-99023055D01*
X198134200Y-99023055D02*
X198172295Y-99099246D01*
X198172295Y-99099246D02*
X198172295Y-99175436D01*
X198172295Y-99175436D02*
X198134200Y-99251627D01*
X198134200Y-99251627D02*
X198096104Y-99289722D01*
X198096104Y-99289722D02*
X198019914Y-99327817D01*
X198019914Y-99327817D02*
X197867533Y-99365913D01*
X197867533Y-99365913D02*
X197677057Y-99365913D01*
X197677057Y-99365913D02*
X197524676Y-99327817D01*
X197524676Y-99327817D02*
X197448485Y-99289722D01*
X197448485Y-99289722D02*
X197410390Y-99251627D01*
X197410390Y-99251627D02*
X197372295Y-99175436D01*
X197372295Y-98184960D02*
X197372295Y-98565912D01*
X197372295Y-98565912D02*
X197753247Y-98604008D01*
X197753247Y-98604008D02*
X197715152Y-98565912D01*
X197715152Y-98565912D02*
X197677057Y-98489722D01*
X197677057Y-98489722D02*
X197677057Y-98299246D01*
X197677057Y-98299246D02*
X197715152Y-98223055D01*
X197715152Y-98223055D02*
X197753247Y-98184960D01*
X197753247Y-98184960D02*
X197829438Y-98146865D01*
X197829438Y-98146865D02*
X198019914Y-98146865D01*
X198019914Y-98146865D02*
X198096104Y-98184960D01*
X198096104Y-98184960D02*
X198134200Y-98223055D01*
X198134200Y-98223055D02*
X198172295Y-98299246D01*
X198172295Y-98299246D02*
X198172295Y-98489722D01*
X198172295Y-98489722D02*
X198134200Y-98565912D01*
X198134200Y-98565912D02*
X198096104Y-98604008D01*
X200712295Y-99784959D02*
X199912295Y-99784959D01*
X199912295Y-99251626D02*
X199912295Y-99099245D01*
X199912295Y-99099245D02*
X199950390Y-99023055D01*
X199950390Y-99023055D02*
X200026580Y-98946864D01*
X200026580Y-98946864D02*
X200178961Y-98908769D01*
X200178961Y-98908769D02*
X200445628Y-98908769D01*
X200445628Y-98908769D02*
X200598009Y-98946864D01*
X200598009Y-98946864D02*
X200674200Y-99023055D01*
X200674200Y-99023055D02*
X200712295Y-99099245D01*
X200712295Y-99099245D02*
X200712295Y-99251626D01*
X200712295Y-99251626D02*
X200674200Y-99327817D01*
X200674200Y-99327817D02*
X200598009Y-99404007D01*
X200598009Y-99404007D02*
X200445628Y-99442103D01*
X200445628Y-99442103D02*
X200178961Y-99442103D01*
X200178961Y-99442103D02*
X200026580Y-99404007D01*
X200026580Y-99404007D02*
X199950390Y-99327817D01*
X199950390Y-99327817D02*
X199912295Y-99251626D01*
X200178961Y-98223055D02*
X200712295Y-98223055D01*
X199874200Y-98413531D02*
X200445628Y-98604008D01*
X200445628Y-98604008D02*
X200445628Y-98108769D01*
X203252295Y-99784959D02*
X202452295Y-99784959D01*
X202452295Y-99251626D02*
X202452295Y-99099245D01*
X202452295Y-99099245D02*
X202490390Y-99023055D01*
X202490390Y-99023055D02*
X202566580Y-98946864D01*
X202566580Y-98946864D02*
X202718961Y-98908769D01*
X202718961Y-98908769D02*
X202985628Y-98908769D01*
X202985628Y-98908769D02*
X203138009Y-98946864D01*
X203138009Y-98946864D02*
X203214200Y-99023055D01*
X203214200Y-99023055D02*
X203252295Y-99099245D01*
X203252295Y-99099245D02*
X203252295Y-99251626D01*
X203252295Y-99251626D02*
X203214200Y-99327817D01*
X203214200Y-99327817D02*
X203138009Y-99404007D01*
X203138009Y-99404007D02*
X202985628Y-99442103D01*
X202985628Y-99442103D02*
X202718961Y-99442103D01*
X202718961Y-99442103D02*
X202566580Y-99404007D01*
X202566580Y-99404007D02*
X202490390Y-99327817D01*
X202490390Y-99327817D02*
X202452295Y-99251626D01*
X202452295Y-98642103D02*
X202452295Y-98146865D01*
X202452295Y-98146865D02*
X202757057Y-98413531D01*
X202757057Y-98413531D02*
X202757057Y-98299246D01*
X202757057Y-98299246D02*
X202795152Y-98223055D01*
X202795152Y-98223055D02*
X202833247Y-98184960D01*
X202833247Y-98184960D02*
X202909438Y-98146865D01*
X202909438Y-98146865D02*
X203099914Y-98146865D01*
X203099914Y-98146865D02*
X203176104Y-98184960D01*
X203176104Y-98184960D02*
X203214200Y-98223055D01*
X203214200Y-98223055D02*
X203252295Y-98299246D01*
X203252295Y-98299246D02*
X203252295Y-98527817D01*
X203252295Y-98527817D02*
X203214200Y-98604008D01*
X203214200Y-98604008D02*
X203176104Y-98642103D01*
X205792296Y-99784959D02*
X204992296Y-99784959D01*
X204992296Y-99251626D02*
X204992296Y-99099245D01*
X204992296Y-99099245D02*
X205030391Y-99023055D01*
X205030391Y-99023055D02*
X205106581Y-98946864D01*
X205106581Y-98946864D02*
X205258962Y-98908769D01*
X205258962Y-98908769D02*
X205525629Y-98908769D01*
X205525629Y-98908769D02*
X205678010Y-98946864D01*
X205678010Y-98946864D02*
X205754201Y-99023055D01*
X205754201Y-99023055D02*
X205792296Y-99099245D01*
X205792296Y-99099245D02*
X205792296Y-99251626D01*
X205792296Y-99251626D02*
X205754201Y-99327817D01*
X205754201Y-99327817D02*
X205678010Y-99404007D01*
X205678010Y-99404007D02*
X205525629Y-99442103D01*
X205525629Y-99442103D02*
X205258962Y-99442103D01*
X205258962Y-99442103D02*
X205106581Y-99404007D01*
X205106581Y-99404007D02*
X205030391Y-99327817D01*
X205030391Y-99327817D02*
X204992296Y-99251626D01*
X205068486Y-98604008D02*
X205030391Y-98565912D01*
X205030391Y-98565912D02*
X204992296Y-98489722D01*
X204992296Y-98489722D02*
X204992296Y-98299246D01*
X204992296Y-98299246D02*
X205030391Y-98223055D01*
X205030391Y-98223055D02*
X205068486Y-98184960D01*
X205068486Y-98184960D02*
X205144677Y-98146865D01*
X205144677Y-98146865D02*
X205220867Y-98146865D01*
X205220867Y-98146865D02*
X205335153Y-98184960D01*
X205335153Y-98184960D02*
X205792296Y-98642103D01*
X205792296Y-98642103D02*
X205792296Y-98146865D01*
X208332296Y-99784959D02*
X207532296Y-99784959D01*
X207532296Y-99251626D02*
X207532296Y-99099245D01*
X207532296Y-99099245D02*
X207570391Y-99023055D01*
X207570391Y-99023055D02*
X207646581Y-98946864D01*
X207646581Y-98946864D02*
X207798962Y-98908769D01*
X207798962Y-98908769D02*
X208065629Y-98908769D01*
X208065629Y-98908769D02*
X208218010Y-98946864D01*
X208218010Y-98946864D02*
X208294201Y-99023055D01*
X208294201Y-99023055D02*
X208332296Y-99099245D01*
X208332296Y-99099245D02*
X208332296Y-99251626D01*
X208332296Y-99251626D02*
X208294201Y-99327817D01*
X208294201Y-99327817D02*
X208218010Y-99404007D01*
X208218010Y-99404007D02*
X208065629Y-99442103D01*
X208065629Y-99442103D02*
X207798962Y-99442103D01*
X207798962Y-99442103D02*
X207646581Y-99404007D01*
X207646581Y-99404007D02*
X207570391Y-99327817D01*
X207570391Y-99327817D02*
X207532296Y-99251626D01*
X208332296Y-98146865D02*
X208332296Y-98604008D01*
X208332296Y-98375436D02*
X207532296Y-98375436D01*
X207532296Y-98375436D02*
X207646581Y-98451627D01*
X207646581Y-98451627D02*
X207722772Y-98527817D01*
X207722772Y-98527817D02*
X207760867Y-98604008D01*
X210872296Y-99784959D02*
X210072296Y-99784959D01*
X210072296Y-99251626D02*
X210072296Y-99099245D01*
X210072296Y-99099245D02*
X210110391Y-99023055D01*
X210110391Y-99023055D02*
X210186581Y-98946864D01*
X210186581Y-98946864D02*
X210338962Y-98908769D01*
X210338962Y-98908769D02*
X210605629Y-98908769D01*
X210605629Y-98908769D02*
X210758010Y-98946864D01*
X210758010Y-98946864D02*
X210834201Y-99023055D01*
X210834201Y-99023055D02*
X210872296Y-99099245D01*
X210872296Y-99099245D02*
X210872296Y-99251626D01*
X210872296Y-99251626D02*
X210834201Y-99327817D01*
X210834201Y-99327817D02*
X210758010Y-99404007D01*
X210758010Y-99404007D02*
X210605629Y-99442103D01*
X210605629Y-99442103D02*
X210338962Y-99442103D01*
X210338962Y-99442103D02*
X210186581Y-99404007D01*
X210186581Y-99404007D02*
X210110391Y-99327817D01*
X210110391Y-99327817D02*
X210072296Y-99251626D01*
X210872296Y-98527817D02*
X210872296Y-98375436D01*
X210872296Y-98375436D02*
X210834201Y-98299246D01*
X210834201Y-98299246D02*
X210796105Y-98261150D01*
X210796105Y-98261150D02*
X210681820Y-98184960D01*
X210681820Y-98184960D02*
X210529439Y-98146865D01*
X210529439Y-98146865D02*
X210224677Y-98146865D01*
X210224677Y-98146865D02*
X210148486Y-98184960D01*
X210148486Y-98184960D02*
X210110391Y-98223055D01*
X210110391Y-98223055D02*
X210072296Y-98299246D01*
X210072296Y-98299246D02*
X210072296Y-98451627D01*
X210072296Y-98451627D02*
X210110391Y-98527817D01*
X210110391Y-98527817D02*
X210148486Y-98565912D01*
X210148486Y-98565912D02*
X210224677Y-98604008D01*
X210224677Y-98604008D02*
X210415153Y-98604008D01*
X210415153Y-98604008D02*
X210491343Y-98565912D01*
X210491343Y-98565912D02*
X210529439Y-98527817D01*
X210529439Y-98527817D02*
X210567534Y-98451627D01*
X210567534Y-98451627D02*
X210567534Y-98299246D01*
X210567534Y-98299246D02*
X210529439Y-98223055D01*
X210529439Y-98223055D02*
X210491343Y-98184960D01*
X210491343Y-98184960D02*
X210415153Y-98146865D01*
X213412295Y-99784959D02*
X212612295Y-99784959D01*
X212612295Y-99251626D02*
X212612295Y-99099245D01*
X212612295Y-99099245D02*
X212650390Y-99023055D01*
X212650390Y-99023055D02*
X212726580Y-98946864D01*
X212726580Y-98946864D02*
X212878961Y-98908769D01*
X212878961Y-98908769D02*
X213145628Y-98908769D01*
X213145628Y-98908769D02*
X213298009Y-98946864D01*
X213298009Y-98946864D02*
X213374200Y-99023055D01*
X213374200Y-99023055D02*
X213412295Y-99099245D01*
X213412295Y-99099245D02*
X213412295Y-99251626D01*
X213412295Y-99251626D02*
X213374200Y-99327817D01*
X213374200Y-99327817D02*
X213298009Y-99404007D01*
X213298009Y-99404007D02*
X213145628Y-99442103D01*
X213145628Y-99442103D02*
X212878961Y-99442103D01*
X212878961Y-99442103D02*
X212726580Y-99404007D01*
X212726580Y-99404007D02*
X212650390Y-99327817D01*
X212650390Y-99327817D02*
X212612295Y-99251626D01*
X212955152Y-98451627D02*
X212917057Y-98527817D01*
X212917057Y-98527817D02*
X212878961Y-98565912D01*
X212878961Y-98565912D02*
X212802771Y-98604008D01*
X212802771Y-98604008D02*
X212764676Y-98604008D01*
X212764676Y-98604008D02*
X212688485Y-98565912D01*
X212688485Y-98565912D02*
X212650390Y-98527817D01*
X212650390Y-98527817D02*
X212612295Y-98451627D01*
X212612295Y-98451627D02*
X212612295Y-98299246D01*
X212612295Y-98299246D02*
X212650390Y-98223055D01*
X212650390Y-98223055D02*
X212688485Y-98184960D01*
X212688485Y-98184960D02*
X212764676Y-98146865D01*
X212764676Y-98146865D02*
X212802771Y-98146865D01*
X212802771Y-98146865D02*
X212878961Y-98184960D01*
X212878961Y-98184960D02*
X212917057Y-98223055D01*
X212917057Y-98223055D02*
X212955152Y-98299246D01*
X212955152Y-98299246D02*
X212955152Y-98451627D01*
X212955152Y-98451627D02*
X212993247Y-98527817D01*
X212993247Y-98527817D02*
X213031342Y-98565912D01*
X213031342Y-98565912D02*
X213107533Y-98604008D01*
X213107533Y-98604008D02*
X213259914Y-98604008D01*
X213259914Y-98604008D02*
X213336104Y-98565912D01*
X213336104Y-98565912D02*
X213374200Y-98527817D01*
X213374200Y-98527817D02*
X213412295Y-98451627D01*
X213412295Y-98451627D02*
X213412295Y-98299246D01*
X213412295Y-98299246D02*
X213374200Y-98223055D01*
X213374200Y-98223055D02*
X213336104Y-98184960D01*
X213336104Y-98184960D02*
X213259914Y-98146865D01*
X213259914Y-98146865D02*
X213107533Y-98146865D01*
X213107533Y-98146865D02*
X213031342Y-98184960D01*
X213031342Y-98184960D02*
X212993247Y-98223055D01*
X212993247Y-98223055D02*
X212955152Y-98299246D01*
X128771714Y-91706752D02*
X128657428Y-91668657D01*
X128657428Y-91668657D02*
X128619333Y-91630561D01*
X128619333Y-91630561D02*
X128581237Y-91554371D01*
X128581237Y-91554371D02*
X128581237Y-91440085D01*
X128581237Y-91440085D02*
X128619333Y-91363895D01*
X128619333Y-91363895D02*
X128657428Y-91325800D01*
X128657428Y-91325800D02*
X128733618Y-91287704D01*
X128733618Y-91287704D02*
X129038380Y-91287704D01*
X129038380Y-91287704D02*
X129038380Y-92087704D01*
X129038380Y-92087704D02*
X128771714Y-92087704D01*
X128771714Y-92087704D02*
X128695523Y-92049609D01*
X128695523Y-92049609D02*
X128657428Y-92011514D01*
X128657428Y-92011514D02*
X128619333Y-91935323D01*
X128619333Y-91935323D02*
X128619333Y-91859133D01*
X128619333Y-91859133D02*
X128657428Y-91782942D01*
X128657428Y-91782942D02*
X128695523Y-91744847D01*
X128695523Y-91744847D02*
X128771714Y-91706752D01*
X128771714Y-91706752D02*
X129038380Y-91706752D01*
X128085999Y-92087704D02*
X127933618Y-92087704D01*
X127933618Y-92087704D02*
X127857428Y-92049609D01*
X127857428Y-92049609D02*
X127781237Y-91973419D01*
X127781237Y-91973419D02*
X127743142Y-91821038D01*
X127743142Y-91821038D02*
X127743142Y-91554371D01*
X127743142Y-91554371D02*
X127781237Y-91401990D01*
X127781237Y-91401990D02*
X127857428Y-91325800D01*
X127857428Y-91325800D02*
X127933618Y-91287704D01*
X127933618Y-91287704D02*
X128085999Y-91287704D01*
X128085999Y-91287704D02*
X128162190Y-91325800D01*
X128162190Y-91325800D02*
X128238380Y-91401990D01*
X128238380Y-91401990D02*
X128276476Y-91554371D01*
X128276476Y-91554371D02*
X128276476Y-91821038D01*
X128276476Y-91821038D02*
X128238380Y-91973419D01*
X128238380Y-91973419D02*
X128162190Y-92049609D01*
X128162190Y-92049609D02*
X128085999Y-92087704D01*
X127247904Y-92087704D02*
X127095523Y-92087704D01*
X127095523Y-92087704D02*
X127019333Y-92049609D01*
X127019333Y-92049609D02*
X126943142Y-91973419D01*
X126943142Y-91973419D02*
X126905047Y-91821038D01*
X126905047Y-91821038D02*
X126905047Y-91554371D01*
X126905047Y-91554371D02*
X126943142Y-91401990D01*
X126943142Y-91401990D02*
X127019333Y-91325800D01*
X127019333Y-91325800D02*
X127095523Y-91287704D01*
X127095523Y-91287704D02*
X127247904Y-91287704D01*
X127247904Y-91287704D02*
X127324095Y-91325800D01*
X127324095Y-91325800D02*
X127400285Y-91401990D01*
X127400285Y-91401990D02*
X127438381Y-91554371D01*
X127438381Y-91554371D02*
X127438381Y-91821038D01*
X127438381Y-91821038D02*
X127400285Y-91973419D01*
X127400285Y-91973419D02*
X127324095Y-92049609D01*
X127324095Y-92049609D02*
X127247904Y-92087704D01*
X126676476Y-92087704D02*
X126219333Y-92087704D01*
X126447905Y-91287704D02*
X126447905Y-92087704D01*
%TO.C,R15*%
D12*
X142907100Y-94501942D02*
X142907100Y-94976458D01*
X143952100Y-94501942D02*
X143952100Y-94976458D01*
%TO.C,SW4*%
X124434800Y-78105000D02*
X124434800Y-78895000D01*
X126484800Y-79945000D02*
X126284800Y-79945000D01*
X127984800Y-75805000D02*
X127984800Y-77095000D01*
X127984800Y-75805000D02*
X128184800Y-75595000D01*
X129084800Y-75595000D02*
X128184800Y-75595000D01*
X129284800Y-75805000D02*
X129084800Y-75595000D01*
X129284800Y-77095000D02*
X129284800Y-75805000D01*
X129484800Y-79945000D02*
X127784800Y-79945000D01*
X130734800Y-77095000D02*
X125034800Y-77095000D01*
X131334800Y-78895000D02*
X131334800Y-78105000D01*
%TO.C,D10*%
X149646800Y-89779800D02*
X149646800Y-96329800D01*
X149646800Y-96329800D02*
X150096800Y-96779800D01*
X150096800Y-96779800D02*
X155146800Y-96779800D01*
X151496800Y-90579800D02*
X153296800Y-90579800D01*
X151496800Y-95979800D02*
X153296800Y-95979800D01*
X155146800Y-89779800D02*
X149646800Y-89779800D01*
X155146800Y-89779800D02*
X155146800Y-96779800D01*
%TO.C,D9*%
X156149200Y-89779800D02*
X156149200Y-96329800D01*
X156149200Y-96329800D02*
X156599200Y-96779800D01*
X156599200Y-96779800D02*
X161649200Y-96779800D01*
X157999200Y-90579800D02*
X159799200Y-90579800D01*
X157999200Y-95979800D02*
X159799200Y-95979800D01*
X161649200Y-89779800D02*
X156149200Y-89779800D01*
X161649200Y-89779800D02*
X161649200Y-96779800D01*
%TO.C,D6*%
X146660600Y-90208600D02*
X146660600Y-92893600D01*
X146660600Y-92893600D02*
X148580600Y-92893600D01*
X148580600Y-92893600D02*
X148580600Y-90208600D01*
%TO.C,SW5*%
X137140000Y-80740000D02*
X137140000Y-81050000D01*
X137140000Y-80740000D02*
X145960000Y-80740000D01*
X137140000Y-85260000D02*
X137140000Y-84950000D01*
X143050000Y-85960000D02*
X144050000Y-85960000D01*
X143550000Y-85460000D02*
X143050000Y-85960000D01*
X144050000Y-85960000D02*
X143550000Y-85460000D01*
X145960000Y-80740000D02*
X145960000Y-81050000D01*
X145960000Y-84950000D02*
X145960000Y-85260000D01*
X145960000Y-85260000D02*
X137140000Y-85260000D01*
%TO.C,SW1*%
X124807200Y-113886600D02*
X131267200Y-113886600D01*
X124807200Y-113916600D02*
X124807200Y-113886600D01*
X124807200Y-115816600D02*
X124807200Y-118416600D01*
X124807200Y-120346600D02*
X124807200Y-120316600D01*
X124807200Y-120346600D02*
X131267200Y-120346600D01*
X131267200Y-113886600D02*
X131267200Y-113916600D01*
X131267200Y-115816600D02*
X131267200Y-118416600D01*
X131267200Y-120346600D02*
X131267200Y-120316600D01*
%TO.C,J11*%
X140125135Y-124107356D02*
X140125135Y-126107356D01*
X140125135Y-128007356D02*
X140125135Y-129907356D01*
X140125135Y-129907356D02*
X149525135Y-129907356D01*
X149525135Y-124107356D02*
X149525135Y-126107356D01*
X149525135Y-128007356D02*
X149525135Y-129907356D01*
%TO.C,J15*%
X141084400Y-88956400D02*
X141084400Y-87576400D01*
X142464400Y-88956400D02*
X141084400Y-88956400D01*
X143734400Y-86196400D02*
X146384400Y-86196400D01*
X143734400Y-88956400D02*
X143734400Y-86196400D01*
X143734400Y-88956400D02*
X146384400Y-88956400D01*
X146384400Y-88956400D02*
X146384400Y-86196400D01*
%TO.C,J5*%
X151053200Y-86306400D02*
X151053200Y-81116400D01*
X153813200Y-81116400D02*
X151053200Y-81116400D01*
X153813200Y-86306400D02*
X151053200Y-86306400D01*
X153813200Y-86306400D02*
X153813200Y-81116400D01*
X153813200Y-87576400D02*
X153813200Y-88956400D01*
X153813200Y-88956400D02*
X152433200Y-88956400D01*
%TO.C,R2*%
X157437742Y-119207500D02*
X157912258Y-119207500D01*
X157437742Y-120252500D02*
X157912258Y-120252500D01*
%TO.C,U3*%
X148386800Y-111331100D02*
X152146800Y-111331100D01*
X148386800Y-118151100D02*
X152146800Y-118151100D01*
X152146800Y-111331100D02*
X152146800Y-112591100D01*
X152146800Y-118151100D02*
X152146800Y-116891100D01*
X147106800Y-111431100D02*
X146866800Y-111101100D01*
X147346800Y-111101100D01*
X147106800Y-111431100D01*
G36*
X147106800Y-111431100D02*
G01*
X146866800Y-111101100D01*
X147346800Y-111101100D01*
X147106800Y-111431100D01*
G37*
%TO.C,D3*%
X132782200Y-85946400D02*
X132782200Y-89246400D01*
X132782200Y-85946400D02*
X138292200Y-85946400D01*
X132782200Y-89246400D02*
X138292200Y-89246400D01*
%TO.C,Q2*%
X159702500Y-115734400D02*
X161222500Y-115734400D01*
X159702500Y-115784400D02*
X159702500Y-115734400D01*
X159702500Y-117684400D02*
X159702500Y-116904400D01*
X159702500Y-118854400D02*
X159702500Y-118804400D01*
X161222500Y-115734400D02*
X161222500Y-116734400D01*
X161222500Y-117854400D02*
X161222500Y-118854400D01*
X161222500Y-118854400D02*
X159702500Y-118854400D01*
X159162500Y-116914400D02*
X159402500Y-117244400D01*
X158922500Y-117244400D01*
X159162500Y-116914400D01*
G36*
X159402500Y-117244400D02*
G01*
X158922500Y-117244400D01*
X159162500Y-116914400D01*
X159402500Y-117244400D01*
G37*
%TO.C,R9*%
X155917742Y-112758700D02*
X156392258Y-112758700D01*
X155917742Y-113803700D02*
X156392258Y-113803700D01*
%TO.C,SW2*%
X124456000Y-84287231D02*
X124456000Y-84317231D01*
X124456000Y-88817231D02*
X124456000Y-86217231D01*
X124456000Y-90747231D02*
X124456000Y-90717231D01*
X130916000Y-84287231D02*
X124456000Y-84287231D01*
X130916000Y-84287231D02*
X130916000Y-84317231D01*
X130916000Y-88817231D02*
X130916000Y-86217231D01*
X130916000Y-90717231D02*
X130916000Y-90747231D01*
X130916000Y-90747231D02*
X124456000Y-90747231D01*
%TO.C,R5*%
X148287258Y-97277500D02*
X147812742Y-97277500D01*
X148287258Y-98322500D02*
X147812742Y-98322500D01*
%TO.C,D8*%
X142469600Y-90208600D02*
X142469600Y-92893600D01*
X142469600Y-92893600D02*
X144389600Y-92893600D01*
X144389600Y-92893600D02*
X144389600Y-90208600D01*
%TO.C,SW3*%
X150156400Y-99090800D02*
X150186400Y-99090800D01*
X150156400Y-105550800D02*
X150156400Y-99090800D01*
X150186400Y-105550800D02*
X150156400Y-105550800D01*
X152086400Y-99090800D02*
X154686400Y-99090800D01*
X152086400Y-105550800D02*
X154686400Y-105550800D01*
X156616400Y-99090800D02*
X156586400Y-99090800D01*
X156616400Y-105550800D02*
X156586400Y-105550800D01*
X156616400Y-105550800D02*
X156616400Y-99090800D01*
%TO.C,J7*%
X151677335Y-124094356D02*
X151677335Y-126094356D01*
X151677335Y-127994356D02*
X151677335Y-129894356D01*
X151677335Y-129894356D02*
X161077335Y-129894356D01*
X161077335Y-124094356D02*
X161077335Y-126094356D01*
X161077335Y-127994356D02*
X161077335Y-129894356D01*
%TO.C,J6*%
X147456400Y-86306400D02*
X147456400Y-81116400D01*
X150216400Y-81116400D02*
X147456400Y-81116400D01*
X150216400Y-86306400D02*
X147456400Y-86306400D01*
X150216400Y-86306400D02*
X150216400Y-81116400D01*
X150216400Y-87576400D02*
X150216400Y-88956400D01*
X150216400Y-88956400D02*
X148836400Y-88956400D01*
%TO.C,J3*%
X158170000Y-86310000D02*
X158170000Y-81120000D01*
X160930000Y-81120000D02*
X158170000Y-81120000D01*
X160930000Y-86310000D02*
X158170000Y-86310000D01*
X160930000Y-86310000D02*
X160930000Y-81120000D01*
X160930000Y-87580000D02*
X160930000Y-88960000D01*
X160930000Y-88960000D02*
X159550000Y-88960000D01*
%TO.C,R4*%
X127893458Y-82710500D02*
X127418942Y-82710500D01*
X127893458Y-83755500D02*
X127418942Y-83755500D01*
%TO.C,R7*%
X141154500Y-118962142D02*
X141154500Y-119436658D01*
X142199500Y-118962142D02*
X142199500Y-119436658D01*
%TO.C,U1*%
X156511900Y-108627200D02*
X156961900Y-108627200D01*
X156511900Y-109077200D02*
X156511900Y-108627200D01*
X156511900Y-111847200D02*
X156511900Y-111397200D01*
X156961900Y-111847200D02*
X156511900Y-111847200D01*
X159281900Y-108627200D02*
X159731900Y-108627200D01*
X159731900Y-108627200D02*
X159731900Y-109077200D01*
X159731900Y-111397200D02*
X159731900Y-111847200D01*
X159731900Y-111847200D02*
X159281900Y-111847200D01*
X155981900Y-109487200D02*
X155651900Y-109727200D01*
X155651900Y-109247200D01*
X155981900Y-109487200D01*
G36*
X155981900Y-109487200D02*
G01*
X155651900Y-109727200D01*
X155651900Y-109247200D01*
X155981900Y-109487200D01*
G37*
%TO.C,R11*%
X159981742Y-112758700D02*
X160456258Y-112758700D01*
X159981742Y-113803700D02*
X160456258Y-113803700D01*
%TO.C,C7*%
X147338748Y-118640000D02*
X148761252Y-118640000D01*
X147338748Y-120460000D02*
X148761252Y-120460000D01*
%TO.C,R14*%
X145015300Y-94501942D02*
X145015300Y-94976458D01*
X146060300Y-94501942D02*
X146060300Y-94976458D01*
%TO.C,Q1*%
X155826800Y-115734400D02*
X157346800Y-115734400D01*
X155826800Y-115784400D02*
X155826800Y-115734400D01*
X155826800Y-117684400D02*
X155826800Y-116904400D01*
X155826800Y-118854400D02*
X155826800Y-118804400D01*
X157346800Y-115734400D02*
X157346800Y-116734400D01*
X157346800Y-117854400D02*
X157346800Y-118854400D01*
X157346800Y-118854400D02*
X155826800Y-118854400D01*
X155286800Y-116914400D02*
X155526800Y-117244400D01*
X155046800Y-117244400D01*
X155286800Y-116914400D01*
G36*
X155526800Y-117244400D02*
G01*
X155046800Y-117244400D01*
X155286800Y-116914400D01*
X155526800Y-117244400D01*
G37*
%TO.C,J2*%
X137959400Y-77483400D02*
X139289400Y-77483400D01*
X137959400Y-78813400D02*
X137959400Y-77483400D01*
X140559400Y-77483400D02*
X148239400Y-77483400D01*
X140559400Y-80143400D02*
X140559400Y-77483400D01*
X140559400Y-80143400D02*
X148239400Y-80143400D01*
X148239400Y-80143400D02*
X148239400Y-77483400D01*
%TO.C,J1*%
X149211600Y-77483400D02*
X150541600Y-77483400D01*
X149211600Y-78813400D02*
X149211600Y-77483400D01*
X151811600Y-77483400D02*
X159491600Y-77483400D01*
X151811600Y-80143400D02*
X151811600Y-77483400D01*
X151811600Y-80143400D02*
X159491600Y-80143400D01*
X159491600Y-80143400D02*
X159491600Y-77483400D01*
%TO.C,J4*%
X154620000Y-86306400D02*
X154620000Y-81116400D01*
X157380000Y-81116400D02*
X154620000Y-81116400D01*
X157380000Y-86306400D02*
X154620000Y-86306400D01*
X157380000Y-86306400D02*
X157380000Y-81116400D01*
X157380000Y-87576400D02*
X157380000Y-88956400D01*
X157380000Y-88956400D02*
X156000000Y-88956400D01*
%TO.C,D7*%
X144577800Y-90208600D02*
X144577800Y-92893600D01*
X144577800Y-92893600D02*
X146497800Y-92893600D01*
X146497800Y-92893600D02*
X146497800Y-90208600D01*
%TO.C,D1*%
X133747400Y-113600000D02*
X133747400Y-116900000D01*
X133747400Y-113600000D02*
X139257400Y-113600000D01*
X133747400Y-116900000D02*
X139257400Y-116900000D01*
%TO.C,JP2*%
X145198200Y-102779800D02*
X145198200Y-101379800D01*
X145898200Y-100679800D02*
X146498200Y-100679800D01*
X146498200Y-103479800D02*
X145898200Y-103479800D01*
X147198200Y-101379800D02*
X147198200Y-102779800D01*
X145198200Y-101379800D02*
G75*
G02*
X145898200Y-100679800I700000J0D01*
G01*
X145898200Y-103479800D02*
G75*
G02*
X145198200Y-102779800I-1J699999D01*
G01*
X146498200Y-100679800D02*
G75*
G02*
X147198200Y-101379800I0J-700000D01*
G01*
X147198200Y-102779800D02*
G75*
G02*
X146498200Y-103479800I-699999J-1D01*
G01*
%TO.C,R6*%
X142653100Y-118962142D02*
X142653100Y-119436658D01*
X143698100Y-118962142D02*
X143698100Y-119436658D01*
%TO.C,J10*%
X125432935Y-121304856D02*
X126652935Y-121304856D01*
X125432935Y-128504856D02*
X126652935Y-128504856D01*
X125432935Y-129724856D02*
X125432935Y-121304856D01*
X126652935Y-121304856D02*
X126652935Y-123504856D01*
X126652935Y-123504856D02*
X125432935Y-123504856D01*
X126652935Y-128504856D02*
X126652935Y-123504856D01*
X127722935Y-124504856D02*
X128042935Y-124504856D01*
X127722935Y-127924856D02*
X127722935Y-124504856D01*
X128042935Y-124504856D02*
X128362935Y-124504856D01*
X128042935Y-128004856D02*
X127722935Y-127924856D01*
X128362935Y-124504856D02*
X128362935Y-127924856D01*
X128362935Y-127924856D02*
X128042935Y-128004856D01*
X129372935Y-123504856D02*
X129212935Y-123504856D01*
X130222935Y-124504856D02*
X130542935Y-124504856D01*
X130222935Y-127924856D02*
X130222935Y-124504856D01*
X130542935Y-124504856D02*
X130862935Y-124504856D01*
X130542935Y-128004856D02*
X130222935Y-127924856D01*
X130862935Y-124504856D02*
X130862935Y-127924856D01*
X130862935Y-127924856D02*
X130542935Y-128004856D01*
X131872935Y-123504856D02*
X131712935Y-123504856D01*
X132722935Y-124504856D02*
X133042935Y-124504856D01*
X132722935Y-127924856D02*
X132722935Y-124504856D01*
X133042935Y-124504856D02*
X133362935Y-124504856D01*
X133042935Y-128004856D02*
X132722935Y-127924856D01*
X133362935Y-124504856D02*
X133362935Y-127924856D01*
X133362935Y-127924856D02*
X133042935Y-128004856D01*
X134372935Y-123504856D02*
X134212935Y-123504856D01*
X135222935Y-124504856D02*
X135542935Y-124504856D01*
X135222935Y-127924856D02*
X135222935Y-124504856D01*
X135242935Y-120814856D02*
X135542935Y-121414856D01*
X135542935Y-121414856D02*
X135842935Y-120814856D01*
X135542935Y-124504856D02*
X135862935Y-124504856D01*
X135542935Y-128004856D02*
X135222935Y-127924856D01*
X135842935Y-120814856D02*
X135242935Y-120814856D01*
X135862935Y-124504856D02*
X135862935Y-127924856D01*
X135862935Y-127924856D02*
X135542935Y-128004856D01*
X136932935Y-121304856D02*
X138152935Y-121304856D01*
X136932935Y-123504856D02*
X136932935Y-121304856D01*
X136932935Y-123504856D02*
X138152935Y-123504856D01*
X136932935Y-124504856D02*
X126652935Y-124504856D01*
X136932935Y-128504856D02*
X136932935Y-123504856D01*
X138152935Y-121304856D02*
X138152935Y-129724856D01*
X138152935Y-128504856D02*
X136932935Y-128504856D01*
X138152935Y-129724856D02*
X125432935Y-129724856D01*
%TO.C,R8*%
X155917742Y-114282700D02*
X156392258Y-114282700D01*
X155917742Y-115327700D02*
X156392258Y-115327700D01*
%TO.C,R1*%
X154851058Y-119207500D02*
X154376542Y-119207500D01*
X154851058Y-120252500D02*
X154376542Y-120252500D01*
%TO.C,C10*%
X147315748Y-109055900D02*
X148738252Y-109055900D01*
X147315748Y-110875900D02*
X148738252Y-110875900D01*
%TO.C,R13*%
X147098100Y-94501942D02*
X147098100Y-94976458D01*
X148143100Y-94501942D02*
X148143100Y-94976458D01*
%TO.C,TH2*%
X142675136Y-115647800D02*
X143879264Y-115647800D01*
X142675136Y-117467800D02*
X143879264Y-117467800D01*
%TO.C,D2*%
X133747400Y-117159462D02*
X133747400Y-120459462D01*
X133747400Y-117159462D02*
X139257400Y-117159462D01*
X133747400Y-120459462D02*
X139257400Y-120459462D01*
%TO.C,R12*%
X144271742Y-97277500D02*
X144746258Y-97277500D01*
X144271742Y-98322500D02*
X144746258Y-98322500D01*
%TO.C,U2*%
X115977600Y-93120800D02*
X122177600Y-93120800D01*
X115977600Y-111520800D02*
X115977600Y-93120800D01*
X115977600Y-111520800D02*
X122177600Y-111520800D01*
X140827600Y-111520800D02*
X141827600Y-111520800D01*
X141827600Y-93120800D02*
X140827600Y-93120800D01*
X141827600Y-93120800D02*
X141827600Y-94620800D01*
X141827600Y-111520800D02*
X141827600Y-110020800D01*
X122852600Y-111520800D02*
X122852600Y-112020800D01*
X122352600Y-111520800D01*
X122852600Y-111520800D01*
G36*
X122852600Y-112020800D02*
G01*
X122352600Y-111520800D01*
X122852600Y-111520800D01*
X122852600Y-112020800D01*
G37*
%TO.C,TH1*%
X142675136Y-113361800D02*
X143879264Y-113361800D01*
X142675136Y-115181800D02*
X143879264Y-115181800D01*
%TO.C,R3*%
X129987742Y-112377700D02*
X130462258Y-112377700D01*
X129987742Y-113422700D02*
X130462258Y-113422700D01*
%TO.C,R10*%
X159981742Y-114282700D02*
X160456258Y-114282700D01*
X159981742Y-115327700D02*
X160456258Y-115327700D01*
%TD*%
%LPC*%
%TO.C,JP2*%
G36*
X145448200Y-101929800D02*
G01*
X146948200Y-101929800D01*
X146948200Y-102229800D01*
X145448200Y-102229800D01*
X145448200Y-101929800D01*
G37*
%TD*%
D13*
%TO.C,R15*%
X143429600Y-93914200D03*
X143429600Y-95564200D03*
%TD*%
D14*
%TO.C,SW4*%
X131534800Y-79605000D03*
X131534800Y-77395000D03*
D15*
X129384800Y-78495000D03*
X126384800Y-78495000D03*
D14*
X124234800Y-79605000D03*
X124234800Y-77395000D03*
D16*
X130134800Y-80255000D03*
X127134800Y-80255000D03*
X125634800Y-80255000D03*
%TD*%
D17*
%TO.C,D10*%
X154046800Y-90829800D03*
X150746800Y-90829800D03*
X150746800Y-95729800D03*
X154046800Y-95729800D03*
%TD*%
%TO.C,D9*%
X160549200Y-90829800D03*
X157249200Y-90829800D03*
X157249200Y-95729800D03*
X160549200Y-95729800D03*
%TD*%
D18*
%TO.C,C3*%
X154625000Y-109487200D03*
X155265000Y-109487200D03*
%TD*%
D19*
%TO.C,D6*%
X147620600Y-92146100D03*
X147620600Y-90271100D03*
%TD*%
D20*
%TO.C,SW5*%
X145650000Y-83000000D03*
X137450000Y-83000000D03*
D21*
X143550000Y-83000000D03*
D22*
X141550000Y-83000000D03*
X139550000Y-83000000D03*
%TD*%
D23*
%TO.C,SW1*%
X124057200Y-114866600D03*
X132017200Y-114866600D03*
X124057200Y-119366600D03*
X132017200Y-119366600D03*
%TD*%
D24*
%TO.C,J11*%
X141935135Y-123407356D03*
X147715135Y-123407356D03*
D25*
X141575135Y-121962356D03*
X142375135Y-121962356D03*
D26*
X143575135Y-121962356D03*
X144575135Y-121962356D03*
X145075135Y-121962356D03*
X146075135Y-121962356D03*
D25*
X147275135Y-121962356D03*
X148075135Y-121962356D03*
X148075135Y-121962356D03*
X147275135Y-121962356D03*
D26*
X146575135Y-121962356D03*
X145575135Y-121962356D03*
X144075135Y-121962356D03*
X143075135Y-121962356D03*
D25*
X142375135Y-121962356D03*
X141575135Y-121962356D03*
D27*
X140505135Y-122877356D03*
D28*
X140505135Y-127057356D03*
D27*
X149145135Y-122877356D03*
D28*
X149145135Y-127057356D03*
%TD*%
D18*
%TO.C,C8*%
X151049600Y-118894600D03*
X151689600Y-118894600D03*
%TD*%
D29*
%TO.C,J15*%
X142464400Y-87576400D03*
D30*
X145004400Y-87576400D03*
%TD*%
D29*
%TO.C,J5*%
X152433200Y-87576400D03*
D30*
X152433200Y-85036400D03*
X152433200Y-82496400D03*
%TD*%
D31*
%TO.C,R2*%
X156850000Y-119730000D03*
X158500000Y-119730000D03*
%TD*%
D32*
%TO.C,C1*%
X158161600Y-113601200D03*
X158161600Y-112961200D03*
%TD*%
D33*
%TO.C,U3*%
X147086800Y-112441100D03*
X147086800Y-114741100D03*
D34*
X153386800Y-114741100D03*
D33*
X147086800Y-117041100D03*
%TD*%
D35*
%TO.C,D3*%
X134292200Y-87596400D03*
X138292200Y-87596400D03*
%TD*%
D36*
%TO.C,Q2*%
X159525000Y-116344400D03*
X159525000Y-118244400D03*
X161400000Y-117294400D03*
%TD*%
D31*
%TO.C,R9*%
X155330000Y-113281200D03*
X156980000Y-113281200D03*
%TD*%
D37*
%TO.C,SW2*%
X131666000Y-89767231D03*
X123706000Y-89767231D03*
X131666000Y-85267231D03*
X123706000Y-85267231D03*
%TD*%
D38*
%TO.C,R5*%
X148875000Y-97800000D03*
X147225000Y-97800000D03*
%TD*%
D19*
%TO.C,D8*%
X143429600Y-92146100D03*
X143429600Y-90271100D03*
%TD*%
D39*
%TO.C,SW3*%
X151136400Y-106300800D03*
X151136400Y-98340800D03*
X155636400Y-106300800D03*
X155636400Y-98340800D03*
%TD*%
D24*
%TO.C,J7*%
X153487335Y-123394356D03*
X159267335Y-123394356D03*
D25*
X153127335Y-121949356D03*
X153927335Y-121949356D03*
D26*
X155127335Y-121949356D03*
X156127335Y-121949356D03*
X156627335Y-121949356D03*
X157627335Y-121949356D03*
D25*
X158827335Y-121949356D03*
X159627335Y-121949356D03*
X159627335Y-121949356D03*
X158827335Y-121949356D03*
D26*
X158127335Y-121949356D03*
X157127335Y-121949356D03*
X155627335Y-121949356D03*
X154627335Y-121949356D03*
D25*
X153927335Y-121949356D03*
X153127335Y-121949356D03*
D27*
X152057335Y-122864356D03*
D28*
X152057335Y-127044356D03*
D27*
X160697335Y-122864356D03*
D28*
X160697335Y-127044356D03*
%TD*%
D29*
%TO.C,J6*%
X148836400Y-87576400D03*
D30*
X148836400Y-85036400D03*
X148836400Y-82496400D03*
%TD*%
D29*
%TO.C,J3*%
X159550000Y-87580000D03*
D30*
X159550000Y-85040000D03*
X159550000Y-82500000D03*
%TD*%
D38*
%TO.C,R4*%
X128481200Y-83233000D03*
X126831200Y-83233000D03*
%TD*%
D13*
%TO.C,R7*%
X141677000Y-118374400D03*
X141677000Y-120024400D03*
%TD*%
D40*
%TO.C,U1*%
X156634400Y-109487200D03*
X156634400Y-109987200D03*
X156634400Y-110487200D03*
X156634400Y-110987200D03*
D41*
X157371900Y-111724700D03*
X157871900Y-111724700D03*
X158371900Y-111724700D03*
X158871900Y-111724700D03*
D40*
X159609400Y-110987200D03*
X159609400Y-110487200D03*
X159609400Y-109987200D03*
X159609400Y-109487200D03*
D41*
X158871900Y-108749700D03*
X158371900Y-108749700D03*
X157871900Y-108749700D03*
X157371900Y-108749700D03*
D42*
X158121900Y-110237200D03*
%TD*%
D31*
%TO.C,R11*%
X159394000Y-113281200D03*
X161044000Y-113281200D03*
%TD*%
D43*
%TO.C,C7*%
X146575000Y-119550000D03*
X149525000Y-119550000D03*
%TD*%
D13*
%TO.C,R14*%
X145537800Y-93914200D03*
X145537800Y-95564200D03*
%TD*%
D36*
%TO.C,Q1*%
X155649300Y-116344400D03*
X155649300Y-118244400D03*
X157524300Y-117294400D03*
%TD*%
D29*
%TO.C,J2*%
X139289400Y-78813400D03*
D30*
X141829400Y-78813400D03*
X144369400Y-78813400D03*
X146909400Y-78813400D03*
%TD*%
D29*
%TO.C,J1*%
X150541600Y-78813400D03*
D30*
X153081600Y-78813400D03*
X155621600Y-78813400D03*
X158161600Y-78813400D03*
%TD*%
D29*
%TO.C,J4*%
X156000000Y-87576400D03*
D30*
X156000000Y-85036400D03*
X156000000Y-82496400D03*
%TD*%
D19*
%TO.C,D7*%
X145537800Y-92146100D03*
X145537800Y-90271100D03*
%TD*%
D32*
%TO.C,C6*%
X155647000Y-93599800D03*
X155647000Y-92959800D03*
%TD*%
D35*
%TO.C,D1*%
X135257400Y-115250000D03*
X139257400Y-115250000D03*
%TD*%
D44*
%TO.C,JP2*%
X146198200Y-102729800D03*
D45*
X146198200Y-101429800D03*
%TD*%
D13*
%TO.C,R6*%
X143175600Y-118374400D03*
X143175600Y-120024400D03*
%TD*%
D46*
%TO.C,J10*%
X135542935Y-122914856D03*
D47*
X133042935Y-122914856D03*
X130542935Y-122914856D03*
X128042935Y-122914856D03*
%TD*%
D31*
%TO.C,R8*%
X155330000Y-114805200D03*
X156980000Y-114805200D03*
%TD*%
D38*
%TO.C,R1*%
X155438800Y-119730000D03*
X153788800Y-119730000D03*
%TD*%
D43*
%TO.C,C10*%
X146552000Y-109965900D03*
X149502000Y-109965900D03*
%TD*%
D13*
%TO.C,R13*%
X147620600Y-93914200D03*
X147620600Y-95564200D03*
%TD*%
D48*
%TO.C,TH2*%
X141877200Y-116557800D03*
X144677200Y-116557800D03*
%TD*%
D35*
%TO.C,D2*%
X135257400Y-118809462D03*
X139257400Y-118809462D03*
%TD*%
D31*
%TO.C,R12*%
X143684000Y-97800000D03*
X145334000Y-97800000D03*
%TD*%
D49*
%TO.C,U2*%
X123617600Y-111070800D03*
X124887600Y-111070800D03*
X126157600Y-111070800D03*
X127427600Y-111070800D03*
X128697600Y-111070800D03*
X129967600Y-111070800D03*
X131237600Y-111070800D03*
X132507600Y-111070800D03*
X133777600Y-111070800D03*
X135047600Y-111070800D03*
X136317600Y-111070800D03*
X137587600Y-111070800D03*
X138857600Y-111070800D03*
X140127600Y-111070800D03*
D50*
X141377600Y-109305800D03*
X141377600Y-108035800D03*
X141377600Y-106765800D03*
X141377600Y-105495800D03*
X141377600Y-104225800D03*
X141377600Y-102955800D03*
X141377600Y-101685800D03*
X141377600Y-100415800D03*
X141377600Y-99145800D03*
X141377600Y-97875800D03*
X141377600Y-96605800D03*
X141377600Y-95335800D03*
D49*
X140127600Y-93570800D03*
X138857600Y-93570800D03*
X137587600Y-93570800D03*
X136317600Y-93570800D03*
X135047600Y-93570800D03*
X133777600Y-93570800D03*
X132507600Y-93570800D03*
X131237600Y-93570800D03*
X129967600Y-93570800D03*
X128697600Y-93570800D03*
X127427600Y-93570800D03*
X126157600Y-93570800D03*
X124887600Y-93570800D03*
X123617600Y-93570800D03*
D51*
X130637600Y-105220800D03*
X132037600Y-105220800D03*
X129937600Y-104520800D03*
X131337600Y-104520800D03*
X132737600Y-104520800D03*
X130637600Y-103820800D03*
D52*
X131337600Y-103820800D03*
D51*
X132037600Y-103820800D03*
X129937600Y-103120800D03*
X131337600Y-103120800D03*
X132737600Y-103120800D03*
X130637600Y-102420800D03*
X132037600Y-102420800D03*
%TD*%
D32*
%TO.C,C5*%
X149144600Y-93599800D03*
X149144600Y-92959800D03*
%TD*%
D18*
%TO.C,C9*%
X151049600Y-110563400D03*
X151689600Y-110563400D03*
%TD*%
D48*
%TO.C,TH1*%
X141877200Y-114271800D03*
X144677200Y-114271800D03*
%TD*%
D53*
%TO.C,C2*%
X155265000Y-110487200D03*
X154625000Y-110487200D03*
%TD*%
D31*
%TO.C,R3*%
X129400000Y-112900200D03*
X131050000Y-112900200D03*
%TD*%
D53*
%TO.C,C4*%
X124257200Y-113001800D03*
X123617200Y-113001800D03*
%TD*%
D31*
%TO.C,R10*%
X159394000Y-114805200D03*
X161044000Y-114805200D03*
%TD*%
D29*
%TO.C,J9*%
X212790000Y-108736231D03*
D30*
X210250000Y-108736231D03*
X207710000Y-108736231D03*
X205170000Y-108736231D03*
X202630000Y-108736231D03*
X200090000Y-108736231D03*
X197550000Y-108736231D03*
X195010000Y-108736231D03*
X192470000Y-108736231D03*
X189930000Y-108736231D03*
X187390000Y-108736231D03*
X184850000Y-108736231D03*
X182310000Y-108736231D03*
X179770000Y-108736231D03*
X177230000Y-108736231D03*
X174690000Y-108736231D03*
X172150000Y-108736231D03*
X169610000Y-108736231D03*
X167070000Y-108736231D03*
X164530000Y-108736231D03*
%TD*%
D29*
%TO.C,J8*%
X164530000Y-95855631D03*
D30*
X167070000Y-95855631D03*
X169610000Y-95855631D03*
X172150000Y-95855631D03*
X174690000Y-95855631D03*
X177230000Y-95855631D03*
X179770000Y-95855631D03*
X182310000Y-95855631D03*
X184850000Y-95855631D03*
X187390000Y-95855631D03*
X189930000Y-95855631D03*
X192470000Y-95855631D03*
X195010000Y-95855631D03*
X197550000Y-95855631D03*
X200090000Y-95855631D03*
X202630000Y-95855631D03*
X205170000Y-95855631D03*
X207710000Y-95855631D03*
X210250000Y-95855631D03*
X212790000Y-95855631D03*
%TD*%
D29*
%TO.C,J14*%
X134050000Y-80811000D03*
D30*
X134050000Y-78271000D03*
%TD*%
%LPD*%
M02*
