%TF.GenerationSoftware,KiCad,Pcbnew,10.0.3*%
%TF.CreationDate,2026-09-06T16:40:06+03:00*%
%TF.ProjectId,v1.0,76312e30-2e6b-4696-9361-645f70636258,rev?*%
%TF.SameCoordinates,Original*%
%TF.FileFunction,Paste,Top*%
%TF.FilePolarity,Positive*%
%FSLAX46Y46*%
G04 Gerber Fmt 4.6, Leading zero omitted, Abs format (unit mm)*
G04 Created by KiCad (PCBNEW 10.0.3) date 2026-09-06 16:40:06*
%MOMM*%
%LPD*%
G01*
G04 APERTURE LIST*
G04 Aperture macros list*
%AMRoundRect*
0 Rectangle with rounded corners*
0 $1 Rounding radius*
0 $2 $3 $4 $5 $6 $7 $8 $9 X,Y pos of 4 corners*
0 Add a 4 corners polygon primitive as box body*
4,1,4,$2,$3,$4,$5,$6,$7,$8,$9,$2,$3,0*
0 Add four circle primitives for the rounded corners*
1,1,$1+$1,$2,$3*
1,1,$1+$1,$4,$5*
1,1,$1+$1,$6,$7*
1,1,$1+$1,$8,$9*
0 Add four rect primitives between the rounded corners*
20,1,$1+$1,$2,$3,$4,$5,0*
20,1,$1+$1,$4,$5,$6,$7,0*
20,1,$1+$1,$6,$7,$8,$9,0*
20,1,$1+$1,$8,$9,$2,$3,0*%
G04 Aperture macros list end*
%ADD10RoundRect,0.200000X-0.275000X0.200000X-0.275000X-0.200000X0.275000X-0.200000X0.275000X0.200000X0*%
%ADD11R,1.000000X0.800000*%
%ADD12R,0.700000X1.500000*%
%ADD13RoundRect,0.090000X-0.360000X0.660000X-0.360000X-0.660000X0.360000X-0.660000X0.360000X0.660000X0*%
%ADD14RoundRect,0.079500X-0.079500X-0.100500X0.079500X-0.100500X0.079500X0.100500X-0.079500X0.100500X0*%
%ADD15RoundRect,0.243750X0.456250X-0.243750X0.456250X0.243750X-0.456250X0.243750X-0.456250X-0.243750X0*%
%ADD16RoundRect,0.250000X-0.525000X-0.400000X0.525000X-0.400000X0.525000X0.400000X-0.525000X0.400000X0*%
%ADD17RoundRect,0.150000X-0.150000X-0.575000X0.150000X-0.575000X0.150000X0.575000X-0.150000X0.575000X0*%
%ADD18RoundRect,0.075000X-0.075000X-0.650000X0.075000X-0.650000X0.075000X0.650000X-0.075000X0.650000X0*%
%ADD19RoundRect,0.200000X-0.200000X-0.275000X0.200000X-0.275000X0.200000X0.275000X-0.200000X0.275000X0*%
%ADD20RoundRect,0.079500X0.100500X-0.079500X0.100500X0.079500X-0.100500X0.079500X-0.100500X-0.079500X0*%
%ADD21RoundRect,0.375000X-0.625000X-0.375000X0.625000X-0.375000X0.625000X0.375000X-0.625000X0.375000X0*%
%ADD22RoundRect,0.500000X-0.500000X-1.400000X0.500000X-1.400000X0.500000X1.400000X-0.500000X1.400000X0*%
%ADD23RoundRect,0.250000X-1.000000X-0.650000X1.000000X-0.650000X1.000000X0.650000X-1.000000X0.650000X0*%
%ADD24RoundRect,0.150000X-0.587500X-0.150000X0.587500X-0.150000X0.587500X0.150000X-0.587500X0.150000X0*%
%ADD25RoundRect,0.250000X0.525000X0.400000X-0.525000X0.400000X-0.525000X-0.400000X0.525000X-0.400000X0*%
%ADD26RoundRect,0.200000X0.200000X0.275000X-0.200000X0.275000X-0.200000X-0.275000X0.200000X-0.275000X0*%
%ADD27RoundRect,0.250000X0.400000X-0.525000X0.400000X0.525000X-0.400000X0.525000X-0.400000X-0.525000X0*%
%ADD28RoundRect,0.182500X-0.182500X-0.182500X0.182500X-0.182500X0.182500X0.182500X-0.182500X0.182500X0*%
%ADD29RoundRect,0.075000X-0.312500X-0.075000X0.312500X-0.075000X0.312500X0.075000X-0.312500X0.075000X0*%
%ADD30RoundRect,0.075000X-0.075000X-0.312500X0.075000X-0.312500X0.075000X0.312500X-0.075000X0.312500X0*%
%ADD31RoundRect,0.250000X-0.325000X-0.650000X0.325000X-0.650000X0.325000X0.650000X-0.325000X0.650000X0*%
%ADD32RoundRect,0.250000X-0.375000X-0.625000X0.375000X-0.625000X0.375000X0.625000X-0.375000X0.625000X0*%
%ADD33R,0.900000X0.900000*%
%ADD34R,0.900000X1.500000*%
%ADD35R,1.500000X0.900000*%
%ADD36RoundRect,0.079500X0.079500X0.100500X-0.079500X0.100500X-0.079500X-0.100500X0.079500X-0.100500X0*%
G04 APERTURE END LIST*
D10*
%TO.C,R15*%
X143429600Y-93914200D03*
X143429600Y-95564200D03*
%TD*%
D11*
%TO.C,SW4*%
X131534800Y-79605000D03*
X131534800Y-77395000D03*
X124234800Y-79605000D03*
X124234800Y-77395000D03*
D12*
X130134800Y-80255000D03*
X127134800Y-80255000D03*
X125634800Y-80255000D03*
%TD*%
D13*
%TO.C,D10*%
X154046800Y-90829800D03*
X150746800Y-90829800D03*
X150746800Y-95729800D03*
X154046800Y-95729800D03*
%TD*%
%TO.C,D9*%
X160549200Y-90829800D03*
X157249200Y-90829800D03*
X157249200Y-95729800D03*
X160549200Y-95729800D03*
%TD*%
D14*
%TO.C,C3*%
X154600000Y-109487200D03*
X155290000Y-109487200D03*
%TD*%
D15*
%TO.C,D6*%
X147620600Y-92146100D03*
X147620600Y-90271100D03*
%TD*%
D16*
%TO.C,SW1*%
X124057200Y-114866600D03*
X132017200Y-114866600D03*
X124057200Y-119366600D03*
X132017200Y-119366600D03*
%TD*%
D17*
%TO.C,J11*%
X141575135Y-121962356D03*
X142375135Y-121962356D03*
D18*
X143575135Y-121962356D03*
X144575135Y-121962356D03*
X145075135Y-121962356D03*
X146075135Y-121962356D03*
D17*
X147275135Y-121962356D03*
X148075135Y-121962356D03*
X148075135Y-121962356D03*
X147275135Y-121962356D03*
D18*
X146575135Y-121962356D03*
X145575135Y-121962356D03*
X144075135Y-121962356D03*
X143075135Y-121962356D03*
D17*
X142375135Y-121962356D03*
X141575135Y-121962356D03*
%TD*%
D14*
%TO.C,C8*%
X151024600Y-118894600D03*
X151714600Y-118894600D03*
%TD*%
D19*
%TO.C,R2*%
X156850000Y-119730000D03*
X158500000Y-119730000D03*
%TD*%
D20*
%TO.C,C1*%
X158161600Y-113626200D03*
X158161600Y-112936200D03*
%TD*%
D21*
%TO.C,U3*%
X147086800Y-112441100D03*
X147086800Y-114741100D03*
D22*
X153386800Y-114741100D03*
D21*
X147086800Y-117041100D03*
%TD*%
D23*
%TO.C,D3*%
X134292200Y-87596400D03*
X138292200Y-87596400D03*
%TD*%
D24*
%TO.C,Q2*%
X159525000Y-116344400D03*
X159525000Y-118244400D03*
X161400000Y-117294400D03*
%TD*%
D19*
%TO.C,R9*%
X155330000Y-113281200D03*
X156980000Y-113281200D03*
%TD*%
D25*
%TO.C,SW2*%
X131666000Y-89767231D03*
X123706000Y-89767231D03*
X131666000Y-85267231D03*
X123706000Y-85267231D03*
%TD*%
D26*
%TO.C,R5*%
X148875000Y-97800000D03*
X147225000Y-97800000D03*
%TD*%
D15*
%TO.C,D8*%
X143429600Y-92146100D03*
X143429600Y-90271100D03*
%TD*%
D27*
%TO.C,SW3*%
X151136400Y-106300800D03*
X151136400Y-98340800D03*
X155636400Y-106300800D03*
X155636400Y-98340800D03*
%TD*%
D17*
%TO.C,J7*%
X153127335Y-121949356D03*
X153927335Y-121949356D03*
D18*
X155127335Y-121949356D03*
X156127335Y-121949356D03*
X156627335Y-121949356D03*
X157627335Y-121949356D03*
D17*
X158827335Y-121949356D03*
X159627335Y-121949356D03*
X159627335Y-121949356D03*
X158827335Y-121949356D03*
D18*
X158127335Y-121949356D03*
X157127335Y-121949356D03*
X155627335Y-121949356D03*
X154627335Y-121949356D03*
D17*
X153927335Y-121949356D03*
X153127335Y-121949356D03*
%TD*%
D26*
%TO.C,R4*%
X128481200Y-83233000D03*
X126831200Y-83233000D03*
%TD*%
D10*
%TO.C,R7*%
X141677000Y-118374400D03*
X141677000Y-120024400D03*
%TD*%
D28*
%TO.C,U1*%
X157671900Y-109787200D03*
X157671900Y-110687200D03*
X158571900Y-109787200D03*
X158571900Y-110687200D03*
D29*
X156634400Y-109487200D03*
X156634400Y-109987200D03*
X156634400Y-110487200D03*
X156634400Y-110987200D03*
D30*
X157371900Y-111724700D03*
X157871900Y-111724700D03*
X158371900Y-111724700D03*
X158871900Y-111724700D03*
D29*
X159609400Y-110987200D03*
X159609400Y-110487200D03*
X159609400Y-109987200D03*
X159609400Y-109487200D03*
D30*
X158871900Y-108749700D03*
X158371900Y-108749700D03*
X157871900Y-108749700D03*
X157371900Y-108749700D03*
%TD*%
D19*
%TO.C,R11*%
X159394000Y-113281200D03*
X161044000Y-113281200D03*
%TD*%
D31*
%TO.C,C7*%
X146575000Y-119550000D03*
X149525000Y-119550000D03*
%TD*%
D10*
%TO.C,R14*%
X145537800Y-93914200D03*
X145537800Y-95564200D03*
%TD*%
D24*
%TO.C,Q1*%
X155649300Y-116344400D03*
X155649300Y-118244400D03*
X157524300Y-117294400D03*
%TD*%
D15*
%TO.C,D7*%
X145537800Y-92146100D03*
X145537800Y-90271100D03*
%TD*%
D20*
%TO.C,C6*%
X155647000Y-93624800D03*
X155647000Y-92934800D03*
%TD*%
D23*
%TO.C,D1*%
X135257400Y-115250000D03*
X139257400Y-115250000D03*
%TD*%
D10*
%TO.C,R6*%
X143175600Y-118374400D03*
X143175600Y-120024400D03*
%TD*%
D19*
%TO.C,R8*%
X155330000Y-114805200D03*
X156980000Y-114805200D03*
%TD*%
D26*
%TO.C,R1*%
X155438800Y-119730000D03*
X153788800Y-119730000D03*
%TD*%
D31*
%TO.C,C10*%
X146552000Y-109965900D03*
X149502000Y-109965900D03*
%TD*%
D10*
%TO.C,R13*%
X147620600Y-93914200D03*
X147620600Y-95564200D03*
%TD*%
D32*
%TO.C,TH2*%
X141877200Y-116557800D03*
X144677200Y-116557800D03*
%TD*%
D23*
%TO.C,D2*%
X135257400Y-118809462D03*
X139257400Y-118809462D03*
%TD*%
D19*
%TO.C,R12*%
X143684000Y-97800000D03*
X145334000Y-97800000D03*
%TD*%
D33*
%TO.C,U2*%
X129937600Y-105220800D03*
X131337600Y-105220800D03*
X132737600Y-105220800D03*
X129937600Y-103820800D03*
X131337600Y-103820800D03*
X132737600Y-103820800D03*
X129937600Y-102420800D03*
X131337600Y-102420800D03*
X132737600Y-102420800D03*
D34*
X123617600Y-111070800D03*
X124887600Y-111070800D03*
X126157600Y-111070800D03*
X127427600Y-111070800D03*
X128697600Y-111070800D03*
X129967600Y-111070800D03*
X131237600Y-111070800D03*
X132507600Y-111070800D03*
X133777600Y-111070800D03*
X135047600Y-111070800D03*
X136317600Y-111070800D03*
X137587600Y-111070800D03*
X138857600Y-111070800D03*
X140127600Y-111070800D03*
D35*
X141377600Y-109305800D03*
X141377600Y-108035800D03*
X141377600Y-106765800D03*
X141377600Y-105495800D03*
X141377600Y-104225800D03*
X141377600Y-102955800D03*
X141377600Y-101685800D03*
X141377600Y-100415800D03*
X141377600Y-99145800D03*
X141377600Y-97875800D03*
X141377600Y-96605800D03*
X141377600Y-95335800D03*
D34*
X140127600Y-93570800D03*
X138857600Y-93570800D03*
X137587600Y-93570800D03*
X136317600Y-93570800D03*
X135047600Y-93570800D03*
X133777600Y-93570800D03*
X132507600Y-93570800D03*
X131237600Y-93570800D03*
X129967600Y-93570800D03*
X128697600Y-93570800D03*
X127427600Y-93570800D03*
X126157600Y-93570800D03*
X124887600Y-93570800D03*
X123617600Y-93570800D03*
%TD*%
D20*
%TO.C,C5*%
X149144600Y-93624800D03*
X149144600Y-92934800D03*
%TD*%
D14*
%TO.C,C9*%
X151024600Y-110563400D03*
X151714600Y-110563400D03*
%TD*%
D32*
%TO.C,TH1*%
X141877200Y-114271800D03*
X144677200Y-114271800D03*
%TD*%
D36*
%TO.C,C2*%
X155290000Y-110487200D03*
X154600000Y-110487200D03*
%TD*%
D19*
%TO.C,R3*%
X129400000Y-112900200D03*
X131050000Y-112900200D03*
%TD*%
D36*
%TO.C,C4*%
X124282200Y-113001800D03*
X123592200Y-113001800D03*
%TD*%
D19*
%TO.C,R10*%
X159394000Y-114805200D03*
X161044000Y-114805200D03*
%TD*%
M02*
