M48
; DRILL file KiCad 10.0.3 date 2026-09-07T19:32:30
; FORMAT={-:-/ absolute / metric / decimal}
; #@! TF.CreationDate,2026-09-07T19:32:30+03:00
; #@! TF.GenerationSoftware,Kicad,Pcbnew,10.0.3
; #@! TF.FileFunction,MixedPlating,1,4
FMAT,2
METRIC
; #@! TA.AperFunction,Plated,PTH,ViaDrill
T1C0.200
; #@! TA.AperFunction,Plated,PTH,ComponentDrill
T2C0.200
; #@! TA.AperFunction,Plated,PTH,ViaDrill
T3C0.300
; #@! TA.AperFunction,Plated,PTH,ComponentDrill
T4C0.600
; #@! TA.AperFunction,Plated,PTH,ComponentDrill
T5C0.800
; #@! TA.AperFunction,Plated,PTH,ComponentDrill
T6C0.950
; #@! TA.AperFunction,Plated,PTH,ComponentDrill
T7C1.000
; #@! TA.AperFunction,Plated,PTH,ComponentDrill
T8C1.500
; #@! TA.AperFunction,NonPlated,NPTH,ComponentDrill
T9C0.650
; #@! TA.AperFunction,NonPlated,NPTH,ComponentDrill
T10C0.900
%
G90
G05
T1
X124.7Y-92.15
X125.192Y-90.95
X126.75Y-97.25
X127.05Y-108.0
X127.425Y-95.575
X127.75Y-108.2
X128.325Y-91.925
X129.05Y-97.15
X129.864Y-107.15
X130.3Y-99.4
X130.55Y-97.65
X131.15Y-107.15
X131.2Y-108.4
X131.25Y-113.65
X131.347Y-95.103
X131.844Y-112.159
X133.092Y-96.162
X133.15Y-113.55
X133.778Y-96.644
X134.05Y-109.65
X134.65Y-108.6
X134.95Y-100.55
X135.048Y-97.1
X135.45Y-103.15
X135.75Y-102.15
X135.8Y-104.85
X136.173Y-91.023
X136.2Y-105.25
X136.55Y-109.65
X136.7Y-101.3
X137.309Y-105.75
X137.55Y-109.65
X137.972Y-108.528
X138.925Y-108.525
X139.204Y-90.583
X139.55Y-98.65
X139.9Y-108.5
X140.1Y-107.05
X140.95Y-110.65
X141.05Y-92.15
X141.05Y-110.15
X141.25Y-94.15
X141.6Y-112.65
X142.55Y-106.15
X142.6Y-109.05
X142.7Y-98.15
X142.934Y-106.766
X143.5Y-107.5
X143.55Y-102.15
X144.0Y-107.0
X145.05Y-108.65
X145.4Y-99.4
X145.9Y-105.8
X147.955Y-102.089
X148.51Y-116.38
X149.3Y-106.9
X149.4Y-114.1
X149.8Y-98.15
X150.186Y-116.244
X150.799Y-93.249
X150.8Y-114.45
X150.9Y-108.65
X151.532Y-114.2
X151.55Y-109.15
X152.0Y-91.5
X152.278Y-105.922
X152.5Y-90.5
X153.289Y-109.05
X153.361Y-110.716
X154.05Y-98.65
X154.05Y-106.65
X154.8Y-115.6
X154.809Y-111.006
X155.241Y-108.887
X155.291Y-111.706
X155.354Y-123.733
X156.137Y-113.213
X156.561Y-123.467
X156.747Y-106.18
X156.886Y-111.611
X157.5Y-116.7
X157.55Y-114.551
X157.78Y-113.504
X157.9Y-115.9
X158.95Y-94.13
X158.962Y-117.645
X159.0Y-107.146
X159.259Y-108.901
X159.35Y-114.156
X159.686Y-117.142
X159.771Y-113.684
X159.794Y-112.341
X160.3Y-110.987
X160.85Y-119.809
X161.05Y-115.999
X161.964Y-114.85
X162.683Y-95.347
X174.5Y-97.5
X177.0Y-98.0
X179.0Y-98.0
X180.0Y-107.5
X182.0Y-98.0
X182.5Y-107.5
X185.0Y-107.5
X189.5Y-97.5
X192.0Y-98.0
X193.0Y-107.5
X194.5Y-98.0
X195.5Y-107.5
X196.5Y-98.5
X198.0Y-107.5
X198.5Y-100.5
X200.5Y-107.5
X201.5Y-101.0
X203.0Y-102.5
X203.0Y-107.5
X206.0Y-102.0
X208.28Y-103.55
T2
X129.938Y-103.121
X129.938Y-104.521
X130.638Y-102.421
X130.638Y-103.821
X130.638Y-105.221
X131.338Y-103.121
X131.338Y-104.521
X132.038Y-102.421
X132.038Y-103.821
X132.038Y-105.221
X132.738Y-103.121
X132.738Y-104.521
T3
X123.3Y-106.6
X123.4Y-92.25
X125.116Y-108.836
X126.35Y-107.2
X126.85Y-109.4
X128.345Y-80.086
X128.901Y-117.193
X129.2Y-90.05
X129.282Y-87.602
X129.95Y-83.5
X133.45Y-90.55
X133.55Y-85.15
X133.828Y-108.43
X134.35Y-97.9
X135.14Y-85.256
X135.55Y-83.6
X135.759Y-113.662
X137.3Y-91.1
X137.75Y-106.75
X138.324Y-99.667
X139.01Y-89.456
X139.35Y-102.35
X142.402Y-120.764
X142.55Y-119.15
X143.7Y-110.45
X144.674Y-112.506
X144.674Y-118.336
X145.03Y-109.801
X145.106Y-119.606
X146.636Y-91.336
X147.4Y-102.73
X147.57Y-120.82
X147.748Y-101.419
X148.85Y-94.45
X149.3Y-116.234
X149.5Y-91.0
X150.65Y-122.9
X151.024Y-121.104
X151.45Y-94.65
X152.497Y-93.545
X154.0Y-89.15
X156.03Y-94.97
X156.45Y-89.55
X157.0Y-93.25
X157.3Y-118.529
X158.8Y-90.9
X159.474Y-120.063
X161.75Y-109.0
X161.925Y-108.0
X175.1Y-107.5
T5
X139.55Y-83.0
X141.55Y-83.0
X143.55Y-83.0
T6
X128.043Y-122.915
X130.543Y-122.915
X133.043Y-122.915
X135.543Y-122.915
T7
X134.05Y-78.271
X134.05Y-80.811
X139.289Y-78.813
X141.829Y-78.813
X142.464Y-87.576
X144.369Y-78.813
X145.004Y-87.576
X146.909Y-78.813
X148.836Y-82.496
X148.836Y-85.036
X148.836Y-87.576
X150.542Y-78.813
X152.433Y-82.496
X152.433Y-85.036
X152.433Y-87.576
X153.082Y-78.813
X155.622Y-78.813
X156.0Y-82.496
X156.0Y-85.036
X156.0Y-87.576
X158.162Y-78.813
X159.55Y-82.5
X159.55Y-85.04
X159.55Y-87.58
X164.53Y-95.856
X164.53Y-108.736
X167.07Y-95.856
X167.07Y-108.736
X169.61Y-95.856
X169.61Y-108.736
X172.15Y-95.856
X172.15Y-108.736
X174.69Y-95.856
X174.69Y-108.736
X177.23Y-95.856
X177.23Y-108.736
X179.77Y-95.856
X179.77Y-108.736
X182.31Y-95.856
X182.31Y-108.736
X184.85Y-95.856
X184.85Y-108.736
X187.39Y-95.856
X187.39Y-108.736
X189.93Y-95.856
X189.93Y-108.736
X192.47Y-95.856
X192.47Y-108.736
X195.01Y-95.856
X195.01Y-108.736
X197.55Y-95.856
X197.55Y-108.736
X200.09Y-95.856
X200.09Y-108.736
X202.63Y-95.856
X202.63Y-108.736
X205.17Y-95.856
X205.17Y-108.736
X207.71Y-95.856
X207.71Y-108.736
X210.25Y-95.856
X210.25Y-108.736
X212.79Y-95.856
X212.79Y-108.736
T8
X137.45Y-83.0
X145.65Y-83.0
T9
X141.935Y-123.407
X147.715Y-123.407
X153.487Y-123.394
X159.267Y-123.394
T10
X126.385Y-78.495
X129.385Y-78.495
T4
X140.505Y-122.327G85X140.505Y-123.427
G05
X140.505Y-126.757G85X140.505Y-127.357
G05
X149.145Y-122.327G85X149.145Y-123.427
G05
X149.145Y-126.757G85X149.145Y-127.357
G05
X152.057Y-122.314G85X152.057Y-123.414
G05
X152.057Y-126.744G85X152.057Y-127.344
G05
X160.697Y-122.314G85X160.697Y-123.414
G05
X160.697Y-126.744G85X160.697Y-127.344
G05
M30
