%TF.GenerationSoftware,KiCad,Pcbnew,10.0.3*%
%TF.CreationDate,2026-09-06T17:05:21+03:00*%
%TF.ProjectId,v1.0,76312e30-2e6b-4696-9361-645f70636258,rev?*%
%TF.SameCoordinates,Original*%
%TF.FileFunction,Soldermask,Top*%
%TF.FilePolarity,Negative*%
%FSLAX46Y46*%
G04 Gerber Fmt 4.6, Leading zero omitted, Abs format (unit mm)*
G04 Created by KiCad (PCBNEW 10.0.3) date 2026-09-06 17:05:21*
%MOMM*%
%LPD*%
G01*
G04 APERTURE LIST*
G04 Aperture macros list*
%AMRoundRect*
0 Rectangle with rounded corners*
0 $1 Rounding radius*
0 $2 $3 $4 $5 $6 $7 $8 $9 X,Y pos of 4 corners*
0 Add a 4 corners polygon primitive as box body*
4,1,4,$2,$3,$4,$5,$6,$7,$8,$9,$2,$3,0*
0 Add four circle primitives for the rounded corners*
1,1,$1+$1,$2,$3*
1,1,$1+$1,$4,$5*
1,1,$1+$1,$6,$7*
1,1,$1+$1,$8,$9*
0 Add four rect primitives between the rounded corners*
20,1,$1+$1,$2,$3,$4,$5,0*
20,1,$1+$1,$4,$5,$6,$7,0*
20,1,$1+$1,$6,$7,$8,$9,0*
20,1,$1+$1,$8,$9,$2,$3,0*%
%AMFreePoly0*
4,1,23,0.500000,-0.750000,0.000000,-0.750000,0.000000,-0.745722,-0.065263,-0.745722,-0.191342,-0.711940,-0.304381,-0.646677,-0.396677,-0.554381,-0.461940,-0.441342,-0.495722,-0.315263,-0.495722,-0.250000,-0.500000,-0.250000,-0.500000,0.250000,-0.495722,0.250000,-0.495722,0.315263,-0.461940,0.441342,-0.396677,0.554381,-0.304381,0.646677,-0.191342,0.711940,-0.065263,0.745722,0.000000,0.745722,
0.000000,0.750000,0.500000,0.750000,0.500000,-0.750000,0.500000,-0.750000,$1*%
%AMFreePoly1*
4,1,23,0.000000,0.745722,0.065263,0.745722,0.191342,0.711940,0.304381,0.646677,0.396677,0.554381,0.461940,0.441342,0.495722,0.315263,0.495722,0.250000,0.500000,0.250000,0.500000,-0.250000,0.495722,-0.250000,0.495722,-0.315263,0.461940,-0.441342,0.396677,-0.554381,0.304381,-0.646677,0.191342,-0.711940,0.065263,-0.745722,0.000000,-0.745722,0.000000,-0.750000,-0.500000,-0.750000,
-0.500000,0.750000,0.000000,0.750000,0.000000,0.745722,0.000000,0.745722,$1*%
G04 Aperture macros list end*
%ADD10RoundRect,0.200000X-0.275000X0.200000X-0.275000X-0.200000X0.275000X-0.200000X0.275000X0.200000X0*%
%ADD11R,1.000000X0.800000*%
%ADD12C,0.900000*%
%ADD13R,0.700000X1.500000*%
%ADD14RoundRect,0.090000X-0.360000X0.660000X-0.360000X-0.660000X0.360000X-0.660000X0.360000X0.660000X0*%
%ADD15RoundRect,0.100000X-0.130000X-0.100000X0.130000X-0.100000X0.130000X0.100000X-0.130000X0.100000X0*%
%ADD16RoundRect,0.243750X0.456250X-0.243750X0.456250X0.243750X-0.456250X0.243750X-0.456250X-0.243750X0*%
%ADD17O,2.200000X3.500000*%
%ADD18R,1.500000X2.500000*%
%ADD19O,1.500000X2.500000*%
%ADD20RoundRect,0.250000X-0.525000X-0.400000X0.525000X-0.400000X0.525000X0.400000X-0.525000X0.400000X0*%
%ADD21C,0.650000*%
%ADD22RoundRect,0.150000X-0.150000X-0.575000X0.150000X-0.575000X0.150000X0.575000X-0.150000X0.575000X0*%
%ADD23RoundRect,0.075000X-0.075000X-0.650000X0.075000X-0.650000X0.075000X0.650000X-0.075000X0.650000X0*%
%ADD24O,1.000000X2.100000*%
%ADD25O,1.000000X1.600000*%
%ADD26R,1.700000X1.700000*%
%ADD27C,1.700000*%
%ADD28RoundRect,0.200000X-0.200000X-0.275000X0.200000X-0.275000X0.200000X0.275000X-0.200000X0.275000X0*%
%ADD29RoundRect,0.100000X0.100000X-0.130000X0.100000X0.130000X-0.100000X0.130000X-0.100000X-0.130000X0*%
%ADD30RoundRect,0.375000X-0.625000X-0.375000X0.625000X-0.375000X0.625000X0.375000X-0.625000X0.375000X0*%
%ADD31RoundRect,0.500000X-0.500000X-1.400000X0.500000X-1.400000X0.500000X1.400000X-0.500000X1.400000X0*%
%ADD32RoundRect,0.250000X-1.000000X-0.650000X1.000000X-0.650000X1.000000X0.650000X-1.000000X0.650000X0*%
%ADD33RoundRect,0.150000X-0.587500X-0.150000X0.587500X-0.150000X0.587500X0.150000X-0.587500X0.150000X0*%
%ADD34RoundRect,0.250000X0.525000X0.400000X-0.525000X0.400000X-0.525000X-0.400000X0.525000X-0.400000X0*%
%ADD35RoundRect,0.200000X0.200000X0.275000X-0.200000X0.275000X-0.200000X-0.275000X0.200000X-0.275000X0*%
%ADD36RoundRect,0.250000X0.400000X-0.525000X0.400000X0.525000X-0.400000X0.525000X-0.400000X-0.525000X0*%
%ADD37RoundRect,0.075000X-0.312500X-0.075000X0.312500X-0.075000X0.312500X0.075000X-0.312500X0.075000X0*%
%ADD38RoundRect,0.075000X-0.075000X-0.312500X0.075000X-0.312500X0.075000X0.312500X-0.075000X0.312500X0*%
%ADD39R,1.800000X1.800000*%
%ADD40RoundRect,0.250000X-0.325000X-0.650000X0.325000X-0.650000X0.325000X0.650000X-0.325000X0.650000X0*%
%ADD41FreePoly0,90.000000*%
%ADD42FreePoly1,90.000000*%
%ADD43RoundRect,0.250000X0.600000X0.725000X-0.600000X0.725000X-0.600000X-0.725000X0.600000X-0.725000X0*%
%ADD44O,1.700000X1.950000*%
%ADD45RoundRect,0.250000X-0.375000X-0.625000X0.375000X-0.625000X0.375000X0.625000X-0.375000X0.625000X0*%
%ADD46R,0.900000X1.500000*%
%ADD47R,1.500000X0.900000*%
%ADD48C,0.600000*%
%ADD49R,3.900000X3.900000*%
%ADD50RoundRect,0.100000X0.130000X0.100000X-0.130000X0.100000X-0.130000X-0.100000X0.130000X-0.100000X0*%
G04 APERTURE END LIST*
%TO.C,JP2*%
G36*
X145448200Y-101929800D02*
G01*
X146948200Y-101929800D01*
X146948200Y-102229800D01*
X145448200Y-102229800D01*
X145448200Y-101929800D01*
G37*
%TD*%
D10*
%TO.C,R15*%
X143429600Y-93914200D03*
X143429600Y-95564200D03*
%TD*%
D11*
%TO.C,SW4*%
X131534800Y-79605000D03*
X131534800Y-77395000D03*
D12*
X129384800Y-78495000D03*
X126384800Y-78495000D03*
D11*
X124234800Y-79605000D03*
X124234800Y-77395000D03*
D13*
X130134800Y-80255000D03*
X127134800Y-80255000D03*
X125634800Y-80255000D03*
%TD*%
D14*
%TO.C,D10*%
X154046800Y-90829800D03*
X150746800Y-90829800D03*
X150746800Y-95729800D03*
X154046800Y-95729800D03*
%TD*%
%TO.C,D9*%
X160549200Y-90829800D03*
X157249200Y-90829800D03*
X157249200Y-95729800D03*
X160549200Y-95729800D03*
%TD*%
D15*
%TO.C,C3*%
X154625000Y-109487200D03*
X155265000Y-109487200D03*
%TD*%
D16*
%TO.C,D6*%
X147620600Y-92146100D03*
X147620600Y-90271100D03*
%TD*%
D17*
%TO.C,SW5*%
X145650000Y-83000000D03*
X137450000Y-83000000D03*
D18*
X143550000Y-83000000D03*
D19*
X141550000Y-83000000D03*
X139550000Y-83000000D03*
%TD*%
D20*
%TO.C,SW1*%
X124057200Y-114866600D03*
X132017200Y-114866600D03*
X124057200Y-119366600D03*
X132017200Y-119366600D03*
%TD*%
D21*
%TO.C,J11*%
X141935135Y-123407356D03*
X147715135Y-123407356D03*
D22*
X141575135Y-121962356D03*
X142375135Y-121962356D03*
D23*
X143575135Y-121962356D03*
X144575135Y-121962356D03*
X145075135Y-121962356D03*
X146075135Y-121962356D03*
D22*
X147275135Y-121962356D03*
X148075135Y-121962356D03*
X148075135Y-121962356D03*
X147275135Y-121962356D03*
D23*
X146575135Y-121962356D03*
X145575135Y-121962356D03*
X144075135Y-121962356D03*
X143075135Y-121962356D03*
D22*
X142375135Y-121962356D03*
X141575135Y-121962356D03*
D24*
X140505135Y-122877356D03*
D25*
X140505135Y-127057356D03*
D24*
X149145135Y-122877356D03*
D25*
X149145135Y-127057356D03*
%TD*%
D15*
%TO.C,C8*%
X151049600Y-118894600D03*
X151689600Y-118894600D03*
%TD*%
D26*
%TO.C,J15*%
X142464400Y-87576400D03*
D27*
X145004400Y-87576400D03*
%TD*%
D26*
%TO.C,J5*%
X152433200Y-87576400D03*
D27*
X152433200Y-85036400D03*
X152433200Y-82496400D03*
%TD*%
D28*
%TO.C,R2*%
X156850000Y-119730000D03*
X158500000Y-119730000D03*
%TD*%
D29*
%TO.C,C1*%
X158161600Y-113601200D03*
X158161600Y-112961200D03*
%TD*%
D30*
%TO.C,U3*%
X147086800Y-112441100D03*
X147086800Y-114741100D03*
D31*
X153386800Y-114741100D03*
D30*
X147086800Y-117041100D03*
%TD*%
D32*
%TO.C,D3*%
X134292200Y-87596400D03*
X138292200Y-87596400D03*
%TD*%
D33*
%TO.C,Q2*%
X159525000Y-116344400D03*
X159525000Y-118244400D03*
X161400000Y-117294400D03*
%TD*%
D28*
%TO.C,R9*%
X155330000Y-113281200D03*
X156980000Y-113281200D03*
%TD*%
D34*
%TO.C,SW2*%
X131666000Y-89767231D03*
X123706000Y-89767231D03*
X131666000Y-85267231D03*
X123706000Y-85267231D03*
%TD*%
D35*
%TO.C,R5*%
X148875000Y-97800000D03*
X147225000Y-97800000D03*
%TD*%
D16*
%TO.C,D8*%
X143429600Y-92146100D03*
X143429600Y-90271100D03*
%TD*%
D36*
%TO.C,SW3*%
X151136400Y-106300800D03*
X151136400Y-98340800D03*
X155636400Y-106300800D03*
X155636400Y-98340800D03*
%TD*%
D21*
%TO.C,J7*%
X153487335Y-123394356D03*
X159267335Y-123394356D03*
D22*
X153127335Y-121949356D03*
X153927335Y-121949356D03*
D23*
X155127335Y-121949356D03*
X156127335Y-121949356D03*
X156627335Y-121949356D03*
X157627335Y-121949356D03*
D22*
X158827335Y-121949356D03*
X159627335Y-121949356D03*
X159627335Y-121949356D03*
X158827335Y-121949356D03*
D23*
X158127335Y-121949356D03*
X157127335Y-121949356D03*
X155627335Y-121949356D03*
X154627335Y-121949356D03*
D22*
X153927335Y-121949356D03*
X153127335Y-121949356D03*
D24*
X152057335Y-122864356D03*
D25*
X152057335Y-127044356D03*
D24*
X160697335Y-122864356D03*
D25*
X160697335Y-127044356D03*
%TD*%
D26*
%TO.C,J6*%
X148836400Y-87576400D03*
D27*
X148836400Y-85036400D03*
X148836400Y-82496400D03*
%TD*%
D26*
%TO.C,J3*%
X159550000Y-87580000D03*
D27*
X159550000Y-85040000D03*
X159550000Y-82500000D03*
%TD*%
D35*
%TO.C,R4*%
X128481200Y-83233000D03*
X126831200Y-83233000D03*
%TD*%
D10*
%TO.C,R7*%
X141677000Y-118374400D03*
X141677000Y-120024400D03*
%TD*%
D37*
%TO.C,U1*%
X156634400Y-109487200D03*
X156634400Y-109987200D03*
X156634400Y-110487200D03*
X156634400Y-110987200D03*
D38*
X157371900Y-111724700D03*
X157871900Y-111724700D03*
X158371900Y-111724700D03*
X158871900Y-111724700D03*
D37*
X159609400Y-110987200D03*
X159609400Y-110487200D03*
X159609400Y-109987200D03*
X159609400Y-109487200D03*
D38*
X158871900Y-108749700D03*
X158371900Y-108749700D03*
X157871900Y-108749700D03*
X157371900Y-108749700D03*
D39*
X158121900Y-110237200D03*
%TD*%
D28*
%TO.C,R11*%
X159394000Y-113281200D03*
X161044000Y-113281200D03*
%TD*%
D40*
%TO.C,C7*%
X146575000Y-119550000D03*
X149525000Y-119550000D03*
%TD*%
D10*
%TO.C,R14*%
X145537800Y-93914200D03*
X145537800Y-95564200D03*
%TD*%
D33*
%TO.C,Q1*%
X155649300Y-116344400D03*
X155649300Y-118244400D03*
X157524300Y-117294400D03*
%TD*%
D26*
%TO.C,J2*%
X139289400Y-78813400D03*
D27*
X141829400Y-78813400D03*
X144369400Y-78813400D03*
X146909400Y-78813400D03*
%TD*%
D26*
%TO.C,J1*%
X150541600Y-78813400D03*
D27*
X153081600Y-78813400D03*
X155621600Y-78813400D03*
X158161600Y-78813400D03*
%TD*%
D26*
%TO.C,J4*%
X156000000Y-87576400D03*
D27*
X156000000Y-85036400D03*
X156000000Y-82496400D03*
%TD*%
D16*
%TO.C,D7*%
X145537800Y-92146100D03*
X145537800Y-90271100D03*
%TD*%
D29*
%TO.C,C6*%
X155647000Y-93599800D03*
X155647000Y-92959800D03*
%TD*%
D32*
%TO.C,D1*%
X135257400Y-115250000D03*
X139257400Y-115250000D03*
%TD*%
D41*
%TO.C,JP2*%
X146198200Y-102729800D03*
D42*
X146198200Y-101429800D03*
%TD*%
D10*
%TO.C,R6*%
X143175600Y-118374400D03*
X143175600Y-120024400D03*
%TD*%
D43*
%TO.C,J10*%
X135542935Y-122914856D03*
D44*
X133042935Y-122914856D03*
X130542935Y-122914856D03*
X128042935Y-122914856D03*
%TD*%
D28*
%TO.C,R8*%
X155330000Y-114805200D03*
X156980000Y-114805200D03*
%TD*%
D35*
%TO.C,R1*%
X155438800Y-119730000D03*
X153788800Y-119730000D03*
%TD*%
D40*
%TO.C,C10*%
X146552000Y-109965900D03*
X149502000Y-109965900D03*
%TD*%
D10*
%TO.C,R13*%
X147620600Y-93914200D03*
X147620600Y-95564200D03*
%TD*%
D45*
%TO.C,TH2*%
X141877200Y-116557800D03*
X144677200Y-116557800D03*
%TD*%
D32*
%TO.C,D2*%
X135257400Y-118809462D03*
X139257400Y-118809462D03*
%TD*%
D28*
%TO.C,R12*%
X143684000Y-97800000D03*
X145334000Y-97800000D03*
%TD*%
D46*
%TO.C,U2*%
X123617600Y-111070800D03*
X124887600Y-111070800D03*
X126157600Y-111070800D03*
X127427600Y-111070800D03*
X128697600Y-111070800D03*
X129967600Y-111070800D03*
X131237600Y-111070800D03*
X132507600Y-111070800D03*
X133777600Y-111070800D03*
X135047600Y-111070800D03*
X136317600Y-111070800D03*
X137587600Y-111070800D03*
X138857600Y-111070800D03*
X140127600Y-111070800D03*
D47*
X141377600Y-109305800D03*
X141377600Y-108035800D03*
X141377600Y-106765800D03*
X141377600Y-105495800D03*
X141377600Y-104225800D03*
X141377600Y-102955800D03*
X141377600Y-101685800D03*
X141377600Y-100415800D03*
X141377600Y-99145800D03*
X141377600Y-97875800D03*
X141377600Y-96605800D03*
X141377600Y-95335800D03*
D46*
X140127600Y-93570800D03*
X138857600Y-93570800D03*
X137587600Y-93570800D03*
X136317600Y-93570800D03*
X135047600Y-93570800D03*
X133777600Y-93570800D03*
X132507600Y-93570800D03*
X131237600Y-93570800D03*
X129967600Y-93570800D03*
X128697600Y-93570800D03*
X127427600Y-93570800D03*
X126157600Y-93570800D03*
X124887600Y-93570800D03*
X123617600Y-93570800D03*
D48*
X130637600Y-105220800D03*
X132037600Y-105220800D03*
X129937600Y-104520800D03*
X131337600Y-104520800D03*
X132737600Y-104520800D03*
X130637600Y-103820800D03*
D49*
X131337600Y-103820800D03*
D48*
X132037600Y-103820800D03*
X129937600Y-103120800D03*
X131337600Y-103120800D03*
X132737600Y-103120800D03*
X130637600Y-102420800D03*
X132037600Y-102420800D03*
%TD*%
D29*
%TO.C,C5*%
X149144600Y-93599800D03*
X149144600Y-92959800D03*
%TD*%
D15*
%TO.C,C9*%
X151049600Y-110563400D03*
X151689600Y-110563400D03*
%TD*%
D45*
%TO.C,TH1*%
X141877200Y-114271800D03*
X144677200Y-114271800D03*
%TD*%
D50*
%TO.C,C2*%
X155265000Y-110487200D03*
X154625000Y-110487200D03*
%TD*%
D28*
%TO.C,R3*%
X129400000Y-112900200D03*
X131050000Y-112900200D03*
%TD*%
D50*
%TO.C,C4*%
X124257200Y-113001800D03*
X123617200Y-113001800D03*
%TD*%
D28*
%TO.C,R10*%
X159394000Y-114805200D03*
X161044000Y-114805200D03*
%TD*%
D26*
%TO.C,J9*%
X212790000Y-108736231D03*
D27*
X210250000Y-108736231D03*
X207710000Y-108736231D03*
X205170000Y-108736231D03*
X202630000Y-108736231D03*
X200090000Y-108736231D03*
X197550000Y-108736231D03*
X195010000Y-108736231D03*
X192470000Y-108736231D03*
X189930000Y-108736231D03*
X187390000Y-108736231D03*
X184850000Y-108736231D03*
X182310000Y-108736231D03*
X179770000Y-108736231D03*
X177230000Y-108736231D03*
X174690000Y-108736231D03*
X172150000Y-108736231D03*
X169610000Y-108736231D03*
X167070000Y-108736231D03*
X164530000Y-108736231D03*
%TD*%
D26*
%TO.C,J8*%
X164530000Y-95855631D03*
D27*
X167070000Y-95855631D03*
X169610000Y-95855631D03*
X172150000Y-95855631D03*
X174690000Y-95855631D03*
X177230000Y-95855631D03*
X179770000Y-95855631D03*
X182310000Y-95855631D03*
X184850000Y-95855631D03*
X187390000Y-95855631D03*
X189930000Y-95855631D03*
X192470000Y-95855631D03*
X195010000Y-95855631D03*
X197550000Y-95855631D03*
X200090000Y-95855631D03*
X202630000Y-95855631D03*
X205170000Y-95855631D03*
X207710000Y-95855631D03*
X210250000Y-95855631D03*
X212790000Y-95855631D03*
%TD*%
D26*
%TO.C,J14*%
X134050000Y-80811000D03*
D27*
X134050000Y-78271000D03*
%TD*%
M02*
