%TF.GenerationSoftware,KiCad,Pcbnew,10.0.3*%
%TF.CreationDate,2026-09-06T17:05:21+03:00*%
%TF.ProjectId,v1.0,76312e30-2e6b-4696-9361-645f70636258,rev?*%
%TF.SameCoordinates,Original*%
%TF.FileFunction,Other,User*%
%FSLAX46Y46*%
G04 Gerber Fmt 4.6, Leading zero omitted, Abs format (unit mm)*
G04 Created by KiCad (PCBNEW 10.0.3) date 2026-09-06 17:05:21*
%MOMM*%
%LPD*%
G01*
G04 APERTURE LIST*
%ADD10C,0.050000*%
G04 APERTURE END LIST*
%TO.C,R15*%
D10*
X142699600Y-93259200D02*
X144159600Y-93259200D01*
X144159600Y-96219200D01*
X142699600Y-96219200D01*
X142699600Y-93259200D01*
%TO.C,SW4*%
X123484800Y-76725000D02*
X126234800Y-76725000D01*
X123484800Y-81275000D02*
X123484800Y-76725000D01*
X126234800Y-75425000D02*
X129534800Y-75425000D01*
X126234800Y-76725000D02*
X126234800Y-75425000D01*
X129534800Y-75425000D02*
X129534800Y-76725000D01*
X129534800Y-76725000D02*
X132284800Y-76725000D01*
X132284800Y-76725000D02*
X132284800Y-81275000D01*
X132284800Y-81275000D02*
X123484800Y-81275000D01*
%TO.C,D10*%
X149646800Y-89829800D02*
X149646800Y-96729800D01*
X149646800Y-96729800D02*
X155146800Y-96729800D01*
X155146800Y-89829800D02*
X149646800Y-89829800D01*
X155146800Y-96729800D02*
X155146800Y-89829800D01*
%TO.C,D9*%
X156149200Y-89829800D02*
X156149200Y-96729800D01*
X156149200Y-96729800D02*
X161649200Y-96729800D01*
X161649200Y-89829800D02*
X156149200Y-89829800D01*
X161649200Y-96729800D02*
X161649200Y-89829800D01*
%TO.C,C3*%
X154245000Y-109137200D02*
X155645000Y-109137200D01*
X155645000Y-109837200D01*
X154245000Y-109837200D01*
X154245000Y-109137200D01*
%TO.C,D6*%
X146670600Y-89528600D02*
X148570600Y-89528600D01*
X148570600Y-92888600D01*
X146670600Y-92888600D01*
X146670600Y-89528600D01*
%TO.C,SW1*%
X122987200Y-113716600D02*
X122987200Y-120516600D01*
X122987200Y-113716600D02*
X133087200Y-113716600D01*
X122987200Y-120516600D02*
X133087200Y-120516600D01*
X133087200Y-120516600D02*
X133087200Y-113716600D01*
%TO.C,J11*%
X139505135Y-120737356D02*
X139505135Y-130157356D01*
X139505135Y-120737356D02*
X150145135Y-120737356D01*
X139505135Y-130157356D02*
X150145135Y-130157356D01*
X150145135Y-120737356D02*
X150145135Y-130157356D01*
%TO.C,C8*%
X150669600Y-118544600D02*
X152069600Y-118544600D01*
X152069600Y-119244600D01*
X150669600Y-119244600D01*
X150669600Y-118544600D01*
%TO.C,J15*%
X140694400Y-85806400D02*
X146784400Y-85806400D01*
X146784400Y-89346400D01*
X140694400Y-89346400D01*
X140694400Y-85806400D01*
%TO.C,J5*%
X150663200Y-80726400D02*
X154203200Y-80726400D01*
X154203200Y-89346400D01*
X150663200Y-89346400D01*
X150663200Y-80726400D01*
%TO.C,R2*%
X156195000Y-119000000D02*
X159155000Y-119000000D01*
X159155000Y-120460000D01*
X156195000Y-120460000D01*
X156195000Y-119000000D01*
%TO.C,C1*%
X157811600Y-112581200D02*
X158511600Y-112581200D01*
X158511600Y-113981200D01*
X157811600Y-113981200D01*
X157811600Y-112581200D01*
%TO.C,U3*%
X145836800Y-111141100D02*
X145836800Y-118341100D01*
X145836800Y-118341100D02*
X154636800Y-118341100D01*
X154636800Y-111141100D02*
X145836800Y-111141100D01*
X154636800Y-118341100D02*
X154636800Y-111141100D01*
%TO.C,D3*%
X132792200Y-85846400D02*
X139792200Y-85846400D01*
X132792200Y-89346400D02*
X132792200Y-85846400D01*
X139792200Y-85846400D02*
X139792200Y-89346400D01*
X139792200Y-89346400D02*
X132792200Y-89346400D01*
%TO.C,Q2*%
X158532500Y-115794400D02*
X159562500Y-115794400D01*
X158532500Y-116904400D02*
X158532500Y-115794400D01*
X158532500Y-117684400D02*
X159562500Y-117684400D01*
X158532500Y-118794400D02*
X158532500Y-117684400D01*
X159562500Y-115594400D02*
X161362500Y-115594400D01*
X159562500Y-115794400D02*
X159562500Y-115594400D01*
X159562500Y-116904400D02*
X158532500Y-116904400D01*
X159562500Y-117684400D02*
X159562500Y-116904400D01*
X159562500Y-118794400D02*
X158532500Y-118794400D01*
X159562500Y-118994400D02*
X159562500Y-118794400D01*
X161362500Y-115594400D02*
X161362500Y-116744400D01*
X161362500Y-116744400D02*
X162392500Y-116744400D01*
X161362500Y-117844400D02*
X161362500Y-118994400D01*
X161362500Y-118994400D02*
X159562500Y-118994400D01*
X162392500Y-116744400D02*
X162392500Y-117844400D01*
X162392500Y-117844400D02*
X161362500Y-117844400D01*
%TO.C,R9*%
X154675000Y-112551200D02*
X157635000Y-112551200D01*
X157635000Y-114011200D01*
X154675000Y-114011200D01*
X154675000Y-112551200D01*
%TO.C,SW2*%
X122636000Y-84117231D02*
X122636000Y-90917231D01*
X132736000Y-84117231D02*
X122636000Y-84117231D01*
X132736000Y-90917231D02*
X122636000Y-90917231D01*
X132736000Y-90917231D02*
X132736000Y-84117231D01*
%TO.C,R5*%
X146570000Y-97070000D02*
X149530000Y-97070000D01*
X149530000Y-98530000D01*
X146570000Y-98530000D01*
X146570000Y-97070000D01*
%TO.C,D8*%
X142479600Y-89528600D02*
X144379600Y-89528600D01*
X144379600Y-92888600D01*
X142479600Y-92888600D01*
X142479600Y-89528600D01*
%TO.C,SW3*%
X149986400Y-107370800D02*
X149986400Y-97270800D01*
X149986400Y-107370800D02*
X156786400Y-107370800D01*
X156786400Y-97270800D02*
X149986400Y-97270800D01*
X156786400Y-107370800D02*
X156786400Y-97270800D01*
%TO.C,J7*%
X151057335Y-120724356D02*
X151057335Y-130144356D01*
X151057335Y-120724356D02*
X161697335Y-120724356D01*
X151057335Y-130144356D02*
X161697335Y-130144356D01*
X161697335Y-120724356D02*
X161697335Y-130144356D01*
%TO.C,J6*%
X147066400Y-80726400D02*
X150606400Y-80726400D01*
X150606400Y-89346400D01*
X147066400Y-89346400D01*
X147066400Y-80726400D01*
%TO.C,J3*%
X157780000Y-80730000D02*
X161320000Y-80730000D01*
X161320000Y-89350000D01*
X157780000Y-89350000D01*
X157780000Y-80730000D01*
%TO.C,R4*%
X126176200Y-82503000D02*
X129136200Y-82503000D01*
X129136200Y-83963000D01*
X126176200Y-83963000D01*
X126176200Y-82503000D01*
%TO.C,R7*%
X140947000Y-117719400D02*
X142407000Y-117719400D01*
X142407000Y-120679400D01*
X140947000Y-120679400D01*
X140947000Y-117719400D01*
%TO.C,U1*%
X155991900Y-109087200D02*
X156371900Y-109087200D01*
X155991900Y-111387200D02*
X155991900Y-109087200D01*
X156371900Y-108487200D02*
X156971900Y-108487200D01*
X156371900Y-109087200D02*
X156371900Y-108487200D01*
X156371900Y-111387200D02*
X155991900Y-111387200D01*
X156371900Y-111987200D02*
X156371900Y-111387200D01*
X156971900Y-108107200D02*
X159271900Y-108107200D01*
X156971900Y-108487200D02*
X156971900Y-108107200D01*
X156971900Y-111987200D02*
X156371900Y-111987200D01*
X156971900Y-112367200D02*
X156971900Y-111987200D01*
X159271900Y-108107200D02*
X159271900Y-108487200D01*
X159271900Y-108487200D02*
X159871900Y-108487200D01*
X159271900Y-111987200D02*
X159271900Y-112367200D01*
X159271900Y-112367200D02*
X156971900Y-112367200D01*
X159871900Y-108487200D02*
X159871900Y-109087200D01*
X159871900Y-109087200D02*
X160251900Y-109087200D01*
X159871900Y-111387200D02*
X159871900Y-111987200D01*
X159871900Y-111987200D02*
X159271900Y-111987200D01*
X160251900Y-109087200D02*
X160251900Y-111387200D01*
X160251900Y-111387200D02*
X159871900Y-111387200D01*
%TO.C,R11*%
X158739000Y-112551200D02*
X161699000Y-112551200D01*
X161699000Y-114011200D01*
X158739000Y-114011200D01*
X158739000Y-112551200D01*
%TO.C,C7*%
X145750000Y-118400000D02*
X150350000Y-118400000D01*
X150350000Y-120700000D01*
X145750000Y-120700000D01*
X145750000Y-118400000D01*
%TO.C,R14*%
X144807800Y-93259200D02*
X146267800Y-93259200D01*
X146267800Y-96219200D01*
X144807800Y-96219200D01*
X144807800Y-93259200D01*
%TO.C,Q1*%
X154656800Y-115794400D02*
X155686800Y-115794400D01*
X154656800Y-116904400D02*
X154656800Y-115794400D01*
X154656800Y-117684400D02*
X155686800Y-117684400D01*
X154656800Y-118794400D02*
X154656800Y-117684400D01*
X155686800Y-115594400D02*
X157486800Y-115594400D01*
X155686800Y-115794400D02*
X155686800Y-115594400D01*
X155686800Y-116904400D02*
X154656800Y-116904400D01*
X155686800Y-117684400D02*
X155686800Y-116904400D01*
X155686800Y-118794400D02*
X154656800Y-118794400D01*
X155686800Y-118994400D02*
X155686800Y-118794400D01*
X157486800Y-115594400D02*
X157486800Y-116744400D01*
X157486800Y-116744400D02*
X158516800Y-116744400D01*
X157486800Y-117844400D02*
X157486800Y-118994400D01*
X157486800Y-118994400D02*
X155686800Y-118994400D01*
X158516800Y-116744400D02*
X158516800Y-117844400D01*
X158516800Y-117844400D02*
X157486800Y-117844400D01*
%TO.C,J2*%
X137519400Y-77043400D02*
X148679400Y-77043400D01*
X137519400Y-80583400D02*
X137519400Y-77043400D01*
X148679400Y-77043400D02*
X148679400Y-80583400D01*
X148679400Y-80583400D02*
X137519400Y-80583400D01*
%TO.C,J1*%
X148771600Y-77043400D02*
X159931600Y-77043400D01*
X148771600Y-80583400D02*
X148771600Y-77043400D01*
X159931600Y-77043400D02*
X159931600Y-80583400D01*
X159931600Y-80583400D02*
X148771600Y-80583400D01*
%TO.C,J4*%
X154230000Y-80726400D02*
X157770000Y-80726400D01*
X157770000Y-89346400D01*
X154230000Y-89346400D01*
X154230000Y-80726400D01*
%TO.C,D7*%
X144587800Y-89528600D02*
X146487800Y-89528600D01*
X146487800Y-92888600D01*
X144587800Y-92888600D01*
X144587800Y-89528600D01*
%TO.C,C6*%
X155297000Y-92579800D02*
X155997000Y-92579800D01*
X155997000Y-93979800D01*
X155297000Y-93979800D01*
X155297000Y-92579800D01*
%TO.C,D1*%
X133757400Y-113500000D02*
X140757400Y-113500000D01*
X133757400Y-117000000D02*
X133757400Y-113500000D01*
X140757400Y-113500000D02*
X140757400Y-117000000D01*
X140757400Y-117000000D02*
X133757400Y-117000000D01*
%TO.C,JP2*%
X144948200Y-103729800D02*
X144948200Y-100429800D01*
X144948200Y-103729800D02*
X147448200Y-103729800D01*
X147448200Y-100429800D02*
X144948200Y-100429800D01*
X147448200Y-100429800D02*
X147448200Y-103729800D01*
%TO.C,R6*%
X142445600Y-117719400D02*
X143905600Y-117719400D01*
X143905600Y-120679400D01*
X142445600Y-120679400D01*
X142445600Y-117719400D01*
%TO.C,J10*%
X125042935Y-120914856D02*
X138542935Y-120914856D01*
X138542935Y-130114856D01*
X125042935Y-130114856D01*
X125042935Y-120914856D01*
%TO.C,R8*%
X154675000Y-114075200D02*
X157635000Y-114075200D01*
X157635000Y-115535200D01*
X154675000Y-115535200D01*
X154675000Y-114075200D01*
%TO.C,R1*%
X153133800Y-119000000D02*
X156093800Y-119000000D01*
X156093800Y-120460000D01*
X153133800Y-120460000D01*
X153133800Y-119000000D01*
%TO.C,C10*%
X145727000Y-108815900D02*
X150327000Y-108815900D01*
X150327000Y-111115900D01*
X145727000Y-111115900D01*
X145727000Y-108815900D01*
%TO.C,R13*%
X146890600Y-93259200D02*
X148350600Y-93259200D01*
X148350600Y-96219200D01*
X146890600Y-96219200D01*
X146890600Y-93259200D01*
%TO.C,TH2*%
X140997200Y-115427800D02*
X145557200Y-115427800D01*
X145557200Y-117687800D01*
X140997200Y-117687800D01*
X140997200Y-115427800D01*
%TO.C,D2*%
X133757400Y-117059462D02*
X140757400Y-117059462D01*
X133757400Y-120559462D02*
X133757400Y-117059462D01*
X140757400Y-117059462D02*
X140757400Y-120559462D01*
X140757400Y-120559462D02*
X133757400Y-120559462D01*
%TO.C,R12*%
X143029000Y-97070000D02*
X145989000Y-97070000D01*
X145989000Y-98530000D01*
X143029000Y-98530000D01*
X143029000Y-97070000D01*
%TO.C,U2*%
X101127600Y-78320800D02*
X101127600Y-126320800D01*
X101127600Y-126320800D02*
X122127600Y-126320800D01*
X122127600Y-78320800D02*
X101127600Y-78320800D01*
X122127600Y-92570800D02*
X122127600Y-78320800D01*
X122127600Y-92570800D02*
X142327600Y-92570800D01*
X122127600Y-126320800D02*
X122127600Y-112070800D01*
X142327600Y-112070800D02*
X122127600Y-112070800D01*
X142327600Y-112070800D02*
X142327600Y-92570800D01*
%TO.C,C5*%
X148794600Y-92579800D02*
X149494600Y-92579800D01*
X149494600Y-93979800D01*
X148794600Y-93979800D01*
X148794600Y-92579800D01*
%TO.C,C9*%
X150669600Y-110213400D02*
X152069600Y-110213400D01*
X152069600Y-110913400D01*
X150669600Y-110913400D01*
X150669600Y-110213400D01*
%TO.C,TH1*%
X140997200Y-113141800D02*
X145557200Y-113141800D01*
X145557200Y-115401800D01*
X140997200Y-115401800D01*
X140997200Y-113141800D01*
%TO.C,C2*%
X154245000Y-110137200D02*
X155645000Y-110137200D01*
X155645000Y-110837200D01*
X154245000Y-110837200D01*
X154245000Y-110137200D01*
%TO.C,R3*%
X128745000Y-112170200D02*
X131705000Y-112170200D01*
X131705000Y-113630200D01*
X128745000Y-113630200D01*
X128745000Y-112170200D01*
%TO.C,C4*%
X123237200Y-112651800D02*
X124637200Y-112651800D01*
X124637200Y-113351800D01*
X123237200Y-113351800D01*
X123237200Y-112651800D01*
%TO.C,R10*%
X158739000Y-114075200D02*
X161699000Y-114075200D01*
X161699000Y-115535200D01*
X158739000Y-115535200D01*
X158739000Y-114075200D01*
%TD*%
M02*
